<?xml version="1.0" encoding="UTF-8"?>
<svg xmlns="http://www.w3.org/2000/svg" viewBox="0 0 735 472.5">
  <defs>
    <style>
      .cls-1 {
        fill: #9e772e;
      }

      .cls-2 {
        fill: #ba8c37;
      }

      .cls-3 {
        fill: #3b3481;
      }

      .cls-4, .cls-5 {
        fill: #843511;
      }

      .cls-6 {
        stroke-width: .4px;
      }

      .cls-6, .cls-7 {
        stroke: #843511;
        stroke-miterlimit: 11.34;
      }

      .cls-6, .cls-7, .cls-8 {
        fill: #da251d;
      }

      .cls-7 {
        stroke-width: .61px;
      }

      .cls-7, .cls-9, .cls-5, .cls-10, .cls-8 {
        fill-rule: evenodd;
      }

      .cls-9 {
        fill: #843811;
      }

      .cls-10 {
        fill: #de251d;
      }
    </style>
  </defs>
  <g id="svg3945" image-rendering="optimizeQuality" shape-rendering="geometricPrecision" text-rendering="geometricPrecision">
    <rect id="blue" class="cls-3" x=".95" width="735" height="472.5"/>
    <g>
      <g id="_16rays" data-name=" 16rays">
        <g id="_8rays" data-name=" 8rays">
          <g id="_4rays" data-name=" 4rays">
            <g id="_2rays" data-name=" 2rays">
              <path id="path11" class="cls-7" d="m363.62,236.25l2.91,74.16s0,1.45.97,1.45.97-1.45.97-1.45l2.91-74.16m-7.75,0h0Z"/>
              <path id="path13" class="cls-5" d="m365.56,236.25l1.94,50.89,1.94-50.89m-3.88,0h0Z"/>
              <g id="g15">
                <path id="path17" class="cls-7" d="m360.39,260.28c-4.36,9.25-.48,16.97-4.84,24.98-4.35,8.02-1.57,15.01-1.82,18.67-.25,3.66-3.44,4.74-2.63,5.65.8.91,4.14-.89,5.39-5.83,1.25-4.94-1.88-7.8,3.34-17.62,5.21-9.82,1-14.64,6.26-23.46m-5.7-2.4h0Z"/>
                <path id="path19" class="cls-5" d="m361.61,262.75c-3.36,9.21.33,15.4-4.26,23.37,5.15-5.88,1.66-13.02,6.06-22.51m-1.8-.86h0Z"/>
              </g>
            </g>
            <g id="g3960">
              <g id="g3962">
                <path id="_65624120" data-name=" 65624120" class="cls-7" d="m371.38,236.25l-2.91-74.16s0-1.45-.97-1.45-.97,1.45-.97,1.45l-2.91,74.16m7.75,0h0Z"/>
                <path id="_65624048" data-name=" 65624048" class="cls-5" d="m369.44,236.25l-1.94-50.89-1.94,50.89m3.88,0h0Z"/>
                <g id="g3966">
                  <path id="_65623976" data-name=" 65623976" class="cls-7" d="m374.61,212.22c4.36-9.25.48-16.97,4.84-24.98,4.35-8.02,1.57-15.01,1.82-18.67.25-3.66,3.44-4.74,2.63-5.65s-4.14.89-5.39,5.83c-1.25,4.94,1.88,7.8-3.34,17.62-5.21,9.82-1,14.64-6.26,23.46m5.7,2.4h0Z"/>
                  <path id="_65623904" data-name=" 65623904" class="cls-5" d="m373.39,209.75c3.36-9.21-.33-15.4,4.26-23.37-5.15,5.88-1.66,13.02-6.06,22.51m1.8.86h0Z"/>
                </g>
              </g>
            </g>
          </g>
          <g id="g3970">
            <g id="g3972">
              <g id="g3974">
                <path id="_65623688" data-name=" 65623688" class="cls-7" d="m367.5,232.37l-74.16,2.91s-1.45,0-1.45.97,1.45.97,1.45.97l74.16,2.91m0-7.75h0Z"/>
                <path id="_65623616" data-name=" 65623616" class="cls-5" d="m367.5,234.31l-50.89,1.94,50.89,1.94m0-3.88h0Z"/>
                <g id="g3978">
                  <path id="_65623544" data-name=" 65623544" class="cls-7" d="m343.47,229.14c-9.25-4.36-16.97-.48-24.98-4.84s-15.01-1.57-18.67-1.82c-3.66-.25-4.74-3.44-5.65-2.63-.91.8.89,4.14,5.83,5.39,4.94,1.25,7.8-1.88,17.62,3.34,9.82,5.21,14.64,1,23.46,6.26m2.4-5.7h0Z"/>
                  <path id="_65623472" data-name=" 65623472" class="cls-5" d="m341,230.36c-9.21-3.36-15.4.33-23.37-4.26,5.88,5.15,13.02,1.66,22.51,6.06m.86-1.8h0Z"/>
                </g>
              </g>
              <g id="g3982">
                <g id="g3984">
                  <path id="_65623352" data-name=" 65623352" class="cls-7" d="m367.5,240.13l74.16-2.91s1.45,0,1.45-.97-1.45-.97-1.45-.97l-74.16-2.91m0,7.75h0Z"/>
                  <path id="_65623280" data-name=" 65623280" class="cls-5" d="m367.5,238.19l50.89-1.94-50.89-1.94m0,3.88h0Z"/>
                  <g id="g3988">
                    <path id="_65623208" data-name=" 65623208" class="cls-7" d="m391.53,243.36c9.25,4.36,16.97.48,24.98,4.84s15.01,1.57,18.67,1.82c3.66.25,4.74,3.44,5.65,2.63.91-.8-.89-4.14-5.83-5.39-4.94-1.25-7.8,1.88-17.62-3.34-9.82-5.21-14.64-1-23.46-6.26m-2.4,5.7h0Z"/>
                    <path id="_65623136" data-name=" 65623136" class="cls-5" d="m394,242.14c9.21,3.36,15.4-.33,23.37,4.26-5.88-5.15-13.02-1.66-22.51-6.06m-.86,1.8h0Z"/>
                  </g>
                </g>
              </g>
            </g>
          </g>
        </g>
        <g id="g3992">
          <g id="g3994">
            <g id="g3996">
              <g id="g3998">
                <path id="_65622872" data-name=" 65622872" class="cls-7" d="m364.76,233.51l-50.38,54.49s-1.03,1.03-.34,1.71c.69.69,1.71-.34,1.71-.34l54.49-50.38m-5.48-5.48h0Z"/>
                <path id="_65622800" data-name=" 65622800" class="cls-5" d="m366.13,234.88l-34.62,37.36,37.36-34.62m-2.74-2.74h0Z"/>
                <g id="g4002">
                  <path id="_65622728" data-name=" 65622728" class="cls-7" d="m345.48,248.21c-9.62,3.46-12.34,11.65-21.09,14.25-8.75,2.59-11.73,9.51-14.49,11.92-2.76,2.41-5.78.92-5.85,2.13-.07,1.21,3.55,2.3,7.93-.31,4.38-2.61,4.19-6.84,14.82-10.1,10.63-3.26,11.06-9.64,21.01-12.16m-2.33-5.72h0Z"/>
                  <path id="_65622656" data-name=" 65622656" class="cls-5" d="m344.6,250.83c-8.89,4.14-10.66,11.12-19.54,13.51,7.8-.51,10.38-8.03,20.2-11.63m-.67-1.88h0Z"/>
                </g>
              </g>
              <g id="g4006">
                <g id="g4008">
                  <path id="_65622536" data-name=" 65622536" class="cls-7" d="m370.24,238.99l50.38-54.49s1.03-1.03.34-1.71c-.69-.69-1.71.34-1.71.34l-54.49,50.38m5.48,5.48h0Z"/>
                  <path id="_65622464" data-name=" 65622464" class="cls-5" d="m368.87,237.62l34.62-37.36-37.36,34.62m2.74,2.74h0Z"/>
                  <g id="g4012">
                    <path id="_65622392" data-name=" 65622392" class="cls-7" d="m389.52,224.29c9.62-3.46,12.34-11.65,21.09-14.25,8.75-2.59,11.73-9.51,14.49-11.92,2.76-2.41,5.78-.92,5.85-2.13.07-1.21-3.55-2.3-7.93.31-4.38,2.61-4.19,6.84-14.82,10.1-10.63,3.26-11.06,9.64-21.01,12.16m2.33,5.72h0Z"/>
                    <path id="_65622320" data-name=" 65622320" class="cls-5" d="m390.4,221.67c8.89-4.14,10.66-11.12,19.54-13.51-7.8.51-10.38,8.03-20.2,11.63m.67,1.88h0Z"/>
                  </g>
                </g>
              </g>
            </g>
            <g id="g4016">
              <g id="g4018">
                <g id="g4020">
                  <path id="_65622152" data-name=" 65622152" class="cls-7" d="m370.24,233.51l-54.49-50.38s-1.03-1.03-1.71-.34c-.69.69.34,1.71.34,1.71l50.38,54.49m5.48-5.48h0Z"/>
                  <path id="_65622080" data-name=" 65622080" class="cls-5" d="m368.87,234.88l-37.36-34.62,34.62,37.36m2.74-2.74h0Z"/>
                  <g id="g4024">
                    <path id="_65622008" data-name=" 65622008" class="cls-7" d="m355.54,214.23c-3.46-9.62-11.65-12.34-14.25-21.09-2.59-8.75-9.51-11.73-11.92-14.49-2.41-2.76-.92-5.78-2.13-5.85-1.21-.07-2.3,3.55.31,7.93,2.61,4.38,6.84,4.19,10.1,14.82,3.26,10.63,9.64,11.06,12.16,21.01m5.72-2.33h0Z"/>
                    <path id="_65621936" data-name=" 65621936" class="cls-5" d="m352.92,213.35c-4.14-8.89-11.12-10.66-13.51-19.54.51,7.8,8.03,10.38,11.63,20.2m1.88-.67h0Z"/>
                  </g>
                </g>
                <g id="g4028">
                  <g id="g4030">
                    <path id="_65621816" data-name=" 65621816" class="cls-7" d="m364.76,238.99l54.49,50.38s1.03,1.03,1.71.34c.69-.69-.34-1.71-.34-1.71l-50.38-54.49m-5.48,5.48h0Z"/>
                    <path id="_65621744" data-name=" 65621744" class="cls-5" d="m366.13,237.62l37.36,34.62-34.62-37.36m-2.74,2.74h0Z"/>
                    <g id="g4034">
                      <path id="_65621672" data-name=" 65621672" class="cls-7" d="m379.46,258.27c3.46,9.62,11.65,12.34,14.25,21.09,2.59,8.75,9.51,11.73,11.92,14.49,2.41,2.76.92,5.78,2.13,5.85,1.21.07,2.3-3.55-.31-7.93-2.61-4.38-6.84-4.19-10.1-14.82-3.26-10.63-9.64-11.06-12.16-21.01m-5.72,2.33h0Z"/>
                      <path id="_65621600" data-name=" 65621600" class="cls-5" d="m382.08,259.15c4.14,8.89,11.12,10.66,13.51,19.54-.51-7.8-8.03-10.38-11.63-20.2m-1.88.67h0Z"/>
                    </g>
                  </g>
                </g>
              </g>
            </g>
          </g>
        </g>
      </g>
      <path id="path4038" class="cls-7" d="m363.92,234.77l-25.69,69.63s-.56,1.34.34,1.71c.9.37,1.45-.97,1.45-.97l31.07-67.4m-7.16-2.97h0Z"/>
      <path id="path4040" class="cls-5" d="m365.71,235.51l-17.68,47.76,21.27-46.28m-3.58-1.48h0Z"/>
      <path id="path4042" class="cls-7" d="m351.74,255.72c-7.57,6.88-6.94,15.49-14.03,21.23-7.09,5.74-7.2,13.27-8.83,16.55-1.63,3.28-4.99,3.06-4.59,4.21.4,1.14,4.16.76,7.21-3.32,3.05-4.08,1.25-7.92,9.83-15,8.57-7.08,6.52-13.14,14.76-19.28m-4.35-4.39h0Z"/>
      <path id="path4044" class="cls-5" d="m351.92,258.48c-6.63,7.22-5.59,14.35-12.88,19.96,7.01-3.46,6.51-11.39,14.21-18.47m-1.34-1.49h0Z"/>
      <path id="path4046" class="cls-7" d="m371.08,237.73l25.69-69.63s.56-1.34-.34-1.71c-.9-.37-1.45.97-1.45.97l-31.07,67.4m7.16,2.97h0Z"/>
      <path id="path4048" class="cls-5" d="m369.29,236.99l17.68-47.76-21.27,46.28m3.58,1.48h0Z"/>
      <path id="path4050" class="cls-7" d="m383.27,216.78c7.57-6.88,6.94-15.49,14.03-21.23,7.09-5.74,7.2-13.27,8.83-16.55,1.63-3.28,4.99-3.06,4.59-4.21-.4-1.14-4.16-.76-7.21,3.32-3.05,4.08-1.25,7.92-9.83,15-8.57,7.08-6.52,13.14-14.76,19.28m4.35,4.39h0Z"/>
      <path id="path4052" class="cls-5" d="m383.08,214.02c6.63-7.22,5.59-14.35,12.88-19.96-7.01,3.46-6.51,11.39-14.21,18.47m1.34,1.49h0Z"/>
      <path id="path4054" class="cls-7" d="m368.98,232.67l-69.63-25.69s-1.34-.56-1.71.34c-.37.9.97,1.45.97,1.45l67.4,31.07m2.97-7.16h0Z"/>
      <path id="path4056" class="cls-5" d="m368.24,234.46l-47.76-17.68,46.28,21.27m1.48-3.58h0Z"/>
      <path id="path4058" class="cls-7" d="m348.03,220.48c-6.88-7.57-15.49-6.94-21.23-14.03-5.74-7.09-13.27-7.2-16.55-8.83-3.28-1.63-3.06-4.99-4.21-4.59-1.14.4-.76,4.16,3.32,7.21,4.08,3.05,7.92,1.25,15,9.83,7.08,8.57,13.14,6.52,19.28,14.76m4.39-4.35h0Z"/>
      <path id="path4060" class="cls-5" d="m345.27,220.67c-7.22-6.63-14.35-5.59-19.96-12.88,3.46,7.01,11.39,6.51,18.47,14.21m1.49-1.34h0Z"/>
      <path id="path4062" class="cls-7" d="m366.02,239.83l69.63,25.69s1.34.56,1.71-.34c.37-.9-.97-1.45-.97-1.45l-67.4-31.07m-2.97,7.16h0Z"/>
      <path id="path4064" class="cls-5" d="m366.76,238.04l47.76,17.68-46.28-21.27m-1.48,3.58h0Z"/>
      <path id="path4066" class="cls-7" d="m386.97,252.02c6.88,7.57,15.49,6.94,21.23,14.03,5.74,7.09,13.27,7.2,16.55,8.83,3.28,1.63,3.06,4.99,4.21,4.59s.76-4.16-3.32-7.21c-4.08-3.05-7.92-1.25-15-9.83-7.08-8.57-13.14-6.52-19.28-14.76m-4.39,4.35h0Z"/>
      <path id="path4068" class="cls-5" d="m389.73,251.83c7.22,6.63,14.35,5.59,19.96,12.88-3.46-7.01-11.39-6.51-18.47-14.21m-1.49,1.34h0Z"/>
      <path id="path4070" class="cls-7" d="m366.02,232.67l-67.4,31.07s-1.34.56-.97,1.45c.37.9,1.71.34,1.71.34l69.63-25.69m-2.97-7.16h0Z"/>
      <path id="path4072" class="cls-5" d="m366.76,234.46l-46.28,21.27,47.76-17.68m-1.48-3.58h0Z"/>
      <path id="path4074" class="cls-7" d="m342.58,238.87c-10.22-.48-15.86,6.05-24.93,5.09-9.07-.95-14.47,4.29-17.95,5.46-3.48,1.17-5.7-1.36-6.22-.27-.53,1.09,2.41,3.48,7.45,2.75,5.04-.73,6.49-4.72,17.56-3.66,11.07,1.06,13.9-4.68,24.07-3.2m.03-6.18h0Z"/>
      <path id="path4076" class="cls-5" d="m340.76,240.95c-9.79.42-14.1,6.2-23.22,5.01,7.4,2.51,12.66-3.45,23.12-3.01m.11-2h0Z"/>
      <path id="path4078" class="cls-7" d="m368.98,239.83l67.4-31.07s1.34-.56.97-1.45c-.37-.9-1.71-.34-1.71-.34l-69.63,25.69m2.97,7.16h0Z"/>
      <path id="path4080" class="cls-5" d="m368.24,238.04l46.28-21.27-47.76,17.68m1.48,3.58h0Z"/>
      <path id="path4082" class="cls-7" d="m392.42,233.63c10.22.48,15.86-6.05,24.93-5.09,9.07.95,14.47-4.29,17.95-5.46,3.48-1.17,5.7,1.36,6.22.27s-2.41-3.48-7.45-2.75c-5.04.73-6.49,4.72-17.56,3.66-11.07-1.06-13.9,4.68-24.07,3.2m-.03,6.18h0Z"/>
      <path id="path4084" class="cls-5" d="m394.24,231.55c9.79-.42,14.1-6.2,23.22-5.01-7.4-2.51-12.66,3.45-23.12,3.01m-.11,2h0Z"/>
      <path id="path4086" class="cls-7" d="m371.08,234.77l-31.07-67.4s-.56-1.34-1.45-.97c-.9.37-.34,1.71-.34,1.71l25.69,69.63m7.16-2.97h0Z"/>
      <path id="path4088" class="cls-5" d="m369.29,235.51l-21.27-46.28,17.68,47.76m3.58-1.48h0Z"/>
      <path id="path4090" class="cls-7" d="m364.88,211.33c.48-10.22-6.05-15.86-5.09-24.93.95-9.07-4.29-14.47-5.46-17.95-1.17-3.48,1.36-5.7.27-6.22s-3.48,2.41-2.75,7.45c.73,5.04,4.72,6.49,3.66,17.56-1.06,11.07,4.68,13.9,3.2,24.07m6.18.03h0Z"/>
      <path id="path4092" class="cls-5" d="m362.8,209.51c-.42-9.79-6.2-14.1-5.01-23.22-2.51,7.4,3.45,12.66,3.01,23.12m2,.11h0Z"/>
      <path id="path4094" class="cls-7" d="m363.92,237.73l31.07,67.4s.56,1.34,1.45.97c.9-.37.34-1.71.34-1.71l-25.69-69.63m-7.16,2.97h0Z"/>
      <path id="path4096" class="cls-5" d="m365.71,236.99l21.27,46.28-17.68-47.76m-3.58,1.48h0Z"/>
      <path id="path4098" class="cls-7" d="m370.12,261.17c-.48,10.22,6.05,15.86,5.09,24.93-.95,9.07,4.29,14.47,5.46,17.95,1.17,3.48-1.36,5.7-.27,6.22,1.09.53,3.48-2.41,2.75-7.45-.73-5.04-4.72-6.49-3.66-17.56s-4.68-13.9-3.2-24.07m-6.18-.03h0Z"/>
      <path id="path4100" class="cls-5" d="m372.2,262.99c.42,9.79,6.2,14.1,5.01,23.22,2.51-7.4-3.45-12.66-3.01-23.12m-2-.11h0Z"/>
      <circle id="circle29" class="cls-6" cx="367.5" cy="236.25" r="29.08" transform="translate(75.43 561.16) rotate(-80.78)"/>
      <g id="face_right" data-name="face right">
        <path id="path32" class="cls-5" d="m387.37,229.46c-5.57-4.85-12.6-5.57-16.48-1.94-2.81,3.76-2.56,8.19.73,12.84-.24,0-.73.24-.97.48-2.44-4.65-2.86-9.45-1.21-13.81,5.33-4.36,12.6-4.85,17.93,2.42Z"/>
        <path id="path34" class="cls-5" d="m378.65,228.01c-3.15,0-3.88.73-5.33,1.94s-2.18.97-2.42,1.21c-.24.24,0,.97.48.73.48-.24,1.45-.73,2.91-1.94,1.45-1.21,2.91-1.21,4.36-1.21,4.36,0,6.79,3.64,7.27,3.39.48-.24-2.42-4.12-7.27-4.12Z"/>
        <path id="path36" class="cls-5" d="m384.22,232.13c-3.15-3.39-8.97-3.64-11.39.24h.97c2.42-3.88,8.24-2.18,8.72-.48v.48m1.7-.24h0Z"/>
        <circle id="circle38" class="cls-4" cx="378.16" cy="231.89" r="2.18"/>
        <path id="path40" class="cls-5" d="m372.83,232.37c2.42,2.18,7.76,2.42,11.39-.24l-1.7-.24c-2.42,2.67-6.3,2.42-8.72.48v-.48m-.97.48h0Z"/>
        <path id="path42" class="cls-5" d="m384.46,233.34c-4.12,3.15-8.24,2.91-10.66,1.45-2.42-1.45-2.42-1.94-1.94-1.94s.97.48,2.91,1.45c1.94.97,4.85.97,9.69-.97Z"/>
        <path id="path44" class="cls-5" d="m372.59,240.61c.69.24,1.09.96.94,1.67-.15.71-.81,1.2-1.53,1.15s-1.3-.64-1.34-1.37c-.24.48-1.21,1.94-3.15,1.94h-.48l.48.73c.48,0,1.94,0,2.91-.73.56.81,1.6,1.14,2.53.8.93-.33,1.52-1.25,1.43-2.23-.08-.98-.81-1.79-1.78-1.97h0Z"/>
        <path id="path46" class="cls-5" d="m375.5,250.79c-2.18-1.45-3.15-3.64-5.57-3.64-.48,0-1.45.24-2.42.73h-.48l.48.73c.97,0,2.42-1.21,4.12-.24,1.7.97,2.67,1.94,3.88,2.42h0Z"/>
        <path id="path48" class="cls-5" d="m374.77,250.79c-4.85-1.45-5.82-.48-7.27-.48h-.48l.48.97c1.94,0,2.91-1.45,7.27-.48h0Z"/>
        <path id="path50" class="cls-5" d="m375.5,250.79c-5.33-.48-3.64,2.67-8,2.67h-.48l.48.73c5.33,0,2.91-2.91,8-3.39Z"/>
        <path id="path52" class="cls-5" d="m371.86,258.55c0-2.41-1.95-4.36-4.36-4.36s-4.36,1.95-4.36,4.36c.48-2.02,2.28-3.45,4.36-3.45s3.88,1.43,4.36,3.45Z"/>
      </g>
      <g id="_65567520" data-name=" 65567520">
        <g id="g4116">
          <path id="_65617472" data-name=" 65617472" class="cls-5" d="m347.63,229.46c5.57-4.85,12.6-5.57,16.48-1.94,2.81,3.76,2.56,8.19-.73,12.84.24,0,.73.24.97.48,2.44-4.65,2.86-9.45,1.21-13.81-5.33-4.36-12.6-4.85-17.93,2.42h0Z"/>
          <path id="_65617400" data-name=" 65617400" class="cls-5" d="m356.35,228.01c3.15,0,3.88.73,5.33,1.94s2.18.97,2.42,1.21c.24.24,0,.97-.48.73-.48-.24-1.45-.73-2.91-1.94-1.45-1.21-2.91-1.21-4.36-1.21-4.36,0-6.79,3.64-7.27,3.39-.48-.24,2.42-4.12,7.27-4.12Z"/>
          <path id="_65617328" data-name=" 65617328" class="cls-5" d="m350.78,232.13c3.15-3.39,8.97-3.64,11.39.24h-.97c-2.42-3.88-8.24-2.18-8.72-.48v.48m-1.7-.24h0Z"/>
          <circle id="_65617256" data-name=" 65617256" class="cls-4" cx="356.84" cy="231.89" r="2.18"/>
          <path id="_65617184" data-name=" 65617184" class="cls-5" d="m362.17,232.37c-2.42,2.18-7.76,2.42-11.39-.24l1.7-.24c2.42,2.67,6.3,2.42,8.72.48v-.48m.97.48h0Z"/>
          <path id="_65617112" data-name=" 65617112" class="cls-5" d="m350.54,233.34c4.12,3.15,8.24,2.91,10.66,1.45,2.42-1.45,2.42-1.94,1.94-1.94s-.97.48-2.91,1.45c-1.94.97-4.85.97-9.69-.97h0Z"/>
          <path id="_65617040" data-name=" 65617040" class="cls-5" d="m362.41,240.61c-.69.24-1.09.96-.94,1.67s.81,1.2,1.53,1.15,1.3-.64,1.34-1.37c.24.48,1.21,1.94,3.15,1.94h.48l-.48.73c-.48,0-1.94,0-2.91-.73-.56.81-1.6,1.14-2.53.8-.93-.33-1.52-1.25-1.43-2.23.08-.98.81-1.79,1.78-1.97h0Z"/>
          <path id="_65567784" data-name=" 65567784" class="cls-5" d="m359.5,250.79c2.18-1.45,3.15-3.64,5.57-3.64.48,0,1.45.24,2.42.73h.48l-.48.73c-.97,0-2.42-1.21-4.12-.24-1.7.97-2.67,1.94-3.88,2.42h0Z"/>
          <path id="_65567712" data-name=" 65567712" class="cls-5" d="m360.23,250.79c4.85-1.45,5.82-.48,7.27-.48h.48l-.48.97c-1.94,0-2.91-1.45-7.27-.48h0Z"/>
          <path id="_65567640" data-name=" 65567640" class="cls-5" d="m359.5,250.79c5.33-.48,3.64,2.67,8,2.67h.48l-.48.73c-5.33,0-2.91-2.91-8-3.39h0Z"/>
          <path id="_65567568" data-name=" 65567568" class="cls-5" d="m363.14,258.55c0-2.41,1.95-4.36,4.36-4.36s4.36,1.95,4.36,4.36c-.48-2.02-2.28-3.45-4.36-3.45s-3.88,1.43-4.36,3.45Z"/>
        </g>
      </g>
    </g>
    <g>
      <path id="path18218_12" data-name="path18218 12" class="cls-5" d="m88.77,405.95c-12.38-2-25.27-2.91-39.71.21-57.55,24.61,107.6,21.06,39.71-.21Z"/>
      <g>
        <path class="cls-2" d="m71.7,404.09c-.03,19.8-.05,35.78-.05,46.51h2.31c1.1,0,2-.96,2-2.14l.03-23.3v-20.98s-.04-.04-.04-.04c-1.26,0-2.52-.04-3.8-.04h-.44s0,0,0,0Z"/>
        <path class="cls-1" d="m71.7,404.09c-1.45.03-2.9.13-4.35.29l-.03,20.64v23.46c0,1.18.89,2.12,1.99,2.12h2.33c.01-10.74.03-26.7.05-46.51h0Z"/>
      </g>
      <path id="path14425_13" data-name="path14425 13" class="cls-8" d="m42.9,359.56c.68,1.55-.31,3.37,2.53,4.57,4.85.95,5.92-.15,8.69-1.17-1.17,1.88-3.9,7.36-6.7,13.03-3.71,6.06-4.3,10.93-1.64,9.7,19.02,4.88,38.13,1.42,57.2,2.14-6.58-27.4-17.18-63.06-45.69-46.85-6.15,4.21-12.84,7.64-14.38,18.58h0Z"/>
      <path id="path7227_14" data-name="path7227 14" class="cls-9" d="m45.02,363.91c2.42,1.34,5.95,1.45,8.88-.5,6.07-7.37,12.49-10.25,17.89-11.04-4.88-.8-10.44-3.49-17.45,6.86-3.09.48-6.2,2.06-9.32,4.68Z"/>
      <path id="path7229_15" data-name="path7229 15" class="cls-5" d="m54.53,375.57c-8.82,5.54,10.57-3.85,27.62-1.48-4.39-4.9-9.1-9.12-27.62,1.48Z"/>
      <path id="path7231_16" data-name="path7231 16" class="cls-8" d="m44.12,359.09l.33,4.4c-.64,8.49-7.51,12.44-12.07,8.61-4.04-7.47,6.46-12.44,11.74-13.01Z"/>
      <path id="path13382_17" data-name="path13382 17" class="cls-10" d="m36.78,416.21l-.83-23.38c1.78-4.78,5.37-6.6,9.53-7.48,16.87-3.31,34.91-2.72,53.72.47,4.08,1.16,7.52,2.98,8.74,7.1-1.24,6.25,1.51,20.08-3.32,24.55-.06-.29.17-1.06.04-1.41-19.54-14.5-56.88-10.18-67.88.16h0Z"/>
    </g>
    <g>
      <path id="path18218_12-2" data-name="path18218 12" class="cls-5" d="m88.77,90.95c-12.38-2-25.27-2.91-39.71.21-57.55,24.61,107.6,21.06,39.71-.21Z"/>
      <g>
        <path class="cls-2" d="m71.7,89.09c-.03,19.8-.05,35.78-.05,46.51h2.31c1.1,0,2-.96,2-2.14l.03-23.3v-20.98s-.04-.04-.04-.04c-1.26,0-2.52-.04-3.8-.04h-.44s0,0,0,0Z"/>
        <path class="cls-1" d="m71.7,89.09c-1.45.03-2.9.13-4.35.29l-.03,20.64v23.46c0,1.18.89,2.12,1.99,2.12h2.33c.01-10.74.03-26.7.05-46.51h0Z"/>
      </g>
      <path id="path14425_13-2" data-name="path14425 13" class="cls-8" d="m42.9,44.56c.68,1.55-.31,3.37,2.53,4.57,4.85.95,5.92-.15,8.69-1.17-1.17,1.88-3.9,7.36-6.7,13.03-3.71,6.06-4.3,10.93-1.64,9.7,19.02,4.88,38.13,1.42,57.2,2.14-6.58-27.4-17.18-63.06-45.69-46.85-6.15,4.21-12.84,7.64-14.38,18.58h0Z"/>
      <path id="path7227_14-2" data-name="path7227 14" class="cls-9" d="m45.02,48.91c2.42,1.34,5.95,1.45,8.88-.5,6.07-7.37,12.49-10.25,17.89-11.04-4.88-.8-10.44-3.49-17.45,6.86-3.09.48-6.2,2.06-9.32,4.68Z"/>
      <path id="path7229_15-2" data-name="path7229 15" class="cls-5" d="m54.53,60.57c-8.82,5.54,10.57-3.85,27.62-1.48-4.39-4.9-9.1-9.12-27.62,1.48Z"/>
      <path id="path7231_16-2" data-name="path7231 16" class="cls-8" d="m44.12,44.09l.33,4.4c-.64,8.49-7.51,12.44-12.07,8.61-4.04-7.47,6.46-12.44,11.74-13.01Z"/>
      <path id="path13382_17-2" data-name="path13382 17" class="cls-10" d="m36.78,101.21l-.83-23.38c1.78-4.78,5.37-6.6,9.53-7.48,16.87-3.31,34.91-2.72,53.72.47,4.08,1.16,7.52,2.98,8.74,7.1-1.24,6.25,1.51,20.08-3.32,24.55-.06-.29.17-1.06.04-1.41-19.54-14.5-56.88-10.18-67.88.16h0Z"/>
    </g>
    <g>
      <path id="path18218_12-3" data-name="path18218 12" class="cls-5" d="m684.36,405.95c-12.38-2-25.27-2.91-39.71.21-57.55,24.61,107.6,21.06,39.71-.21Z"/>
      <g>
        <path class="cls-2" d="m667.29,404.09c-.03,19.8-.05,35.78-.05,46.51h2.31c1.1,0,2-.96,2-2.14l.03-23.3v-20.98s-.04-.04-.04-.04c-1.26,0-2.52-.04-3.8-.04h-.44s0,0,0,0Z"/>
        <path class="cls-1" d="m667.29,404.09c-1.45.03-2.9.13-4.35.29l-.03,20.64v23.46c0,1.18.89,2.12,1.99,2.12h2.33c.01-10.74.03-26.7.05-46.51h0Z"/>
      </g>
      <path id="path14425_13-3" data-name="path14425 13" class="cls-8" d="m638.49,359.56c.68,1.55-.31,3.37,2.53,4.57,4.85.95,5.92-.15,8.69-1.17-1.17,1.88-3.9,7.36-6.7,13.03-3.71,6.06-4.3,10.93-1.64,9.7,19.02,4.88,38.13,1.42,57.2,2.14-6.58-27.4-17.18-63.06-45.69-46.85-6.15,4.21-12.84,7.64-14.38,18.58h0Z"/>
      <path id="path7227_14-3" data-name="path7227 14" class="cls-9" d="m640.61,363.91c2.42,1.34,5.95,1.45,8.88-.5,6.07-7.37,12.49-10.25,17.89-11.04-4.88-.8-10.44-3.49-17.45,6.86-3.09.48-6.2,2.06-9.32,4.68Z"/>
      <path id="path7229_15-3" data-name="path7229 15" class="cls-5" d="m650.12,375.57c-8.82,5.54,10.57-3.85,27.62-1.48-4.39-4.9-9.1-9.12-27.62,1.48Z"/>
      <path id="path7231_16-3" data-name="path7231 16" class="cls-8" d="m639.71,359.09l.33,4.4c-.64,8.49-7.51,12.44-12.07,8.61-4.04-7.47,6.46-12.44,11.74-13.01Z"/>
      <path id="path13382_17-3" data-name="path13382 17" class="cls-10" d="m632.37,416.21l-.83-23.38c1.78-4.78,5.37-6.6,9.53-7.48,16.87-3.31,34.91-2.72,53.72.47,4.08,1.16,7.52,2.98,8.74,7.1-1.24,6.25,1.51,20.08-3.32,24.55-.06-.29.17-1.06.04-1.41-19.54-14.5-56.88-10.18-67.88.16h0Z"/>
    </g>
    <g>
      <path id="path18218_12-4" data-name="path18218 12" class="cls-5" d="m684.36,90.95c-12.38-2-25.27-2.91-39.71.21-57.55,24.61,107.6,21.06,39.71-.21Z"/>
      <g>
        <path class="cls-2" d="m667.29,89.09c-.03,19.8-.05,35.78-.05,46.51h2.31c1.1,0,2-.96,2-2.14l.03-23.3v-20.98s-.04-.04-.04-.04c-1.26,0-2.52-.04-3.8-.04h-.44s0,0,0,0Z"/>
        <path class="cls-1" d="m667.29,89.09c-1.45.03-2.9.13-4.35.29l-.03,20.64v23.46c0,1.18.89,2.12,1.99,2.12h2.33c.01-10.74.03-26.7.05-46.51h0Z"/>
      </g>
      <path id="path14425_13-4" data-name="path14425 13" class="cls-8" d="m638.49,44.56c.68,1.55-.31,3.37,2.53,4.57,4.85.95,5.92-.15,8.69-1.17-1.17,1.88-3.9,7.36-6.7,13.03-3.71,6.06-4.3,10.93-1.64,9.7,19.02,4.88,38.13,1.42,57.2,2.14-6.58-27.4-17.18-63.06-45.69-46.85-6.15,4.21-12.84,7.64-14.38,18.58h0Z"/>
      <path id="path7227_14-4" data-name="path7227 14" class="cls-9" d="m640.61,48.91c2.42,1.34,5.95,1.45,8.88-.5,6.07-7.37,12.49-10.25,17.89-11.04-4.88-.8-10.44-3.49-17.45,6.86-3.09.48-6.2,2.06-9.32,4.68Z"/>
      <path id="path7229_15-4" data-name="path7229 15" class="cls-5" d="m650.12,60.57c-8.82,5.54,10.57-3.85,27.62-1.48-4.39-4.9-9.1-9.12-27.62,1.48Z"/>
      <path id="path7231_16-4" data-name="path7231 16" class="cls-8" d="m639.71,44.09l.33,4.4c-.64,8.49-7.51,12.44-12.07,8.61-4.04-7.47,6.46-12.44,11.74-13.01Z"/>
      <path id="path13382_17-4" data-name="path13382 17" class="cls-10" d="m632.37,101.21l-.83-23.38c1.78-4.78,5.37-6.6,9.53-7.48,16.87-3.31,34.91-2.72,53.72.47,4.08,1.16,7.52,2.98,8.74,7.1-1.24,6.25,1.51,20.08-3.32,24.55-.06-.29.17-1.06.04-1.41-19.54-14.5-56.88-10.18-67.88.16h0Z"/>
    </g>
  </g>
</svg>