<?xml version="1.0" encoding="UTF-8" standalone="no"?>
<!-- Created with Inkscape (http://www.inkscape.org/) -->

<svg
   width="488.33334"
   height="293"
   viewBox="0 0 129.20486 77.522919"
   version="1.1"
   id="svg419"
   xmlns="http://www.w3.org/2000/svg"
   xmlns:svg="http://www.w3.org/2000/svg">
  <defs
     id="defs416" />
  <g
     id="layer1"
     style="display:inline">
    <rect
       style="opacity:1;fill:#da251d;fill-opacity:1;stroke:none;stroke-width:2.54404;stroke-linecap:round;stroke-opacity:0"
       id="rect38939"
       width="129.20486"
       height="38.761452"
       x="0"
       y="0" />
    <rect
       style="opacity:1;fill:#00923f;fill-opacity:1;stroke:none;stroke-width:2.54404;stroke-linecap:round;stroke-opacity:0"
       id="rect38939-5"
       width="129.20486"
       height="38.761452"
       x="0"
       y="38.761467" />
    <rect
       style="fill:#3917ba;fill-opacity:1;stroke-width:1.20343;stroke-linecap:round;stroke-opacity:0"
       id="rect874"
       width="129.20486"
       height="0.25251758"
       x="0"
       y="38.761452" />
    <ellipse
       style="opacity:1;fill:#f8c300;fill-opacity:1;stroke:none;stroke-width:1.40978;stroke-linecap:round;stroke-opacity:0"
       id="path34423"
       cx="65.634399"
       cy="38.582996"
       rx="34.155479"
       ry="34.690552" />
    <path
       style="opacity:1;fill:#0a0b0c;fill-opacity:1;stroke:none;stroke-width:0.252435px;stroke-linecap:butt;stroke-linejoin:miter;stroke-opacity:1"
       d="m 66.895418,45.613291 c 0,0 -0.557173,0.383304 -0.940228,1.080222 -0.383057,0.696918 -4.561842,9.96593 -5.571717,12.091529 -1.009873,2.1256 -2.056683,4.329347 -2.996909,4.22481 -0.940227,-0.104537 -0.241649,-1.92498 0.489637,-3.632429 0.731288,-1.70745 2.460137,-4.995285 2.460137,-4.995285 0,0 -0.383054,0.17423 -0.626818,-0.06969 -0.243763,-0.243922 -0.09005,-1.062288 -0.09005,-1.062288 0,0 -2.101343,3.938976 -3.290283,5.531383 -0.533826,0.71498 -0.995086,-0.205576 -0.995086,-0.205576 0,0 -0.55717,1.637759 -1.636692,2.264984 -1.079519,0.627226 -1.601868,0.592382 -1.601868,0.592382 0,0 0.522349,-2.717981 3.551968,-7.387332 3.029622,-4.66935 5.989596,-8.85086 5.989596,-8.85086 0,0 -0.60078,-0.13631 -0.636548,-0.727608 -0.04924,-0.814136 0.246439,-1.489889 0.246439,-1.489889 0,0 -0.557022,0.225632 -0.989475,0.69867 0,0 -0.206232,-1.156421 -0.241309,-2.838323 -0.02306,-1.105677 0.05384,-1.706038 0.05384,-1.706038 0,0 -0.724952,-0.309385 -1.247299,-0.866921 -0.522349,-0.557534 -0.633156,-1.154141 -0.633156,-1.154141 l -8.601334,-6.934335 c 0,0 -0.452704,0.06969 -1.253639,-0.766608 -0.800933,-0.836303 -1.53222,-1.707452 -1.53222,-1.707452 0,0 -0.522349,0.243922 -0.97505,-0.209074 -0.4527,-0.452997 -0.4527,-1.010533 -0.4527,-1.010533 0,0 -1.009875,-0.174229 -1.671515,-0.662071 -0.661642,-0.487843 -0.940228,-1.568066 -0.940228,-1.568066 0,0 -0.452701,-0.06969 -0.696464,-0.278767 -0.243763,-0.209075 -0.383055,-1.080223 -0.383055,-1.080223 0,0 -8.446171,-3.812275 -15.306347,-4.78796 C 19.51687,17.130117 9.9492321,17.632031 9.9492321,17.632031 c 0,0 0.2866729,-0.410059 0.9134919,-0.653981 0.626817,-0.243921 1.077045,-0.270311 1.077045,-0.270311 l -3.1048731,-0.34671 c 0,0 9.4824791,-3.955886 21.0786131,-4.130115 11.596134,-0.17423 15.363618,0.247786 15.363618,0.247786 0,0 6.547917,0.217167 7.662259,1.785233 1.114343,1.568066 3.756321,7.150778 3.756321,7.150778 0,0 1.381705,2.853861 3.931525,4.397649 2.67848,1.621687 4.490084,2.043952 6.266069,1.451574 1.775983,-0.592381 2.657127,-3.017163 2.657127,-3.017163 0,0 0.823807,-2.121735 2.808732,-3.062574 1.984922,-0.94084 3.654958,-0.475195 4.550917,-0.157685 1.069685,0.379078 2.288232,2.124602 2.51361,3.507117 0.213164,1.307598 0.286672,2.367408 0.286672,2.367408 0,0 4.109141,0.94084 5.536893,2.230136 1.427754,1.2893 2.263511,2.508907 2.263511,2.508907 0,0 -3.969848,-1.498374 -7.312877,-2.055908 -3.34303,-0.557536 -7.103939,-0.696918 -7.103939,-0.696918 l -1.755948,3.238554 c 0,0 8.894709,2.267097 13.700315,0.873261 4.805605,-1.393834 7.069116,-2.1256 7.069116,-2.1256 0,0 2.655033,-0.982514 5.726826,0.543102 2.945164,1.462723 7.194984,4.177333 10.940454,8.8973 3.6736,4.629391 5.5702,6.006522 9.27603,10.87476 3.62114,4.756993 4.02054,7.919888 4.1844,8.620285 -0.0187,0.43669 0.0494,0.94947 -0.21456,1.171416 l -1.39292,-2.752828 c 0,0 0.3542,1.600799 0.3542,2.402255 0,0.801455 -1.2605,-2.746641 -11.74563,-9.451696 -9.576151,-6.123785 -13.370005,-6.972683 -13.370005,-6.972683 0,0 -0.729176,0.397375 -1.251524,0.327685 -0.522349,-0.06969 -1.253636,-0.836302 -1.253636,-0.836302 0,0 -0.06964,0.662073 -0.97505,0.557533 C 91.48061,44.149759 91.376141,43.8013 91.376141,43.8013 c 0,0 -0.487524,0.418151 -0.835757,0.418151 -0.348232,0 -1.009875,-0.522688 -1.009875,-0.522688 0,0 -0.66164,0.487843 -1.114341,0.487843 -0.452704,0 -0.661642,-0.313614 -0.661642,-0.313614 0,0 -0.313411,0.383304 -0.661643,0.348459 -0.34823,-0.03484 -0.905404,-0.487841 -0.905404,-0.487841 0,0 -0.278584,0.17423 -0.835755,0.17423 -0.557174,0 -1.253638,-0.313615 -1.253638,-0.313615 0,0 -0.591994,0.557534 -1.253636,0.487842 -0.66164,-0.06969 -1.149166,-0.348457 -1.149166,-0.348457 0,0 -0.243763,0.278767 -0.800934,0.278767 -0.557171,0 -1.775983,-0.662074 -1.775983,-0.662074 0,0 -0.97505,0.34846 -2.089395,0.278767 -1.114344,-0.06969 -2.019747,-0.383304 -2.019747,-0.383304 0,0 -0.97505,0.452997 -2.193864,0.418152 -1.218812,-0.03484 -2.228685,-0.278767 -2.228685,-0.278767 0,0 -1.149169,1.358989 -2.019747,2.055907 -0.87058,0.696918 -1.833683,1.469868 -1.833683,1.469868 z"
       id="path752" />
    <path
       style="opacity:1;fill:#da251d;fill-opacity:1;stroke:none;stroke-width:2.54;stroke-linecap:round;stroke-opacity:0"
       id="path16720"
       d="m 80.974692,29.447001 a 5.5837474,5.4155068 0 0 1 -5.971151,4.529542 5.5837474,5.4155068 0 0 1 -5.12418,-5.418156" />
    <path
       style="opacity:1;fill:#0a0b0c;fill-opacity:1;stroke:none;stroke-width:0.252435px;stroke-linecap:butt;stroke-linejoin:miter;stroke-opacity:1"
       d="m 71.417216,32.313631 1.676735,-3.426377 c 0,0 6.020785,0.226035 9.635656,1.247191 l 0.08003,-0.936312 -13.107705,-0.983998 0.204867,3.842212 z"
       id="path21048" />
    <ellipse
       style="opacity:1;fill:#ffffff;fill-opacity:1;stroke:none;stroke-width:2.5311;stroke-linecap:round;stroke-opacity:0"
       id="path28912"
       cx="-77.291458"
       cy="25.712051"
       transform="scale(-1,1)"
       rx="1.0346483"
       ry="1.0353222" />
    <ellipse
       style="opacity:1;fill:#0a0b0c;fill-opacity:1;stroke:none;stroke-width:2.18807;stroke-linecap:round;stroke-opacity:0"
       id="path32959"
       cx="77.621399"
       cy="25.980234"
       rx="0.46685353"
       ry="0.46715754" />
  </g>
</svg>
