<svg id="svg" version="1.1" xmlns="http://www.w3.org/2000/svg" xmlns:xlink="http://www.w3.org/1999/xlink" width="400" height="266.5" viewBox="0, 0, 400,266.5"><g id="svgg"><path id="path0" d="M0.000 133.333 L 0.000 266.667 200.000 266.667 L 400.000 266.667 400.000 133.333 L 400.000 0.000 200.000 0.000 L 0.000 0.000 0.000 133.333 M198.400 35.934 C 199.640 36.553,199.603 36.998,197.900 42.000 C 196.634 45.720,195.805 48.401,195.222 50.667 C 195.090 51.180,194.247 54.120,193.348 57.200 C 190.744 66.125,190.495 67.804,191.542 69.357 C 192.820 71.254,194.876 70.915,197.450 68.382 C 199.383 66.479,200.504 66.534,202.137 68.611 C 203.919 70.877,207.634 69.858,210.754 66.248 C 212.123 64.663,212.758 64.684,214.362 66.364 C 218.397 70.592,221.561 67.384,221.591 59.036 C 221.602 55.882,221.895 55.301,223.849 54.554 C 226.011 53.729,226.527 54.297,226.008 56.933 C 225.834 57.813,225.538 59.373,225.348 60.400 C 223.475 70.545,219.124 74.862,214.000 71.657 L 212.480 70.706 210.840 71.592 C 206.717 73.820,203.115 74.230,200.848 72.730 C 199.442 71.800,199.431 71.801,197.349 73.047 C 192.892 75.716,188.767 75.549,187.363 72.643 C 186.215 70.268,186.540 67.651,188.799 61.067 C 189.049 60.337,189.329 59.111,190.167 55.067 C 190.471 53.600,190.816 51.980,190.933 51.467 C 192.027 46.677,192.611 43.127,193.032 38.702 C 193.323 35.644,195.536 34.503,198.400 35.934 M154.851 36.170 C 154.943 36.411,154.812 37.461,154.560 38.504 C 154.140 40.244,153.220 44.639,152.155 50.000 C 151.922 51.173,151.378 53.720,150.946 55.658 C 150.513 57.597,149.910 60.657,149.604 62.458 C 149.298 64.260,148.913 66.468,148.748 67.366 C 147.754 72.791,153.758 73.620,155.203 68.257 C 155.915 65.610,159.495 66.616,159.033 69.333 C 158.175 74.371,151.896 78.210,146.566 76.956 C 144.543 76.480,144.483 76.362,144.650 73.200 C 144.880 68.852,145.200 66.619,146.235 62.133 C 146.633 60.411,147.720 51.319,148.259 45.200 C 149.013 36.647,149.456 35.733,152.844 35.733 C 154.302 35.733,154.718 35.824,154.851 36.170 M80.745 38.553 C 91.924 40.836,100.473 47.188,105.931 57.266 C 119.782 82.844,105.801 114.561,77.454 121.870 C 71.491 123.407,62.962 123.018,53.743 120.789 C 47.561 119.293,46.400 118.757,46.400 117.395 C 46.400 115.547,46.413 115.544,54.327 115.391 C 59.171 115.297,62.153 115.120,63.600 114.838 C 64.773 114.610,66.349 114.304,67.102 114.158 C 77.934 112.057,88.838 103.558,93.946 93.235 C 102.990 74.960,96.240 52.112,78.861 42.168 C 74.126 39.459,75.189 37.419,80.745 38.553 M337.333 40.512 C 337.333 41.087,337.026 43.097,336.651 44.978 C 336.276 46.860,335.605 50.320,335.161 52.667 C 334.716 55.013,334.243 57.413,334.109 58.000 C 333.975 58.587,333.733 59.757,333.571 60.600 C 333.045 63.337,331.628 63.970,328.336 62.938 C 323.860 61.535,322.901 59.848,324.963 57.002 C 326.125 55.398,332.713 45.460,334.994 41.871 C 336.680 39.216,337.333 38.837,337.333 40.512 M139.527 53.683 C 140.976 55.518,138.442 59.490,136.264 58.799 C 134.163 58.132,134.897 53.576,137.200 52.988 C 138.064 52.767,139.033 53.057,139.527 53.683 M177.786 58.922 C 180.636 60.660,179.214 66.571,174.191 73.867 C 170.321 79.486,161.909 86.078,161.146 84.089 C 161.032 83.793,161.214 83.460,161.692 83.089 C 163.494 81.691,165.500 79.442,168.072 75.935 C 172.381 70.061,172.607 69.464,173.595 61.333 C 173.729 60.233,173.844 59.312,173.852 59.286 C 174.140 58.332,176.466 58.117,177.786 58.922 M258.073 59.593 C 260.934 60.925,263.243 63.744,265.926 69.179 C 266.656 70.657,267.931 72.765,268.760 73.864 C 270.222 75.801,276.989 84.604,278.736 86.840 C 279.211 87.448,281.040 89.835,282.800 92.145 C 284.560 94.454,286.847 97.437,287.882 98.772 C 288.917 100.107,292.715 105.045,296.322 109.745 C 304.249 120.074,303.553 119.407,304.400 117.492 C 304.767 116.663,305.067 115.919,305.067 115.839 C 305.067 115.759,306.702 111.232,308.701 105.780 C 310.700 100.328,312.702 94.847,313.149 93.600 C 321.266 70.970,322.552 67.977,324.317 67.589 C 325.167 67.402,324.925 66.667,324.014 66.667 C 323.204 66.667,322.376 65.521,322.552 64.647 C 323.037 62.243,324.920 62.081,329.067 64.086 C 331.307 65.170,330.434 68.201,327.979 67.864 C 326.519 67.663,326.435 67.778,327.200 68.933 C 328.124 70.328,328.195 70.065,323.473 82.800 C 323.201 83.533,322.678 84.973,322.311 86.000 C 321.944 87.027,321.041 89.487,320.304 91.467 C 319.568 93.447,318.010 97.707,316.844 100.933 C 315.677 104.160,314.110 108.440,313.361 110.444 C 312.138 113.717,311.754 115.200,312.129 115.200 C 312.201 115.200,316.731 112.878,322.196 110.039 C 327.662 107.201,334.893 103.466,338.267 101.739 C 341.640 100.013,346.080 97.729,348.133 96.663 C 364.435 88.203,364.490 88.183,366.154 89.846 C 368.169 91.861,367.033 93.824,362.540 96.088 C 356.501 99.131,356.034 101.947,360.486 108.451 C 364.445 114.234,370.654 113.121,371.118 106.546 C 371.634 99.236,378.131 106.398,378.122 114.267 C 378.110 124.616,366.738 133.965,354.133 133.987 C 350.405 133.994,349.373 133.650,347.015 131.616 C 341.851 127.160,340.616 117.759,345.600 120.847 C 350.309 123.763,354.603 118.853,352.937 112.456 C 350.836 104.390,347.734 103.661,337.718 108.882 C 335.087 110.253,329.573 113.091,325.467 115.187 C 304.910 125.680,306.938 123.677,311.257 129.225 C 313.533 132.148,314.586 133.518,323.867 145.623 C 327.387 150.214,332.367 156.697,334.933 160.030 C 337.500 163.362,340.680 167.495,342.000 169.213 C 343.646 171.355,344.862 172.650,345.869 173.334 C 352.218 177.648,357.783 190.933,353.241 190.933 C 352.155 190.933,351.759 190.332,351.084 187.656 C 349.979 183.276,346.770 177.941,344.564 176.816 C 342.742 175.886,335.346 173.398,333.067 172.948 C 318.129 169.997,311.372 162.791,303.987 141.938 C 303.663 141.023,303.236 140.140,303.037 139.975 C 302.627 139.635,302.718 139.442,300.931 144.400 C 300.297 146.160,298.737 150.420,297.465 153.867 C 296.192 157.313,294.872 160.913,294.530 161.867 C 293.472 164.819,291.814 169.361,290.930 171.733 C 290.465 172.980,289.811 174.780,289.475 175.733 C 289.140 176.687,288.197 179.267,287.379 181.467 C 285.386 186.833,278.240 206.333,277.420 208.645 C 276.105 212.351,275.317 213.333,273.661 213.333 C 270.881 213.333,270.091 211.266,271.468 207.600 C 271.744 206.867,274.270 199.967,277.081 192.267 C 279.893 184.567,282.551 177.307,282.987 176.133 C 283.424 174.960,283.881 173.700,284.003 173.333 C 284.359 172.266,285.975 167.832,292.267 150.667 C 299.110 131.998,298.924 132.517,298.929 132.017 C 298.936 131.388,297.769 129.870,297.277 129.868 C 297.027 129.867,295.947 130.329,294.877 130.895 C 293.808 131.460,289.933 133.457,286.267 135.333 C 282.600 137.208,278.400 139.369,276.933 140.134 C 275.467 140.899,270.907 143.240,266.800 145.336 C 262.693 147.432,259.213 149.236,259.067 149.344 C 257.891 150.216,243.066 157.333,242.427 157.333 C 240.597 157.333,239.467 156.202,239.467 154.371 C 239.467 152.646,239.886 152.398,261.867 141.147 C 266.047 139.007,270.067 136.931,270.800 136.533 C 271.533 136.136,275.793 133.937,280.267 131.647 C 290.704 126.304,290.786 126.259,290.877 125.811 C 290.923 125.581,290.408 125.181,289.551 124.784 C 288.779 124.426,287.275 123.566,286.208 122.872 C 285.140 122.179,283.757 121.354,283.134 121.040 C 279.735 119.328,276.720 115.912,274.518 111.280 C 272.290 106.593,268.983 96.192,268.134 91.200 C 265.207 74.007,261.432 65.051,256.050 62.538 C 254.367 61.752,253.867 61.255,253.867 60.368 C 253.867 58.849,255.735 58.505,258.073 59.593 M139.407 62.815 C 140.092 63.295,140.229 65.247,139.695 66.914 C 136.693 76.295,132.309 81.523,124.133 85.472 C 116.736 89.046,114.947 88.722,120.719 84.854 C 126.716 80.836,130.912 77.054,132.667 74.084 C 133.523 72.636,133.756 71.926,134.968 67.067 C 135.943 63.159,137.614 61.559,139.407 62.815 M268.902 77.533 C 269.087 78.157,270.233 83.457,270.936 86.933 C 275.041 107.247,281.995 115.985,297.674 120.529 C 300.150 121.247,300.406 121.275,301.121 120.905 C 302.433 120.227,302.331 119.891,299.832 116.633 C 298.531 114.937,296.257 111.971,294.778 110.042 C 293.300 108.112,288.560 101.954,284.245 96.357 C 279.930 90.760,275.200 84.588,273.733 82.642 C 269.902 77.558,268.457 76.030,268.902 77.533 M221.280 81.920 C 221.807 82.447,221.647 84.396,220.786 87.962 C 220.338 89.816,219.802 92.053,219.595 92.933 C 218.352 98.226,217.395 112.813,218.159 114.828 C 218.745 116.374,219.489 116.340,221.467 114.676 C 222.347 113.936,223.448 113.153,223.915 112.936 C 224.382 112.719,224.839 112.420,224.931 112.271 C 225.347 111.597,226.562 112.025,227.948 113.334 C 230.700 115.931,232.143 115.819,235.264 112.762 C 237.018 111.045,237.449 111.078,239.178 113.067 C 242.102 116.428,245.067 113.601,245.067 107.454 C 245.067 102.805,245.623 101.237,247.390 100.905 C 249.436 100.521,250.133 101.824,250.133 106.029 C 250.133 114.822,245.207 120.081,238.767 118.163 C 236.450 117.473,235.880 117.462,234.974 118.093 C 232.519 119.801,227.358 119.666,224.777 117.826 C 224.443 117.588,223.991 117.700,222.643 118.356 C 217.533 120.844,213.954 120.362,213.067 117.067 C 212.406 114.615,214.324 91.982,215.642 86.667 C 216.209 84.383,217.158 82.261,217.773 81.903 C 218.444 81.513,220.884 81.524,221.280 81.920 M151.841 83.770 C 153.390 84.476,153.683 86.943,152.344 87.997 C 149.877 89.937,147.082 86.477,149.313 84.246 C 150.150 83.409,150.786 83.289,151.841 83.770 M173.746 86.839 C 174.579 87.738,174.477 89.540,173.086 98.533 C 172.949 99.413,172.708 100.973,172.548 102.000 C 172.388 103.027,172.146 104.767,172.008 105.867 C 171.370 110.978,168.776 120.787,167.530 122.800 C 166.795 123.989,165.669 120.637,165.980 118.182 C 166.067 117.495,166.260 113.693,166.409 109.733 C 167.024 93.388,167.175 92.072,168.822 88.621 C 170.029 86.092,172.294 85.272,173.746 86.839 M181.087 103.365 C 181.442 103.750,183.144 105.013,184.869 106.172 C 190.858 110.199,191.326 111.325,188.162 114.102 C 187.413 114.760,185.264 116.836,183.386 118.716 C 179.667 122.439,178.826 122.881,178.176 121.454 C 177.471 119.906,177.717 119.393,180.844 115.908 C 182.140 114.464,183.200 113.050,183.200 112.766 C 183.200 111.660,182.310 110.222,180.751 108.809 C 178.750 106.995,178.244 105.958,178.687 104.577 C 179.313 102.628,180.057 102.252,181.087 103.365 M204.410 109.454 C 208.610 111.209,203.163 121.614,195.333 126.793 C 190.970 129.679,185.231 131.593,184.158 130.520 C 183.411 129.773,184.166 129.048,186.562 128.208 C 193.151 125.897,198.531 119.700,200.527 112.120 C 201.310 109.149,202.207 108.533,204.410 109.454 M141.329 115.029 C 141.325 116.476,140.932 117.538,140.267 117.897 C 140.047 118.016,139.158 118.435,138.292 118.829 C 134.835 120.400,133.604 122.364,133.601 126.313 C 133.599 130.660,132.902 131.960,129.235 134.462 C 125.199 137.215,121.738 136.896,118.293 133.451 C 114.807 129.965,115.168 121.554,118.844 120.632 C 120.531 120.208,120.933 121.098,120.933 125.248 C 120.933 130.942,122.982 132.806,127.005 130.773 C 129.817 129.352,130.351 127.569,129.445 122.632 C 128.797 119.099,129.112 118.629,133.631 116.395 C 140.320 113.087,141.335 112.907,141.329 115.029 M160.002 115.735 C 161.205 116.378,160.523 118.783,157.849 123.324 C 155.374 127.527,152.364 130.287,146.480 133.751 C 145.043 134.597,142.607 136.032,141.067 136.941 C 134.343 140.907,130.819 142.455,129.861 141.863 C 129.182 141.443,129.841 140.630,132.269 138.893 C 133.663 137.895,136.603 135.512,138.802 133.597 C 141.001 131.683,144.365 128.934,146.279 127.488 C 151.495 123.548,152.816 121.906,154.155 117.700 C 154.988 115.083,154.962 115.103,157.397 115.290 C 158.538 115.378,159.710 115.578,160.002 115.735 M217.331 125.463 C 217.965 126.227,215.539 128.184,206.000 134.605 C 193.288 143.163,194.185 140.842,194.061 165.467 C 194.001 177.569,195.150 180.399,199.185 178.077 C 201.255 176.886,202.497 178.477,201.211 180.672 C 199.246 184.024,195.747 184.903,193.293 182.659 C 191.834 181.326,191.825 181.327,189.955 182.946 C 188.106 184.546,187.642 184.556,184.418 183.067 C 181.973 181.937,182.012 181.938,180.449 182.930 C 177.993 184.487,177.159 184.800,175.463 184.800 C 173.770 184.800,170.953 183.820,169.337 182.669 C 168.336 181.956,167.354 181.987,166.753 182.751 C 165.453 184.402,162.107 185.071,159.930 184.116 C 155.757 182.285,154.992 180.095,158.644 180.434 C 161.276 180.679,163.968 179.011,164.408 176.862 C 164.490 176.461,164.668 175.713,164.802 175.200 C 165.205 173.666,165.400 163.313,165.069 161.067 C 164.770 159.034,164.500 157.033,164.008 153.200 C 163.858 152.027,163.611 150.167,163.460 149.067 C 162.108 139.210,164.087 132.320,167.855 133.766 C 169.309 134.324,169.852 146.657,169.197 164.267 C 169.009 169.345,169.129 171.203,169.922 175.467 C 170.810 180.245,173.913 181.300,178.599 178.416 C 180.576 177.200,181.612 177.094,182.940 177.973 C 185.651 179.767,187.207 179.108,188.508 175.615 C 189.084 174.067,189.097 173.775,189.062 162.949 C 188.990 140.267,188.682 140.937,203.200 132.204 C 213.585 125.957,216.562 124.537,217.331 125.463 M306.991 127.933 C 306.840 128.337,306.649 128.878,306.566 129.135 C 306.299 129.965,309.454 139.924,311.305 144.100 C 311.687 144.961,312.000 145.781,312.000 145.921 C 312.000 146.535,316.125 154.661,317.439 156.636 C 321.195 162.281,327.796 166.896,335.942 169.570 C 342.014 171.564,341.984 171.591,338.600 167.162 C 337.243 165.386,335.899 163.619,335.614 163.233 C 335.328 162.848,333.101 159.953,330.665 156.800 C 328.230 153.647,324.451 148.727,322.267 145.867 C 306.737 125.525,307.539 126.466,306.991 127.933 M230.370 129.769 C 231.290 130.413,231.987 132.177,231.994 133.877 C 232.005 136.586,230.562 152.331,229.587 160.133 C 228.171 171.473,228.118 171.733,227.248 171.733 C 225.571 171.733,225.358 170.284,225.611 160.614 C 225.731 156.023,225.716 147.943,225.577 142.295 C 225.295 130.800,225.247 131.115,227.445 129.953 C 228.830 129.221,229.525 129.177,230.370 129.769 M105.081 130.141 C 106.458 130.878,106.510 131.661,105.510 136.620 C 102.877 149.680,102.002 172.266,103.899 178.188 C 105.220 182.309,109.075 181.658,109.725 177.204 C 110.152 174.266,112.431 172.058,113.591 173.456 C 114.915 175.051,113.020 182.458,110.868 184.100 C 106.236 187.633,100.734 184.598,99.209 177.670 C 98.599 174.896,98.580 147.430,99.186 143.254 C 99.934 138.099,100.976 132.948,101.462 132.009 C 102.269 130.448,103.993 129.559,105.081 130.141 M43.376 135.528 C 44.414 136.566,48.831 150.877,48.418 151.864 C 47.733 153.505,46.111 153.230,45.729 151.409 C 45.628 150.927,45.220 149.873,44.821 149.067 C 44.423 148.260,43.825 146.919,43.492 146.086 C 42.913 144.636,42.319 144.017,42.001 144.532 C 41.725 144.978,40.837 148.731,40.540 150.708 C 39.828 155.448,39.693 156.595,39.467 159.867 C 39.335 161.773,39.089 164.293,38.920 165.467 C 38.154 170.800,38.801 178.178,40.535 183.867 C 41.972 188.583,41.053 190.201,37.636 188.972 C 35.457 188.189,34.133 189.159,34.133 191.539 C 34.133 197.220,41.241 195.904,45.274 189.476 C 45.646 188.884,46.385 187.903,46.917 187.294 C 49.372 184.490,49.504 183.944,50.121 173.986 C 50.267 171.632,50.505 168.872,50.649 167.853 C 50.793 166.834,51.034 164.466,51.186 162.590 C 51.665 156.666,53.302 150.957,54.803 149.973 C 56.986 148.543,58.591 149.306,59.209 152.070 C 59.571 153.689,59.613 153.306,58.037 162.933 C 56.406 172.895,56.400 172.960,56.410 179.333 C 56.419 184.398,56.498 185.663,56.863 186.594 C 57.351 187.837,59.157 190.611,59.856 191.191 C 61.232 192.333,61.262 193.588,59.949 195.084 C 58.674 196.536,57.445 196.027,54.141 192.681 C 51.810 190.320,51.793 190.324,49.052 193.982 C 42.458 202.782,33.133 203.779,28.668 196.160 C 26.455 192.384,29.018 182.933,32.254 182.933 C 33.611 182.933,33.686 182.584,33.361 177.798 C 32.943 171.625,32.983 170.070,33.747 162.838 C 35.213 148.950,38.089 136.271,40.000 135.263 C 40.816 134.833,42.839 134.992,43.376 135.528 M209.263 140.941 C 210.158 141.567,210.206 142.619,209.615 148.667 C 208.991 155.059,208.833 169.514,209.360 172.054 C 210.082 175.533,212.970 176.595,213.971 173.751 C 214.207 173.081,214.592 171.987,214.828 171.318 C 216.151 167.561,221.395 167.261,222.983 170.850 C 224.006 173.164,222.865 177.214,220.795 178.613 C 219.837 179.260,219.531 179.273,216.388 178.788 C 215.475 178.647,215.100 178.751,213.951 179.465 C 208.771 182.685,205.565 178.852,204.518 168.185 C 204.195 164.896,204.463 145.148,204.851 143.610 C 205.424 141.340,207.790 139.909,209.263 140.941 M89.582 156.524 C 90.636 157.088,90.439 159.980,89.273 161.066 C 87.833 162.407,86.199 161.428,85.932 159.065 C 85.711 157.102,87.863 155.604,89.582 156.524 M96.067 157.438 C 96.684 157.907,96.700 159.907,96.092 160.579 C 95.573 161.152,94.068 161.231,93.634 160.708 C 92.245 159.034,94.383 156.160,96.067 157.438 M141.985 164.327 C 141.963 166.145,141.413 166.760,139.151 167.498 C 135.301 168.752,134.274 170.617,133.876 177.067 C 133.494 183.250,132.290 184.816,126.885 186.161 C 120.851 187.663,116.152 183.315,116.625 176.667 C 116.966 171.876,117.510 170.667,119.322 170.667 C 120.850 170.667,121.055 171.189,120.999 174.945 C 120.906 181.072,124.271 183.491,128.204 180.125 C 130.181 178.433,130.532 177.296,130.544 172.533 C 130.550 170.260,130.648 168.130,130.762 167.801 C 131.157 166.656,134.505 164.860,138.267 163.775 C 141.858 162.739,142.004 162.760,141.985 164.327 M200.395 163.727 C 200.924 164.312,200.832 165.853,200.224 166.585 C 198.788 168.315,196.444 166.679,197.322 164.560 C 197.865 163.249,199.549 162.793,200.395 163.727 M70.538 164.445 C 74.844 167.331,80.533 172.839,80.533 174.123 C 80.533 175.506,76.645 179.181,71.432 182.726 C 68.321 184.841,67.486 184.434,67.479 180.800 C 67.473 177.702,67.658 177.421,70.558 176.136 C 74.672 174.312,74.749 174.622,69.129 170.362 C 65.454 167.576,65.209 166.465,67.819 164.407 C 68.890 163.563,69.229 163.568,70.538 164.445 M152.575 167.400 C 158.123 173.014,158.022 172.603,155.227 178.267 C 150.284 188.284,148.000 190.423,148.000 185.034 C 148.000 183.170,148.074 182.946,150.041 178.866 C 152.417 173.935,152.435 174.295,149.664 171.136 C 146.922 168.011,146.740 167.202,148.323 165.189 C 149.146 164.143,149.579 164.368,152.575 167.400 M93.779 165.895 C 96.841 167.787,96.496 174.903,93.198 177.905 C 92.142 178.866,90.933 181.115,90.933 182.119 C 90.931 189.523,83.085 197.601,72.556 201.041 C 67.295 202.760,68.123 201.414,75.994 195.453 C 80.263 192.221,84.066 188.521,84.780 186.908 C 85.394 185.519,85.450 184.880,85.187 182.253 C 84.950 179.892,85.163 179.456,87.847 176.807 C 90.211 174.473,90.282 174.157,88.933 171.920 C 86.381 167.689,89.802 163.437,93.779 165.895 M217.994 172.638 C 216.641 174.703,217.898 177.089,219.456 175.416 C 220.072 174.756,220.209 172.849,219.680 172.320 C 219.170 171.810,218.447 171.947,217.994 172.638 M188.474 186.815 C 189.688 187.666,188.928 189.600,187.380 189.600 C 185.837 189.600,185.132 188.253,186.015 186.993 C 186.507 186.291,187.612 186.211,188.474 186.815 M178.657 187.982 C 179.727 189.981,177.421 191.845,175.838 190.262 C 175.118 189.542,175.149 188.834,175.940 187.933 C 176.523 187.269,178.293 187.301,178.657 187.982 M106.200 189.347 C 107.184 190.413,107.219 192.005,106.279 192.945 C 104.823 194.401,102.933 193.058,102.933 190.569 C 102.933 188.174,104.557 187.567,106.200 189.347 M225.164 199.753 C 226.619 200.897,225.612 202.933,223.590 202.933 C 222.291 202.933,221.863 202.490,221.871 201.151 C 221.880 199.407,223.728 198.623,225.164 199.753 M215.641 200.248 C 217.985 201.678,215.902 205.349,213.419 204.164 C 211.726 203.357,211.657 201.528,213.272 200.258 C 214.106 199.602,214.578 199.600,215.641 200.248 M201.581 201.990 C 204.623 203.563,204.351 207.200,201.192 207.200 C 198.664 207.200,197.430 204.394,199.090 202.420 C 199.856 201.511,200.454 201.408,201.581 201.990 M222.733 207.197 C 223.474 207.202,223.320 208.628,222.168 212.447 C 221.601 214.328,220.982 216.448,220.794 217.158 C 220.381 218.709,218.048 221.204,215.642 222.667 C 206.909 227.975,204.579 229.913,203.092 233.101 C 202.520 234.329,201.698 236.091,201.267 237.017 C 199.924 239.901,195.780 243.815,192.533 245.266 C 191.727 245.627,189.770 246.524,188.186 247.261 C 182.081 250.098,179.963 248.022,185.250 244.381 C 192.466 239.411,194.533 237.717,195.778 235.753 C 196.725 234.260,196.827 232.349,196.000 231.600 C 194.479 230.224,195.518 228.385,198.933 226.405 C 200.033 225.767,201.773 224.692,202.800 224.016 C 203.827 223.341,205.591 222.334,206.720 221.779 C 211.278 219.541,213.919 216.669,216.780 210.840 C 218.551 207.233,219.041 206.829,221.333 207.089 C 221.847 207.147,222.477 207.195,222.733 207.197 M210.133 208.121 C 210.133 208.495,209.935 209.051,209.161 210.844 C 208.354 212.713,205.363 215.051,198.352 219.294 C 195.767 220.859,195.616 220.861,195.825 219.332 C 196.179 216.751,197.276 215.509,201.037 213.431 C 202.006 212.895,203.580 211.834,204.533 211.075 C 208.297 208.075,210.133 207.106,210.133 208.121 M176.169 218.576 C 177.006 220.580,176.387 221.566,171.551 225.937 C 169.554 227.741,169.077 230.201,170.301 232.388 C 172.469 236.264,170.476 243.411,166.696 245.318 C 156.208 250.611,147.170 245.417,147.516 234.296 C 147.660 229.652,148.316 228.424,150.834 228.086 C 152.427 227.872,152.592 228.233,152.648 232.068 C 152.740 238.244,154.746 241.360,158.383 240.975 C 163.709 240.411,166.419 236.872,165.154 232.133 C 163.860 227.288,164.968 224.380,169.474 220.794 C 173.175 217.849,175.538 217.067,176.169 218.576 " stroke="none" fill="#e32404" fill-rule="evenodd"></path><path id="path1" d="M76.419 38.552 C 75.443 39.528,76.197 40.644,78.861 42.168 C 96.240 52.112,102.990 74.960,93.946 93.235 C 88.838 103.558,77.934 112.057,67.102 114.158 C 66.349 114.304,64.773 114.610,63.600 114.838 C 62.153 115.120,59.171 115.297,54.327 115.391 C 46.413 115.544,46.400 115.547,46.400 117.395 C 46.400 119.438,53.845 121.449,65.968 122.683 C 81.893 124.303,99.271 113.728,106.924 97.762 C 116.851 77.048,109.393 51.583,90.608 42.052 C 84.962 39.188,77.600 37.372,76.419 38.552 M334.994 41.871 C 332.713 45.460,326.125 55.398,324.963 57.002 C 322.901 59.848,323.860 61.535,328.336 62.938 C 331.628 63.970,333.045 63.337,333.571 60.600 C 333.733 59.757,333.975 58.587,334.109 58.000 C 334.243 57.413,334.716 55.013,335.161 52.667 C 335.605 50.320,336.276 46.860,336.651 44.978 C 337.887 38.781,337.462 37.985,334.994 41.871 M254.286 59.352 C 253.254 60.384,253.888 61.529,256.050 62.538 C 261.432 65.051,265.207 74.007,268.134 91.200 C 268.983 96.192,272.290 106.593,274.518 111.280 C 276.720 115.912,279.735 119.328,283.134 121.040 C 283.757 121.354,285.140 122.179,286.208 122.872 C 287.275 123.566,288.779 124.426,289.551 124.784 C 290.408 125.181,290.923 125.581,290.877 125.811 C 290.786 126.259,290.704 126.304,280.267 131.647 C 275.793 133.937,271.533 136.136,270.800 136.533 C 270.067 136.931,266.047 139.007,261.867 141.147 C 239.886 152.398,239.467 152.646,239.467 154.371 C 239.467 156.202,240.597 157.333,242.427 157.333 C 243.066 157.333,257.891 150.216,259.067 149.344 C 259.213 149.236,262.693 147.432,266.800 145.336 C 270.907 143.240,275.467 140.899,276.933 140.134 C 278.400 139.369,282.600 137.208,286.267 135.333 C 289.933 133.457,293.808 131.460,294.877 130.895 C 298.026 129.230,299.639 130.358,298.553 133.467 C 298.348 134.053,295.520 141.793,292.267 150.667 C 285.975 167.832,284.359 172.266,284.003 173.333 C 283.881 173.700,283.424 174.960,282.987 176.133 C 282.551 177.307,279.893 184.567,277.081 192.267 C 274.270 199.967,271.744 206.867,271.468 207.600 C 270.091 211.266,270.881 213.333,273.661 213.333 C 275.317 213.333,276.105 212.351,277.420 208.645 C 278.240 206.333,285.386 186.833,287.379 181.467 C 288.197 179.267,289.140 176.687,289.475 175.733 C 289.811 174.780,290.465 172.980,290.930 171.733 C 291.814 169.361,293.472 164.819,294.530 161.867 C 294.872 160.913,296.192 157.313,297.465 153.867 C 298.737 150.420,300.297 146.160,300.931 144.400 C 302.718 139.442,302.627 139.635,303.037 139.975 C 303.236 140.140,303.663 141.023,303.987 141.938 C 311.372 162.791,318.129 169.997,333.067 172.948 C 335.346 173.398,342.742 175.886,344.564 176.816 C 346.770 177.941,349.979 183.276,351.084 187.656 C 351.759 190.332,352.155 190.933,353.241 190.933 C 357.783 190.933,352.218 177.648,345.869 173.334 C 344.862 172.650,343.646 171.355,342.000 169.213 C 340.680 167.495,337.500 163.362,334.933 160.030 C 332.367 156.697,327.387 150.214,323.867 145.623 C 314.586 133.518,313.533 132.148,311.257 129.225 C 307.234 124.057,307.103 124.566,313.258 121.421 C 315.866 120.089,321.360 117.283,325.467 115.187 C 329.573 113.091,335.087 110.253,337.718 108.882 C 347.734 103.661,350.836 104.390,352.937 112.456 C 354.603 118.853,350.309 123.763,345.600 120.847 C 340.616 117.759,341.851 127.160,347.015 131.616 C 349.373 133.650,350.405 133.994,354.133 133.987 C 370.427 133.958,382.622 119.382,376.493 107.261 C 374.118 102.563,371.425 102.204,371.118 106.546 C 370.654 113.121,364.445 114.234,360.486 108.451 C 356.034 101.947,356.501 99.131,362.540 96.088 C 367.033 93.824,368.169 91.861,366.154 89.846 C 364.490 88.183,364.435 88.203,348.133 96.663 C 346.080 97.729,341.640 100.013,338.267 101.739 C 334.893 103.466,327.662 107.201,322.196 110.039 C 316.731 112.878,312.201 115.200,312.129 115.200 C 311.754 115.200,312.138 113.717,313.361 110.444 C 314.110 108.440,315.677 104.160,316.844 100.933 C 318.010 97.707,319.568 93.447,320.304 91.467 C 321.041 89.487,321.944 87.027,322.311 86.000 C 322.678 84.973,323.201 83.533,323.473 82.800 C 328.195 70.065,328.124 70.328,327.200 68.933 C 326.435 67.778,326.519 67.663,327.979 67.864 C 330.434 68.201,331.307 65.170,329.067 64.086 C 324.920 62.081,323.037 62.243,322.552 64.647 C 322.376 65.521,323.204 66.667,324.014 66.667 C 324.925 66.667,325.167 67.402,324.317 67.589 C 322.552 67.977,321.266 70.970,313.149 93.600 C 312.702 94.847,310.700 100.328,308.701 105.780 C 306.702 111.232,305.067 115.759,305.067 115.839 C 305.067 115.919,304.767 116.663,304.400 117.492 C 303.553 119.407,304.249 120.074,296.322 109.745 C 292.715 105.045,288.917 100.107,287.882 98.772 C 286.847 97.437,284.560 94.454,282.800 92.145 C 281.040 89.835,279.211 87.448,278.736 86.840 C 276.989 84.604,270.222 75.801,268.760 73.864 C 267.931 72.765,266.656 70.657,265.926 69.179 C 262.179 61.587,256.687 56.951,254.286 59.352 M270.169 78.085 C 270.663 78.645,272.267 80.696,273.733 82.642 C 275.200 84.588,279.930 90.760,284.245 96.357 C 288.560 101.954,293.300 108.112,294.778 110.042 C 296.257 111.971,298.531 114.937,299.832 116.633 C 302.331 119.891,302.433 120.227,301.121 120.905 C 300.406 121.275,300.150 121.247,297.674 120.529 C 281.995 115.985,275.041 107.247,270.936 86.933 C 270.233 83.457,269.087 78.157,268.902 77.533 C 268.675 76.767,269.213 77.001,270.169 78.085 M311.486 131.800 C 315.622 137.169,316.917 138.859,322.267 145.867 C 324.451 148.727,328.230 153.647,330.665 156.800 C 333.101 159.953,335.328 162.848,335.614 163.233 C 335.899 163.619,337.243 165.386,338.600 167.162 C 341.984 171.591,342.014 171.564,335.942 169.570 C 327.796 166.896,321.195 162.281,317.439 156.636 C 316.125 154.661,312.000 146.535,312.000 145.921 C 312.000 145.781,311.687 144.961,311.305 144.100 C 309.454 139.924,306.299 129.965,306.566 129.135 C 307.420 126.481,307.366 126.452,311.486 131.800 " stroke="none" fill="#3a98d2" fill-rule="evenodd"></path><path id="path2" d="M193.958 36.102 C 193.321 36.650,193.194 37.007,193.032 38.702 C 192.611 43.127,192.027 46.677,190.933 51.467 C 190.816 51.980,190.471 53.600,190.167 55.067 C 189.329 59.111,189.049 60.337,188.799 61.067 C 186.540 67.651,186.215 70.268,187.363 72.643 C 188.767 75.549,192.892 75.716,197.349 73.047 C 199.431 71.801,199.442 71.800,200.848 72.730 C 203.115 74.230,206.717 73.820,210.840 71.592 L 212.480 70.706 214.000 71.657 C 219.124 74.862,223.475 70.545,225.348 60.400 C 225.538 59.373,225.834 57.813,226.008 56.933 C 226.527 54.297,226.011 53.729,223.849 54.554 C 221.895 55.301,221.602 55.882,221.591 59.036 C 221.561 67.384,218.397 70.592,214.362 66.364 C 212.758 64.684,212.123 64.663,210.754 66.248 C 207.634 69.858,203.919 70.877,202.137 68.611 C 200.504 66.534,199.383 66.479,197.450 68.382 C 194.876 70.915,192.820 71.254,191.542 69.357 C 190.495 67.804,190.744 66.125,193.348 57.200 C 194.247 54.120,195.090 51.180,195.222 50.667 C 195.805 48.401,196.634 45.720,197.900 42.000 C 199.603 36.998,199.640 36.553,198.400 35.934 C 196.994 35.232,194.877 35.312,193.958 36.102 M150.339 36.258 C 149.233 37.127,148.811 38.945,148.259 45.200 C 147.720 51.319,146.633 60.411,146.235 62.133 C 145.200 66.619,144.880 68.852,144.650 73.200 C 144.483 76.362,144.543 76.480,146.566 76.956 C 151.896 78.210,158.175 74.371,159.033 69.333 C 159.495 66.616,155.915 65.610,155.203 68.257 C 153.758 73.620,147.754 72.791,148.748 67.366 C 148.913 66.468,149.298 64.260,149.604 62.458 C 149.910 60.657,150.513 57.597,150.946 55.658 C 151.378 53.720,151.922 51.173,152.155 50.000 C 153.220 44.639,154.140 40.244,154.560 38.504 C 155.192 35.890,155.095 35.733,152.844 35.733 C 151.420 35.733,150.855 35.851,150.339 36.258 M137.200 52.988 C 134.897 53.576,134.163 58.132,136.264 58.799 C 138.442 59.490,140.976 55.518,139.527 53.683 C 139.033 53.057,138.064 52.767,137.200 52.988 M174.286 58.819 C 174.055 59.050,173.860 59.260,173.852 59.286 C 173.844 59.312,173.729 60.233,173.595 61.333 C 172.607 69.464,172.381 70.061,168.072 75.935 C 165.500 79.442,163.494 81.691,161.692 83.089 C 161.214 83.460,161.032 83.793,161.146 84.089 C 161.909 86.078,170.321 79.486,174.191 73.867 C 177.921 68.449,180.252 61.906,179.086 60.125 C 178.078 58.588,175.279 57.826,174.286 58.819 M137.046 63.006 C 135.950 63.745,135.652 64.327,134.968 67.067 C 133.756 71.926,133.523 72.636,132.667 74.084 C 130.912 77.054,126.716 80.836,120.719 84.854 C 114.947 88.722,116.736 89.046,124.133 85.472 C 132.309 81.523,136.693 76.295,139.695 66.914 C 140.774 63.543,139.355 61.450,137.046 63.006 M217.773 81.903 C 217.158 82.261,216.209 84.383,215.642 86.667 C 214.324 91.982,212.406 114.615,213.067 117.067 C 213.954 120.362,217.533 120.844,222.643 118.356 C 223.991 117.700,224.443 117.588,224.777 117.826 C 227.358 119.666,232.519 119.801,234.974 118.093 C 235.880 117.462,236.450 117.473,238.767 118.163 C 245.207 120.081,250.133 114.822,250.133 106.029 C 250.133 101.824,249.436 100.521,247.390 100.905 C 245.623 101.237,245.067 102.805,245.067 107.454 C 245.067 113.601,242.102 116.428,239.178 113.067 C 237.449 111.078,237.018 111.045,235.264 112.762 C 232.143 115.819,230.700 115.931,227.948 113.334 C 226.562 112.025,225.347 111.597,224.931 112.271 C 224.839 112.420,224.382 112.719,223.915 112.936 C 223.448 113.153,222.347 113.936,221.467 114.676 C 219.489 116.340,218.745 116.374,218.159 114.828 C 217.395 112.813,218.352 98.226,219.595 92.933 C 219.802 92.053,220.338 89.816,220.786 87.962 C 221.647 84.396,221.807 82.447,221.280 81.920 C 220.884 81.524,218.444 81.513,217.773 81.903 M149.313 84.246 C 147.721 85.838,148.625 88.533,150.752 88.533 C 152.656 88.533,153.768 86.729,152.939 84.983 C 152.164 83.350,150.539 83.020,149.313 84.246 M170.346 86.546 C 169.519 86.995,168.244 89.465,167.592 91.886 C 167.142 93.555,166.855 97.879,166.409 109.733 C 166.260 113.693,166.067 117.495,165.980 118.182 C 165.669 120.637,166.795 123.989,167.530 122.800 C 168.776 120.787,171.370 110.978,172.008 105.867 C 172.146 104.767,172.388 103.027,172.548 102.000 C 172.708 100.973,172.949 99.413,173.086 98.533 C 173.575 95.374,174.398 88.920,174.399 88.239 C 174.401 86.518,172.139 85.573,170.346 86.546 M179.408 103.133 C 177.903 104.857,178.316 106.601,180.751 108.809 C 182.310 110.222,183.200 111.660,183.200 112.766 C 183.200 113.050,182.140 114.464,180.844 115.908 C 177.717 119.393,177.471 119.906,178.176 121.454 C 178.826 122.881,179.667 122.439,183.386 118.716 C 185.264 116.836,187.413 114.760,188.162 114.102 C 191.326 111.325,190.858 110.199,184.869 106.172 C 183.144 105.013,181.442 103.750,181.087 103.365 C 180.329 102.546,179.965 102.496,179.408 103.133 M201.639 109.533 C 201.300 109.819,200.869 110.821,200.527 112.120 C 198.531 119.700,193.151 125.897,186.562 128.208 C 181.797 129.878,183.265 131.616,188.264 130.222 C 197.422 127.670,207.735 116.007,205.627 110.587 C 205.113 109.266,202.709 108.631,201.639 109.533 M138.883 114.037 C 130.757 116.960,128.741 118.796,129.445 122.632 C 130.351 127.569,129.817 129.352,127.005 130.773 C 122.982 132.806,120.933 130.942,120.933 125.248 C 120.933 121.098,120.531 120.208,118.844 120.632 C 115.168 121.554,114.807 129.965,118.293 133.451 C 121.738 136.896,125.199 137.215,129.235 134.462 C 132.902 131.960,133.599 130.660,133.601 126.313 C 133.604 122.364,134.835 120.400,138.292 118.829 C 140.549 117.803,140.632 117.748,140.996 117.040 C 141.437 116.184,141.437 113.697,140.996 113.528 C 140.811 113.456,139.860 113.686,138.883 114.037 M155.031 115.499 C 154.870 115.701,154.476 116.692,154.155 117.700 C 152.816 121.906,151.495 123.548,146.279 127.488 C 144.365 128.934,141.001 131.683,138.802 133.597 C 136.603 135.512,133.663 137.895,132.269 138.893 C 129.841 140.630,129.182 141.443,129.861 141.863 C 130.819 142.455,134.343 140.907,141.067 136.941 C 142.607 136.032,145.043 134.597,146.480 133.751 C 152.364 130.287,155.374 127.527,157.849 123.324 C 160.523 118.783,161.205 116.378,160.002 115.735 C 159.091 115.247,155.371 115.070,155.031 115.499 M212.533 126.835 C 210.700 127.803,206.500 130.219,203.200 132.204 C 188.682 140.937,188.990 140.267,189.062 162.949 C 189.097 173.775,189.084 174.067,188.508 175.615 C 187.207 179.108,185.651 179.767,182.940 177.973 C 181.612 177.094,180.576 177.200,178.599 178.416 C 171.531 182.766,168.670 178.460,169.197 164.267 C 169.852 146.657,169.309 134.324,167.855 133.766 C 164.087 132.320,162.108 139.210,163.460 149.067 C 163.611 150.167,163.858 152.027,164.008 153.200 C 164.500 157.033,164.770 159.034,165.069 161.067 C 165.400 163.313,165.205 173.666,164.802 175.200 C 164.668 175.713,164.490 176.461,164.408 176.862 C 163.968 179.011,161.276 180.679,158.644 180.434 C 154.992 180.095,155.757 182.285,159.930 184.116 C 162.107 185.071,165.453 184.402,166.753 182.751 C 167.354 181.987,168.336 181.956,169.337 182.669 C 170.953 183.820,173.770 184.800,175.463 184.800 C 177.159 184.800,177.993 184.487,180.449 182.930 C 182.012 181.938,181.973 181.937,184.418 183.067 C 187.642 184.556,188.106 184.546,189.955 182.946 C 191.825 181.327,191.834 181.326,193.293 182.659 C 195.747 184.903,199.246 184.024,201.211 180.672 C 202.497 178.477,201.255 176.886,199.185 178.077 C 195.150 180.399,194.001 177.569,194.061 165.467 C 194.185 140.842,193.288 143.163,206.000 134.605 C 215.539 128.184,217.965 126.227,217.331 125.463 C 216.770 124.788,215.982 125.014,212.533 126.835 M227.445 129.953 C 225.247 131.115,225.295 130.800,225.577 142.295 C 225.716 147.943,225.731 156.023,225.611 160.614 C 225.358 170.284,225.571 171.733,227.248 171.733 C 228.118 171.733,228.171 171.473,229.587 160.133 C 230.562 152.331,232.005 136.586,231.994 133.877 C 231.980 130.235,230.054 128.574,227.445 129.953 M103.472 130.164 C 101.370 131.003,100.640 133.233,99.186 143.254 C 98.580 147.430,98.599 174.896,99.209 177.670 C 100.734 184.598,106.236 187.633,110.868 184.100 C 113.020 182.458,114.915 175.051,113.591 173.456 C 112.431 172.058,110.152 174.266,109.725 177.204 C 109.075 181.658,105.220 182.309,103.899 178.188 C 102.002 172.266,102.877 149.680,105.510 136.620 C 106.379 132.309,106.409 131.991,106.014 131.227 C 105.371 129.983,104.666 129.688,103.472 130.164 M40.000 135.263 C 39.097 135.739,38.610 136.872,37.618 140.800 C 34.106 154.715,32.653 167.350,33.361 177.798 C 33.686 182.584,33.611 182.933,32.254 182.933 C 29.018 182.933,26.455 192.384,28.668 196.160 C 33.133 203.779,42.458 202.782,49.052 193.982 C 51.793 190.324,51.810 190.320,54.141 192.681 C 57.445 196.027,58.674 196.536,59.949 195.084 C 61.262 193.588,61.232 192.333,59.856 191.191 C 59.157 190.611,57.351 187.837,56.863 186.594 C 56.498 185.663,56.419 184.398,56.410 179.333 C 56.400 172.960,56.406 172.895,58.037 162.933 C 59.613 153.306,59.571 153.689,59.209 152.070 C 58.591 149.306,56.986 148.543,54.803 149.973 C 53.302 150.957,51.665 156.666,51.186 162.590 C 51.034 164.466,50.793 166.834,50.649 167.853 C 50.505 168.872,50.267 171.632,50.121 173.986 C 49.504 183.944,49.372 184.490,46.917 187.294 C 46.385 187.903,45.646 188.884,45.274 189.476 C 41.241 195.904,34.133 197.220,34.133 191.539 C 34.133 189.159,35.457 188.189,37.636 188.972 C 41.053 190.201,41.972 188.583,40.535 183.867 C 38.801 178.178,38.154 170.800,38.920 165.467 C 39.089 164.293,39.335 161.773,39.467 159.867 C 39.693 156.595,39.828 155.448,40.540 150.708 C 40.837 148.731,41.725 144.978,42.001 144.532 C 42.319 144.017,42.913 144.636,43.492 146.086 C 43.825 146.919,44.423 148.260,44.821 149.067 C 45.220 149.873,45.628 150.927,45.729 151.409 C 46.111 153.230,47.733 153.505,48.418 151.864 C 48.831 150.877,44.414 136.566,43.376 135.528 C 42.839 134.992,40.816 134.833,40.000 135.263 M206.128 141.543 C 204.672 142.999,204.602 143.549,204.417 155.067 C 204.210 168.002,204.710 173.546,206.412 177.166 C 207.987 180.516,210.854 181.390,213.951 179.465 C 215.100 178.751,215.475 178.647,216.388 178.788 C 219.531 179.273,219.837 179.260,220.795 178.613 C 222.865 177.214,224.006 173.164,222.983 170.850 C 221.395 167.261,216.151 167.561,214.828 171.318 C 214.592 171.987,214.207 173.081,213.971 173.751 C 212.970 176.595,210.082 175.533,209.360 172.054 C 208.833 169.514,208.991 155.059,209.615 148.667 C 210.206 142.619,210.158 141.567,209.263 140.941 C 208.256 140.235,207.240 140.431,206.128 141.543 M87.333 156.636 C 86.087 157.179,85.780 157.712,85.932 159.065 C 86.296 162.290,89.289 162.602,90.124 159.502 C 90.808 156.963,89.549 155.671,87.333 156.636 M93.862 157.871 C 92.514 159.130,93.077 161.067,94.791 161.067 C 95.957 161.067,96.533 160.363,96.533 158.942 C 96.533 157.006,95.312 156.516,93.862 157.871 M140.800 163.123 C 136.815 163.801,131.247 166.395,130.762 167.801 C 130.648 168.130,130.550 170.260,130.544 172.533 C 130.532 177.296,130.181 178.433,128.204 180.125 C 124.271 183.491,120.906 181.072,120.999 174.945 C 121.055 171.189,120.850 170.667,119.322 170.667 C 117.510 170.667,116.966 171.876,116.625 176.667 C 116.152 183.315,120.851 187.663,126.885 186.161 C 132.290 184.816,133.494 183.250,133.876 177.067 C 134.274 170.617,135.301 168.752,139.151 167.498 C 141.413 166.760,141.963 166.145,141.985 164.327 C 142.001 163.059,141.883 162.939,140.800 163.123 M198.219 163.517 C 196.921 164.145,196.770 166.285,197.968 167.070 C 199.117 167.823,200.437 166.933,200.715 165.218 C 200.979 163.592,199.770 162.767,198.219 163.517 M67.819 164.407 C 65.209 166.465,65.454 167.576,69.129 170.362 C 74.749 174.622,74.672 174.312,70.558 176.136 C 67.658 177.421,67.473 177.702,67.479 180.800 C 67.486 184.434,68.321 184.841,71.432 182.726 C 76.645 179.181,80.533 175.506,80.533 174.123 C 80.533 173.129,78.037 170.427,74.267 167.340 C 69.536 163.467,69.204 163.316,67.819 164.407 M148.323 165.189 C 146.740 167.202,146.922 168.011,149.664 171.136 C 152.435 174.295,152.417 173.935,150.041 178.866 C 148.074 182.946,148.000 183.170,148.000 185.034 C 148.000 190.423,150.284 188.284,155.227 178.267 C 158.022 172.603,158.123 173.014,152.575 167.400 C 149.579 164.368,149.146 164.143,148.323 165.189 M90.533 165.379 C 87.899 166.335,87.225 169.089,88.933 171.920 C 90.282 174.157,90.211 174.473,87.847 176.807 C 85.163 179.456,84.950 179.892,85.187 182.253 C 85.450 184.880,85.394 185.519,84.780 186.908 C 84.066 188.521,80.263 192.221,75.994 195.453 C 68.123 201.414,67.295 202.760,72.556 201.041 C 83.085 197.601,90.931 189.523,90.933 182.119 C 90.933 181.115,92.142 178.866,93.198 177.905 C 97.991 173.543,95.844 163.452,90.533 165.379 M219.680 172.320 C 220.209 172.849,220.072 174.756,219.456 175.416 C 217.898 177.089,216.641 174.703,217.994 172.638 C 218.447 171.947,219.170 171.810,219.680 172.320 M186.015 186.993 C 185.132 188.253,185.837 189.600,187.380 189.600 C 188.344 189.600,189.067 188.884,189.067 187.927 C 189.067 186.527,186.823 185.840,186.015 186.993 M175.940 187.933 C 175.149 188.834,175.118 189.542,175.838 190.262 C 177.421 191.845,179.727 189.981,178.657 187.982 C 178.293 187.301,176.523 187.269,175.940 187.933 M103.533 188.673 C 102.563 189.359,102.667 191.775,103.713 192.821 C 104.664 193.772,105.416 193.808,106.279 192.945 C 108.119 191.105,105.611 187.203,103.533 188.673 M222.800 199.519 C 221.831 200.068,221.550 201.309,222.143 202.418 C 222.591 203.255,224.601 203.137,225.314 202.231 C 226.676 200.499,224.745 198.416,222.800 199.519 M213.272 200.258 C 211.657 201.528,211.726 203.357,213.419 204.164 C 215.902 205.349,217.985 201.678,215.641 200.248 C 214.578 199.600,214.106 199.602,213.272 200.258 M199.090 202.420 C 197.430 204.394,198.664 207.200,201.192 207.200 C 204.351 207.200,204.623 203.563,201.581 201.990 C 200.454 201.408,199.856 201.511,199.090 202.420 M219.733 207.116 C 218.678 207.326,218.224 207.899,216.780 210.840 C 213.919 216.669,211.278 219.541,206.720 221.779 C 205.591 222.334,203.827 223.341,202.800 224.016 C 201.773 224.692,200.033 225.767,198.933 226.405 C 195.518 228.385,194.479 230.224,196.000 231.600 C 196.827 232.349,196.725 234.260,195.778 235.753 C 194.533 237.717,192.466 239.411,185.250 244.381 C 179.963 248.022,182.081 250.098,188.186 247.261 C 189.770 246.524,191.727 245.627,192.533 245.266 C 195.780 243.815,199.924 239.901,201.267 237.017 C 201.698 236.091,202.520 234.329,203.092 233.101 C 204.579 229.913,206.909 227.975,215.642 222.667 C 218.048 221.204,220.381 218.709,220.794 217.158 C 220.982 216.448,221.601 214.328,222.168 212.447 C 223.320 208.628,223.474 207.202,222.733 207.197 C 222.477 207.195,221.847 207.147,221.333 207.089 C 220.820 207.030,220.100 207.043,219.733 207.116 M207.697 208.713 C 206.910 209.252,205.487 210.315,204.533 211.075 C 203.580 211.834,202.006 212.895,201.037 213.431 C 198.330 214.926,197.132 215.893,196.536 217.062 C 195.859 218.388,195.517 220.533,195.982 220.533 C 196.845 220.533,206.088 214.474,207.602 212.917 C 208.706 211.781,208.988 211.318,209.829 209.254 C 210.568 207.442,209.826 207.254,207.697 208.713 M173.010 218.503 C 166.234 221.916,163.632 226.432,165.154 232.133 C 166.419 236.872,163.709 240.411,158.383 240.975 C 154.746 241.360,152.740 238.244,152.648 232.068 C 152.592 228.233,152.427 227.872,150.834 228.086 C 148.316 228.424,147.660 229.652,147.516 234.296 C 147.360 239.308,147.966 241.028,151.124 244.541 C 154.088 247.837,161.020 248.183,166.696 245.318 C 170.476 243.411,172.469 236.264,170.301 232.388 C 169.077 230.201,169.554 227.741,171.551 225.937 C 176.387 221.566,177.006 220.580,176.169 218.576 C 175.659 217.358,175.300 217.350,173.010 218.503 " stroke="none" fill="#fac50a" fill-rule="evenodd"></path></g></svg>