<?xml version="1.0" encoding="UTF-8" standalone="no"?>
<!-- Created with Inkscape (http://www.inkscape.org/) -->

<svg
   xmlns:dc="http://purl.org/dc/elements/1.1/"
   xmlns:cc="http://creativecommons.org/ns#"
   xmlns:rdf="http://www.w3.org/1999/02/22-rdf-syntax-ns#"
   xmlns:svg="http://www.w3.org/2000/svg"
   xmlns="http://www.w3.org/2000/svg"
   xmlns:sodipodi="http://sodipodi.sourceforge.net/DTD/sodipodi-0.dtd"
   xmlns:inkscape="http://www.inkscape.org/namespaces/inkscape"
   width="480"
   height="480"
   id="svg2"
   version="1.1"
   inkscape:version="0.92.3 (2405546, 2018-03-11)"
   sodipodi:docname="Flag of Minister of Defense of Slovenia.svg">
  <defs
     id="defs4" />
  <sodipodi:namedview
     id="base"
     pagecolor="#ffffff"
     bordercolor="#666666"
     borderopacity="1.0"
     inkscape:pageopacity="0.0"
     inkscape:pageshadow="2"
     inkscape:zoom="1.1575153"
     inkscape:cx="109.32977"
     inkscape:cy="237.83019"
     inkscape:document-units="px"
     inkscape:current-layer="layer1"
     showgrid="false"
     inkscape:window-width="1920"
     inkscape:window-height="1017"
     inkscape:window-x="-8"
     inkscape:window-y="-8"
     inkscape:window-maximized="1" />
  <metadata
     id="metadata7">
    <rdf:RDF>
      <cc:Work
         rdf:about="">
        <dc:format>image/svg+xml</dc:format>
        <dc:type
           rdf:resource="http://purl.org/dc/dcmitype/StillImage" />
        <dc:title />
      </cc:Work>
    </rdf:RDF>
  </metadata>
  <g
     inkscape:label="Layer 1"
     inkscape:groupmode="layer"
     id="layer1"
     transform="translate(0,-572.36218)">
    <rect
       style="fill:#ff0000;fill-opacity:1"
       id="rect2987"
       width="485.04132"
       height="483.81958"
       x="0"
       y="-1.3760341"
       transform="translate(0,572.36218)" />
    <rect
       style="fill:#005ce5;fill-opacity:1"
       id="rect2989"
       width="367.75168"
       height="350.64697"
       x="59.866566"
       y="633.29626" />
    <g
       id="g3059"
       transform="matrix(0.28524246,0,0,0.28524246,178.38222,706.93351)">
      <path
         inkscape:connector-curvature="0"
         style="fill:#ffe500;fill-opacity:1"
         id="path4"
         d="m -108.03799,164.158 -2.6884,-44.86205 53.263148,-8.40111 89.55602,65.86473 -0.672126,1.84833 L -7.0564734,246.82505 -108.03799,164.158" />
      <path
         inkscape:connector-curvature="0"
         style="fill:#000000;stroke:none"
         id="path6"
         d="m -108.03799,164.158 -3.02444,0.168 -2.85638,-44.69402 -0.168,-2.85639 3.02438,-0.50402 52.927114,-8.40111 1.51219,-0.16806 1.008116,0.67208 89.724062,65.86489 1.680178,1.34411 -0.672073,2.18431 -0.672074,1.84821 -0.168042,0.33611 -0.167989,0.168 -38.4771894,68.21715 -1.848221,3.36043 -2.856389,-2.52033 -100.8135226,-82.49905 -1.17616,-1.00811 v -1.34421 l 3.02444,-0.168 2.18425,-2.35231 100.8135296,82.49905 -2.016263,2.52032 -2.688348,-1.51222 38.4771364,-68.21715 2.688337,1.51222 -3.024379,-1.00811 0.672073,-1.84831 3.024432,1.0081 -1.848284,2.52042 -89.72401,-65.69683 2.016274,-2.68833 0.504084,3.19242 -53.263142,8.40111 -0.50409,-3.19242 3.19242,-0.16799 2.6884,44.86194 -3.19242,0.1681 2.18425,-2.35231 -2.18425,2.35231" />
      <path
         inkscape:connector-curvature="0"
         style="fill:#ffe500;fill-opacity:1"
         id="path8"
         d="m 19.491073,567.58 -40.661442,-56.11948 14.1138956,-9.91336 -1.51219,0.6721 c 10.9214103,16.63421 24.5312744,32.93242 40.6614414,49.90263 0,0 -6.216853,10.92148 -12.601705,15.45811" />
      <path
         inkscape:connector-curvature="0"
         style="fill:#000000;stroke:none"
         id="path10"
         d="m 19.491073,567.58 -2.520348,1.68021 -40.661452,-56.11948 -1.848221,-2.52042 2.520295,-1.84821 14.1138946,-9.74526 1.848285,2.52032 1.008105,3.02442 -1.51219,0.672 -1.008105,-3.02432 2.688337,-1.68021 c 10.7534313,16.29811 24.0271994,32.42832 40.1573674,49.23053 l 1.680232,1.84831 -1.176148,2.01621 c -0.168052,0.16811 -6.04881,11.08948 -13.441821,16.46621 l -2.520305,1.84832 -1.848274,-2.68842 2.520348,-1.68021 -1.848274,-2.85642 c 2.68839,-1.51221 5.880821,-5.37674 7.897084,-8.40116 1.176158,-1.68011 2.184263,-3.19242 2.688348,-4.03253 l 1.176147,-1.84821 2.6884,1.68021 -2.352358,2.01632 C 13.442263,537.336 -0.16754712,520.70168 -11.257064,503.89946 l -2.184263,-3.36042 3.6965056,-1.34421 1.680179,-0.50411 2.85639,5.54474 -14.1138946,9.74537 -1.848222,-2.52032 2.520348,-1.8483 40.661452,55.95146 -2.520358,2.01632 -1.848274,-2.85642 1.848274,2.85642" />
      <path
         inkscape:connector-curvature="0"
         style="fill:#ffe500;fill-opacity:1"
         id="path12"
         d="m 19.491073,567.58 30.916126,39.14925 -14.113884,16.80222 -102.157673,-138.78663 18.146432,-9.74526 26.547557,36.46094 40.661442,56.11948" />
      <path
         inkscape:connector-curvature="0"
         style="fill:#000000;stroke:none"
         id="path14"
         d="m 19.491073,567.58 2.520358,-2.01632 30.748083,39.14926 1.51219,2.01632 -1.51219,1.84821 -14.113894,16.80221 -2.520305,3.19253 -2.352358,-3.36053 -102.325662,-138.45052 -2.016263,-3.02443 3.192421,-1.68021 18.146431,-9.74526 2.520295,-1.51221 1.512253,2.35232 26.547547,36.46084 40.661452,55.95147 -2.520358,2.01632 2.520358,-2.01632 -2.520358,2.01632 -2.520348,1.68021 -40.661452,-56.11948 v 0.168 l -26.547547,-36.46084 2.520348,-1.84831 1.512189,2.85642 -18.146431,9.74526 -1.51219,-2.85642 2.520348,-1.84821 102.157672,138.78663 -2.520347,1.84821 -2.352316,-2.01632 13.777863,-16.97021 2.688337,2.18432 -2.688337,1.84821 -30.748137,-39.14926 v -0.168 L 19.491073,567.58" />
      <path
         inkscape:connector-curvature="0"
         style="fill:#ffe500;fill-opacity:1"
         id="path16"
         d="m -28.395337,536.66378 22.1789786,30.74821 -59.8160416,47.21421 -26.715547,-5.37663 2.85639,-22.34706 61.49622,-50.23873" />
      <path
         inkscape:connector-curvature="0"
         style="fill:#000000;stroke:none"
         id="path18"
         d="m -28.395337,536.66378 2.520358,-2.01621 22.1789156,30.7481 1.8482844,2.52032 -2.3523154,1.84831 -59.9840316,47.55032 -1.176147,0.8401 -1.512253,-0.336 -26.379505,-5.54472 -2.856389,-0.67211 0.16805,-2.85642 3.024381,-22.34695 v -1.1761 l 1.008158,-0.84021 61.328178,-50.07074 2.6884,-2.18431 2.016274,2.52042 -2.520358,2.01621 2.016274,2.35231 -61.49622,50.23874 -2.016274,-2.35232 3.024379,0.50411 -2.688348,22.17895 -3.192421,-0.336 0.840116,-3.19243 26.379505,5.54474 -0.504074,3.02432 -2.016273,-2.35221 59.9840306,-47.55042 1.848284,2.68842 -2.520357,1.68021 -22.1789686,-30.58011 2.520347,-1.84831 2.016274,2.35231 -2.016274,-2.35231" />
      <path
         inkscape:connector-curvature="0"
         style="fill:#ffe500;fill-opacity:1"
         id="path20"
         d="m -124.67224,618.99483 c 0,-10.08126 8.06509,-18.14642 18.14644,-18.14642 9.91331,0 18.146432,8.06516 18.146432,18.14642 0,9.91337 -8.233122,18.14652 -18.146432,18.14652 -10.08135,0 -18.14644,-8.23315 -18.14644,-18.14652" />
      <path
         inkscape:connector-curvature="0"
         style="fill:#000000;stroke:none"
         id="path22"
         d="m -124.67224,618.99483 h -3.19242 c 0,-11.92958 9.40928,-21.33884 21.33886,-21.33884 11.76158,0 21.170811,9.40926 21.170811,21.33884 0,11.76158 -9.409231,21.17084 -21.170811,21.17084 -11.92958,0 -21.33886,-9.40926 -21.33886,-21.17084 h 3.19242 3.19243 c 0,8.23316 6.55289,14.954 14.95401,14.954 8.23313,0 14.954011,-6.72084 14.954011,-14.954 0,-8.40116 -6.720881,-15.122 -14.954011,-15.122 -8.40112,0 -14.95401,6.72084 -14.95401,15.122 h -3.19243" />
      <path
         inkscape:connector-curvature="0"
         style="fill:#ffe500;fill-opacity:1"
         id="path24"
         d="m 553.29852,164.158 2.6884,-44.86205 -53.09511,-8.40111 -89.55601,65.86473 0.50408,1.84833 38.64517,68.21715 100.81347,-82.66705" />
      <path
         inkscape:connector-curvature="0"
         style="fill:#000000;stroke:none"
         id="path26"
         d="m 553.29852,164.158 -3.19242,-0.1681 2.85639,-44.86194 3.02443,0.16799 -0.33604,3.19242 -53.26315,-8.40111 0.50408,-3.19242 1.84823,2.68833 -89.55596,65.69683 -1.84828,-2.52043 3.02443,-1.0081 0.50403,1.84831 -3.02438,1.00811 2.85638,-1.51221 38.64518,68.21715 -2.85639,1.51221 -2.01627,-2.52031 100.81353,-82.49905 2.01621,2.35231 -3.19242,-0.1681 3.19242,0.1681 2.01627,2.52032 -100.81347,82.49905 -3.02443,2.52032 -1.68018,-3.36043 -38.64518,-68.21715 -0.16804,-0.168 v -0.33611 l -0.67207,-1.84821 -0.84012,-2.18431 2.01627,-1.34411 89.55596,-65.86489 1.00817,-0.67208 1.34414,0.16806 53.26315,8.40111 2.85639,0.50402 -0.33604,2.85639 -2.68834,44.69402 -0.16805,1.34421 -1.00816,1.00811 -2.01627,-2.52032" />
      <path
         inkscape:connector-curvature="0"
         style="fill:#ffe500;fill-opacity:1"
         id="path28"
         d="m 425.76946,567.58 40.82948,-56.11948 -14.11389,-9.91336 1.51219,0.6721 c -10.92147,16.63421 -24.36323,32.93242 -40.66144,49.90263 0,0 6.21685,10.92148 12.43366,15.45811" />
      <path
         inkscape:connector-curvature="0"
         style="fill:#000000;stroke:none"
         id="path30"
         d="m 425.76946,567.58 -2.52031,-2.01632 40.66145,-55.95147 2.68834,1.84831 -1.84822,2.52032 -14.11389,-9.74537 3.02437,-5.54474 1.3442,0.50411 3.8645,1.34421 -2.35231,3.36042 c -10.92147,16.80221 -24.53128,33.43653 -40.99748,50.23874 l -2.18431,-2.01632 2.68839,-1.68021 c 0,0 1.51219,2.68832 3.69645,5.88074 2.35237,3.02442 5.37674,6.88895 7.89709,8.40116 l -1.84827,2.85642 -2.52031,-2.01632 2.52031,2.01632 -1.68019,2.52031 c -7.39301,-5.37673 -13.44182,-16.2981 -13.44182,-16.46622 l -1.34419,-2.01621 1.68023,-1.8483 c 16.29821,-16.80221 29.57198,-32.93242 40.32541,-49.23054 l 2.68834,1.68021 -1.00811,3.02432 -1.51224,-0.672 1.00816,-3.02442 1.84823,-2.52032 13.9459,9.74526 2.68834,1.84821 -1.84822,2.52042 -40.66145,56.11948 -1.84828,2.68842 -2.5203,-1.84832 1.68019,-2.52031" />
      <path
         inkscape:connector-curvature="0"
         style="fill:#ffe500;fill-opacity:1"
         id="path32"
         d="m 425.76946,567.58 -30.5801,39.14926 13.9459,16.80221 102.15767,-138.78663 -18.14643,-9.74526 -26.54756,36.46094 -40.82948,56.11948" />
      <path
         inkscape:connector-curvature="0"
         style="fill:#000000;stroke:none"
         id="path34"
         d="m 425.76946,567.58 2.68839,1.84821 -30.91613,39.14926 -2.35236,-1.84821 2.35236,-2.18432 13.94585,16.97021 -2.35231,2.01632 -2.68839,-1.84821 102.32571,-138.78663 2.52035,1.84821 -1.51219,2.85642 -18.14643,-9.74526 1.51219,-2.85642 2.52035,1.84831 -26.54755,36.46084 v -0.168 l -40.66145,56.11948 v 0.168 l -2.68839,-1.84821 -2.52031,-2.01632 40.66145,-55.95147 26.71554,-36.46084 1.68024,-2.35232 2.35231,1.51221 18.14643,9.74526 3.19242,1.68021 -2.18426,3.02443 -102.15772,138.45052 -2.5203,3.36053 -2.52035,-3.19253 -13.94585,-16.80221 -1.68023,-1.84821 1.51219,-2.01632 30.91612,-39.14926 2.35232,2.01632 -2.52031,-2.01632 2.52031,2.01632" />
      <path
         inkscape:connector-curvature="0"
         style="fill:#ffe500;fill-opacity:1"
         id="path36"
         d="m 473.99195,536.66378 -22.51506,30.74821 60.15207,47.21421 26.37952,-5.37663 -2.68835,-22.34706 -61.32818,-50.23873" />
      <path
         inkscape:connector-curvature="0"
         style="fill:#000000;stroke:none"
         id="path38"
         d="m 473.99195,536.66378 2.35231,1.84831 -22.17897,30.58011 -2.6884,-1.68021 2.01627,-2.68842 59.98403,47.55043 -1.84823,2.35221 -0.84011,-3.02432 26.7156,-5.54475 0.50403,3.19243 -3.19243,0.336 -2.68834,-22.17895 3.19242,-0.50411 -2.18426,2.35232 -61.32823,-50.23874 2.18431,-2.35231 2.35231,1.84831 -2.35231,-1.84831 1.84823,-2.35232 61.49622,50.07074 0.84012,0.84021 0.16804,1.1761 2.85639,22.34695 0.33604,2.85642 -2.85639,0.67211 -26.54755,5.54473 -1.51219,0.336 -1.00816,-0.8401 -59.98403,-47.55032 -2.52036,-1.84831 1.84828,-2.52032 22.34696,-30.7481 2.01628,-2.52041 2.52035,2.1843 -1.84823,2.35232" />
      <path
         inkscape:connector-curvature="0"
         style="fill:#ffe500;fill-opacity:1"
         id="path40"
         d="m 570.10081,618.99483 c 0,-10.08126 -8.06508,-18.14642 -18.14644,-18.14642 -9.91336,0 -18.14643,8.06516 -18.14643,18.14642 0,9.91337 8.23307,18.14652 18.14643,18.14652 10.08136,0 18.14644,-8.23315 18.14644,-18.14652" />
      <path
         inkscape:connector-curvature="0"
         style="fill:#000000;stroke:none"
         id="path42"
         d="m 570.10081,618.99483 h -3.19243 c 0,-8.40116 -6.55288,-15.122 -14.95401,-15.122 -8.23312,0 -14.95401,6.72084 -14.95401,15.122 0,8.23316 6.72089,14.954 14.95401,14.954 8.40113,0 14.95401,-6.72084 14.95401,-14.954 h 3.19243 3.19242 c 0,11.76158 -9.57727,21.17084 -21.33886,21.17084 -11.76158,0 -21.33885,-9.40926 -21.33885,-21.17084 0,-11.92958 9.57727,-21.33884 21.33885,-21.33884 11.76159,0 21.33886,9.40926 21.33886,21.33884 h -3.19242" />
      <path
         inkscape:connector-curvature="0"
         style="fill:#ffe500;fill-opacity:1"
         id="path44"
         d="M 222.46228,3.192421 135.5946,138.61853 92.244805,71.073496 -7.0564734,246.82505 c -23.8592106,36.46085 -36.4609156,85.35537 -36.4609156,130.21748 0,74.09789 24.195242,121.3122 75.610167,175.07936 56.287531,58.47179 109.382642,82.49905 190.369502,83.84325 81.15484,-1.3442 134.58599,-25.20335 190.87352,-83.84325 51.41492,-53.76716 75.61011,-100.98147 75.61011,-175.07937 0,-44.8621 -12.60165,-93.75663 -36.46086,-130.21747 L 353.18377,71.073496 309.66593,138.61853 222.9663,3.192421 h -0.50402" />
      <path
         inkscape:connector-curvature="0"
         style="fill:#000000;stroke:none"
         id="path46"
         d="m 222.46228,3.192421 2.68834,1.680242 -86.69963,135.594177 -2.85639,4.03252 -2.5203,-4.03252 -43.349845,-67.713112 2.52035,-1.680232 2.85639,1.51219 -99.4693324,175.751574 v 0.168 l -0.167989,0.168 C -27.891253,284.294 -40.324968,332.85253 -40.324968,377.04253 c 0.168042,73.42578 23.523178,119.46389 74.602009,172.72705 55.951504,58.30377 107.702459,81.65894 188.353229,83.00315 l -0.16799,3.19241 v -3.19241 c 80.65076,-1.34421 132.56972,-24.69938 188.52121,-83.00315 51.24687,-53.26316 74.77,-99.30127 74.77,-172.72705 0,-44.19 -12.60165,-92.74853 -35.78879,-128.36927 l -0.16799,-0.168 v -0.168 l -99.46932,-175.751574 2.85638,-1.51219 2.68834,1.680232 -43.51783,67.713122 -2.68835,4.03252 -2.68833,-4.03252 L 220.10991,4.872663 222.9663,3.192421 v 3.192432 h -0.50402 V 3.192421 l 2.68834,1.680242 -2.68834,-1.680242 V 0 h 0.50402 1.68025 l 0.84011,1.51219 86.86762,135.42611 -2.68835,1.68024 -2.68833,-1.68024 43.34979,-67.713025 2.85638,-4.368631 2.68834,4.536621 99.46933,175.919575 -2.85639,1.51221 2.68834,-1.68021 c 24.19525,36.96495 36.96494,86.53158 36.96494,131.89769 0.16805,74.93799 -24.69927,123.32842 -76.61822,177.09568 -56.45558,59.14389 -111.23091,83.84315 -192.88984,85.01936 h -0.16799 C 140.6353,637.98135 86.364045,613.2821 29.74042,554.1382 -21.842442,500.37094 -46.709821,451.98052 -46.709821,377.04252 c 0,-45.3661 12.769758,-94.93274 36.9649996,-131.89769 l 2.688348,1.68022 -2.688348,-1.51222 99.3012864,-175.919565 2.52035,-4.536621 2.85634,4.368631 43.517835,67.713015 -2.85639,1.68024 -2.5203,-1.68024 L 219.94192,1.51219 220.78204,0 h 1.68024 v 3.192421" />
      <path
         inkscape:connector-curvature="0"
         style="fill:#000000;stroke:none"
         id="path48"
         d="m -108.87811,116.94365 123.328479,93.75655 -3.864495,4.87263 -123.160494,-93.75654 3.69651,-4.87265 m 123.328479,415.01561 -11.4254951,9.74527 -4.032537,-4.87263 11.4254951,-9.74537 4.032537,4.87274" />
      <path
         inkscape:connector-curvature="0"
         style="fill:#005ce5;fill-opacity:1"
         id="path50"
         d="m -8.4006734,295.55158 c -10.9214736,26.54746 -14.4499376,43.18178 -15.4580426,71.57758 -1.176211,31.42021 1.848232,50.23872 12.601652,79.64263 H 456.68564 c 10.75342,-29.40391 13.7778,-48.22242 12.60165,-79.64263 -1.17616,-28.39579 -4.53657,-45.03011 -15.29005,-71.57758 H -8.4006734" />
      <path
         inkscape:connector-curvature="0"
         style="fill:#000000;stroke:none"
         id="path52"
         d="m -8.4006734,295.55158 2.856389,1.3442 c -10.7534316,26.21147 -14.1138946,42.17358 -15.1220106,70.40137 -0.168042,4.20063 -0.336084,8.06505 -0.336084,11.76158 0,24.36326 3.360463,41.33357 12.7697476,66.70494 l -3.0244326,1.00811 v -3.02442 H 456.68564 v 3.02442 l -3.02444,-1.00811 c 9.40929,-25.37137 12.7697,-42.34168 12.7697,-66.70494 0,-3.69653 0,-7.56095 -0.16799,-11.76158 -1.17616,-28.22779 -4.53662,-44.1899 -15.29005,-70.40137 l 3.02438,-1.3442 V 298.744 H -8.4006734 v -3.19242 l 2.856389,1.3442 -2.856389,-1.3442 v -3.02443 h 462.3979134 2.01627 l 0.84012,1.84821 c 10.92147,26.71558 14.61797,44.02189 15.62608,72.75379 0.16804,4.03252 0.33603,8.23305 0.33603,11.92958 0,25.03536 -3.69644,43.18179 -13.10572,69.05726 l -0.67208,1.84821 h -2.3523 -467.942704 -2.184263 l -0.840116,-1.84821 c -9.409284,-25.87547 -13.105789,-44.0219 -13.105789,-69.05726 0,-3.69653 0.168053,-7.89706 0.336095,-11.92958 1.008105,-28.7319 4.70461,-46.03821 15.626084,-72.75379 l 0.840116,-1.84821 h 2.1842636 v 3.02443" />
      <path
         style="fill:#ffffff"
         inkscape:connector-curvature="0"
         id="path54"
         d="M 222.46228,38.141094 135.5946,172.55905 92.244805,108.03844 -2.8559475,276.06094 H 222.46228 448.45251 L 353.18377,108.03844 309.66593,172.55905 222.9663,38.141094 h -0.50402" />
      <path
         inkscape:connector-curvature="0"
         style="fill:#000000;stroke:none"
         id="path56"
         d="m 222.46228,38.141094 2.68834,1.848232 -86.69963,134.418044 -2.68834,3.86453 -2.68835,-3.86453 -43.349845,-64.52065 2.52035,-1.84827 2.85639,1.68023 -95.26874212,167.85448 -2.68840038,-1.51221 v -3.19242 H 222.46228 448.45251 v 3.19242 l -2.85639,1.51221 -95.26873,-167.85448 2.85638,-1.68023 2.5203,1.84827 -43.34979,64.52065 -2.68835,3.86453 -2.68833,-3.86453 -86.86769,-134.418044 2.85639,-1.848232 v 3.192421 h -0.50402 v -3.192421 l 2.68834,1.848232 -2.68834,-1.848232 v -3.192421 h 0.50402 1.68025 l 0.84011,1.51219 86.86762,134.417977 -2.68835,1.68022 -2.52034,-1.68022 43.34978,-64.35258 2.6884,-4.36858 2.68834,4.36858 95.26874,167.85448 2.52035,4.87263 H 448.45251 222.46228 -2.8559475 -8.2326314 l 2.688347,-4.87263 95.1007494,-167.85448 2.52035,-4.36858 2.85634,4.36858 43.517835,64.35258 -2.85639,1.68022 -2.5203,-1.68022 86.86762,-134.417977 0.84012,-1.51219 h 1.68024 v 3.192421" />
      <path
         inkscape:connector-curvature="0"
         style="fill:#ff0000;fill-opacity:1"
         id="path58"
         d="M 222.46228,466.43042 H -0.16754712 C 13.946348,505.57968 38.47763,537.504 78.298961,567.58 c 47.550389,35.62073 92.412349,48.89452 144.163319,48.89452 51.91895,0 97.11696,-13.27379 144.66734,-48.89452 39.82132,-30.076 64.35261,-62.00032 78.4665,-101.14958 H 222.9663 222.46228" />
      <path
         inkscape:connector-curvature="0"
         style="fill:#000000;stroke:none"
         id="path60"
         d="m 222.46228,466.43042 v 3.19242 H -0.16754712 v -3.19242 l 3.02437902,-1.00811 c 13.7778511,38.64516 37.8050511,69.72937 77.2903501,99.46927 47.046298,35.45284 91.068218,48.39052 142.315098,48.39052 51.24682,0 95.60478,-12.93768 142.81912,-48.39052 39.31724,-29.7399 63.51249,-60.82411 77.1223,-99.46927 l 3.19242,1.00811 v 3.19242 H 222.9663 222.46228 v -3.19242 -3.19242 h 0.50402 222.62982 4.36858 l -1.34415,4.36863 c -14.28193,39.65326 -39.48529,72.08168 -79.6427,102.32568 -47.88642,36.29283 -94.09259,49.73463 -146.51557,49.73463 -52.25504,0 -98.12519,-13.60979 -146.011603,-49.73463 -40.325362,-30.244 -65.360719,-62.67242 -79.4746139,-102.32569 l -1.5121895,-4.36863 H -0.16754712 222.46228 v 3.19243" />
      <path
         inkscape:connector-curvature="0"
         style="fill:#000000;stroke:none"
         id="path62"
         d="m 558.00319,121.8163 -123.16049,93.75654 -3.86456,-4.87263 123.32855,-93.75656 3.6965,4.87265 m -122.9925,405.27022 11.42555,9.74537 -4.03254,4.87263 -11.59355,-9.74527 4.20054,-4.87274" />
    </g>
  </g>
</svg>
