<svg xmlns="http://www.w3.org/2000/svg" width="900" height="600"><path fill="#008f4c" d="M0 0h900v600H0"/><path fill="#ffd600" d="M0 0h900v300H0"/><path fill="#fff" d="m 96.348396,243.49007 h 50.352864 v 16.18162 h -4.42987 q -3.69128,0 -4.65135,0.4185 -1.77198,0.8385 -2.58411,2.59905 -0.8121,1.6767 -0.8121,5.4498 v 66.82266 q 0,4.0248 0.29535,4.9467 0.36915,0.9225 1.40265,1.50945 1.0338,0.504 3.98674,0.504 9.89339,0 15.87369,-2.9343 6.05415,-2.9343 10.8531,-9.39045 4.8729,-6.5397 8.343,-17.69081 l 13.5849,5.2821 -13.5849,43.26284 H 96.348396 v -16.18145 h 4.946704 q 3.02731,0 4.57752,-0.9225 1.5508,-0.92249 2.21476,-2.43165 0.7383,-1.59315 0.7383,-5.44979 v -66.23606 q 0,-4.1922 -0.7383,-6.0366 -0.66435,-1.84455 -1.99359,-2.68275 -1.2549,-0.8385 -4.28218,-0.8385 h -5.463484zM 230.20434,243.49007 h 23.10915 l 30.93525,90.29861 q 2.51025,7.2105 4.4298,8.88735 1.99365,1.6767 7.2354,1.593 v 16.18169 h -48.72843 v -16.18163 l 2.9535,-0.0838 q 4.06065,0 5.685,-1.17449 1.6242,-1.257 1.6242,-3.01876 0,-1.50945 -1.4025,-6.2043 l -3.02747,-10.64739 h -31.37826 l -3.8394,11.8218 q -1.1805,3.7728 -1.1805,4.9467 0,1.341 0.8115,2.43166 0.8865,1.089 2.80575,1.59299 1.2555,0.336 6.94005,0.336 v 16.18118 H 187.30863 V 344.269 q 3.8394,0 5.6112,-0.7545 1.77195,-0.7545 2.8791,-2.26395 1.1805,-1.50945 2.58405,-5.61751z m -3.1746,62.96589 h 20.59891 l -10.041,-32.1956zM309.05604,239.54944 h 9.7458 l 1.0335,3.9402 h 58.10515 l 1.25551,-3.9402 h 9.81944 l 12.7728,40.99912 -13.73265,5.44979 q -4.57755,-10.22879 -6.57105,-13.33094 -3.9129,-6.12045 -9.00735,-9.642 -3.8394,-2.68275 -7.6047,-2.68275 -1.77195,0 -2.4363,1.0065 -0.6645,0.9225 -0.6645,4.3599 v 67.24188 q 0,5.9529 0.369,7.46205 0.369,1.50945 1.2555,2.43165 0.8865,0.8385 2.43645,1.1745 1.55085,0.252 8.26905,0.252 v 16.17995 h -50.20558 v -16.18167 h 3.0273 q 5.0205,0 6.4233,-0.6705 1.4025,-0.7545 2.1414,-2.51535 0.738,-1.84454 0.738,-7.5459 v -68.75155 q 0,-2.9343 -0.591,-3.6891 -0.591,-0.7545 -2.51025,-0.7545 -3.8394,0 -8.5644,3.26985 -4.72515,3.26985 -8.4168,9.22275 -1.476,2.3475 -6.2757,13.1634 l -13.5111,-5.4498zM407.32536,243.49007 h 50.20519 v 16.18162 h -4.57725 q -3.98804,0 -5.31599,0.8385 -1.25551,0.7545 -1.91715,2.51535 -0.5895,1.67685 -0.5895,6.5397 v 64.72659 q 0,5.2821 0.51599,6.79125 0.51601,1.50945 1.77196,2.18025 1.54995,1.0065 4.6515,1.0065 h 5.4633 v 16.18123 H 407.32536 V 344.2694 h 4.06065 q 4.3563,0 5.68485,-0.6705 1.3305,-0.7545 1.91925,-2.26395 0.6645,-1.593 0.6645,-6.2043 V 270.1523 q 0,-5.4498 -0.6645,-7.12665 -0.5895,-1.76085 -2.06745,-2.68275 -1.0335,-0.6705 -5.0205,-0.6705 h -4.5774zM468.08841,243.49007 h 50.27906 v 16.18162 h -4.65151 q -3.83865,0 -5.24204,0.9225 -1.401,0.8385 -1.99396,2.51535 -0.5895,1.59315 -0.5895,7.0428 v 20.37361 h 37.50638 v -21.88299 q 0,-4.02479 -0.444,-5.44979 -0.5895,-2.01196 -1.99395,-2.76691 -1.401,-0.7545 -6.2019,-0.7545 h -3.91562 v -16.18162 h 50.4267 v 16.18167 h -4.21005 q -4.28219,0 -5.68485,0.8385 -1.401,0.7545 -1.99394,2.3475 -0.516,1.50945 -0.516,7.29435 v 63.38502 q 0,5.86905 0.66599,7.6296 0.73801,1.6767 2.13916,2.43165 1.4775,0.6705 6.6447,0.6705 h 2.9547 v 16.1822 h -50.42285 v -16.18168 h 3.3219 q 4.6515,0 6.2754,-0.8385 1.69935,-0.8385 2.2887,-2.43165 0.666,-1.59315 0.666,-7.46205 v -24.73371 h -37.50624 v 24.73362 q 0,5.86905 0.444,7.29435 0.738,2.0961 2.2887,2.7669 1.54995,0.6705 6.2754,0.6705 h 3.47136 v 16.18163 H 468.08841 V 344.2689 h 3.39885 q 4.2822,0 5.98035,-0.8385 1.69935,-0.8385 2.2887,-2.3475 0.666,-1.50945 0.666,-6.62355 v -63.55272 q 0,-5.95275 -0.666,-7.71345 -0.5895,-1.84455 -1.91715,-2.68275 -1.332,-0.8385 -5.16825,-0.8385 h -4.57725zM629.77869,243.49007 h 23.10923 l 30.93543,90.29861 q 2.50635,7.2105 4.42994,8.88735 1.99396,1.6767 7.2357,1.593 v 16.18169 h -48.72914 v -16.18163 l 2.9547,-0.0838 q 4.06065,0 5.68485,-1.17449 1.62255,-1.257 1.62255,-3.01876 0,-1.50945 -1.401,-6.2043 l -3.0225,-10.64745 h -31.37823 l -3.83866,11.82181 q -1.182,3.77279 -1.182,4.94669 0,1.34101 0.81151,2.43166 0.88349,1.089 2.8053,1.593 1.25549,0.336 6.9402,0.336 v 16.18123 H 586.88641 V 344.269 q 3.83865,0 5.61106,-0.7545 1.77194,-0.7545 2.88209,-2.26395 1.182,-1.50945 2.5833,-5.61751z m -3.1725,62.96589 h 20.599 l -10.04099,-32.1956M701.46877,243.49007 h 41.86238 l 30.19717,68.24797 v -41.7537 q 0,-5.36595 -0.516,-6.7074 -0.738,-2.01195 -1.99395,-2.7669 -1.2555,-0.8385 -4.87275,-0.8385 h -5.0205 v -16.18175 h 42.52677 v 16.18169 h -4.72545 q -3.5439,0 -5.0943,0.9225 -1.4775,0.9225 -2.06655,2.51535 -0.5895,1.59315 -0.5895,6.8751 v 90.46625 h -21.19195 l -38.24459,-86.19033 v 60.28292 q 0,5.19825 0.516,6.62355 0.58951,1.425 1.99411,2.26395 1.4775,0.8385 5.0205,0.8385 h 4.947 V 360.451 H 701.4709 v -16.18167 h 4.42995 q 3.6891,0 5.0205,-0.6705 1.40101,-0.7545 2.2161,-2.51535 0.816,-1.76085 0.816,-5.2821 v -67.07464 q 0,-3.8565 -0.73799,-5.6175 -0.73801,-1.84455 -1.99411,-2.59905 -1.2555,-0.8385 -4.21005,-0.8385 h -5.53755"/></svg>