<?xml version="1.0" encoding="UTF-8" standalone="no"?>
<!-- Created with Inkscape (http://www.inkscape.org/) -->

<svg
   xmlns:dc="http://purl.org/dc/elements/1.1/"
   xmlns:cc="http://creativecommons.org/ns#"
   xmlns:rdf="http://www.w3.org/1999/02/22-rdf-syntax-ns#"
   xmlns:svg="http://www.w3.org/2000/svg"
   xmlns="http://www.w3.org/2000/svg"
   version="1.1"
   width="600"
   height="400"
   viewBox="0 0 169.33333 112.88889"
   id="svg2"
   xml:space="preserve"
   style="fill-rule:evenodd"><metadata
   id="metadata34"><rdf:RDF><cc:Work
       rdf:about=""><dc:format>image/svg+xml</dc:format><dc:type
         rdf:resource="http://purl.org/dc/dcmitype/StillImage" /><dc:title></dc:title></cc:Work></rdf:RDF></metadata>
 <defs
   id="defs4"><style
     type="text/css"
     id="style6" /></defs>
 <g
   transform="matrix(0.08063492,0,0,0.08063492,45.155558,50.800002)"
   id="g3072"><path
     d="m 0,20 0,100 60,0 0,-20.000001 -40,0 L 20,20 z"
     id="rect3023"
     style="fill:#9000cc;fill-opacity:1;stroke:none" /><path
     d="m 80,20 0,100 60,0 0,-20.000001 -40,0 0,-20 40,0 L 140,60 l -40,0 0,-20 40,0 0,-20 z"
     id="rect3004"
     style="fill:#9000cc;fill-opacity:1;stroke:none" /><path
     d="m 210,40.000003 0,20 20,0 c 5.52285,0 10,4.47715 10,10 0,5.52285 -4.47715,9.999995 -10,9.999995 l -20,0 0,20 20,0 c 16.56854,0 30,-13.43146 30,-29.999995 0,-16.56854 -13.43146,-30 -30,-30 z m 20,-40 c -38.65993,0 -70,31.34007 -70,70 C 160,108.65993 191.34007,140 230,140 c 38.65993,0 70,-31.34007 70,-69.999997 0,-38.65993 -31.34007,-70 -70,-70 z m 0,20 c 27.61424,0 50,22.38576 50,50 C 280,97.614236 257.61424,120 230,120 c -27.61424,0 -50,-22.385764 -50,-49.999997 0,-27.61424 22.38576,-50 50,-50 z"
     id="path3029"
     style="fill:#9000cc;fill-opacity:1;stroke:none" /><path
     d="m 320,20 0,100 20,0 0,-62.78125 40,62.78125 20,0 0,-100 -20,0 0,62.78125 L 340,20 z"
     id="rect3051"
     style="fill:#ff0000;fill-opacity:1;stroke:none" /><rect
     width="20"
     height="100"
     x="420"
     y="20"
     id="rect3002"
     style="fill:#9000cc;fill-opacity:1;stroke:none" /><path
     d="m 460,20 0,100 50,0 c 16.56854,0 30,-13.43146 30,-30 l 0,-40 C 540,33.43146 526.56854,20 510,20 z m 20,20 30,0 c 5.52285,0 10,4.47715 10,10 l 0,40 c 0,5.522847 -4.47715,10 -10,10 l -30,0 z"
     id="path3053"
     style="fill:#9000cc;fill-opacity:1;stroke:none" /><path
     d="m 660,20 -20,20 30,0 c 5.52285,0 10,4.47715 10,10 0,5.52285 -4.47715,10 -10,10 -16.56854,0 -30,13.43146 -30,30 l 0,30 60,0 0,-20 -40,0 0,-10 c 0,-5.52285 4.47715,-10 10,-10 16.56854,0 30,-13.43146 30,-30 0,-16.56853 -13.43146,-30 -30,-30 l -10,0 z"
     id="path3071"
     style="fill:#9000cc;fill-opacity:1;stroke:none" /><path
     d="m 790,3e-6 c -38.65993,0 -70,31.34007 -70,70 C 720,108.65993 751.34007,140 790,140 c 38.65993,0 70,-31.34007 70,-69.999997 0,-38.65993 -31.34007,-70 -70,-70 z m 0,20 c 27.61424,0 50,22.38576 50,50 C 840,97.614238 817.61424,120 790,120 c -27.61424,0 -50,-22.385762 -50,-49.999997 0,-27.61424 22.38576,-50 50,-50 z"
     id="path3041"
     style="fill:#9000cc;fill-opacity:1;stroke:none" /><path
     d="m 880,40 0,80 20,0 0,-100 z"
     id="rect3068"
     style="fill:#9000cc;fill-opacity:1;stroke:none" /><path
     d="m 920,20 0,60 30,0 c 5.52285,0 10,4.47715 10,10 0,5.52285 -4.47715,10 -10,10 l -30,0 20,20 10,0 c 16.56854,0 30,-13.43146 30,-30 0,-16.56854 -13.43146,-30 -30,-30 l -10,0 0,-20 40,0 0,-20 z"
     id="path3043"
     style="fill:#9000cc;fill-opacity:1;stroke:none" /></g><rect
   width="169.33334"
   height="112.88889"
   x="-2.7839155e-006"
   y="-1.5140666e-014"
   id="rect10"
   style="fill:#76c5f0;fill-opacity:1" /><path
   d="m 169.33322,82.43728 0,6.56865 -169.33310919187,0 0,-6.03815 C 0.16433881,83.1951 0.37474781,83.40158 0.66191781,83.5793 c 0.46882299,0.29002 1.02494199,0.45613 1.59187899,0.45613 1.264905,0 2.547007,-0.79922 2.547007,-2.20375 0,-1.03474 -0.747508,-1.89534 -1.731791,-2.07124 -0.956893,-0.17089 -2.07880999,0.49417 -2.07880999,1.55151 0,0.62115 0.50384299,1.12493 1.12487799,1.12493 0.428791,0 0.832868,-0.19674 1.015432,-0.58578 0.09829,-0.20967 -0.04875,-0.48118 -0.285747,-0.48118 -0.129036,0 -0.234326,0.0813 -0.282672,0.17579 -0.06241,0.12203 -0.209612,0.20983 -0.372473,0.20983 -0.466545,0 -0.501622,-0.46865 -0.294858,-0.75946 0.206253,-0.28991 0.555379,-0.48528 0.949946,-0.48528 0.646603,0 1.170946,0.52434 1.170946,1.17089 0,0.92557 -1.054096,1.60668 -1.900574,1.60668 -1.091281,0 -1.97636699,-0.88508 -1.97636699,-1.97636 0,-1.39776 1.47104299,-2.36889 2.76572999,-2.36889 1.076475,0 1.949774,0.58328 2.512782,1.43471 0.696544,1.05336 0.552816,2.44924 1.748249,3.189 0.468822,0.29002 1.024941,0.45612 1.591879,0.45612 1.2649042,0 2.5470062,-0.79921 2.5470062,-2.20374 0,-1.03474 -0.747508,-1.89534 -1.7317912,-2.07124 -0.956893,-0.17089 -2.07881,0.49417 -2.07881,1.55151 0,0.62115 0.503843,1.12493 1.124878,1.12493 0.428791,0 0.832868,-0.19674 1.015432,-0.58578 0.09829,-0.20967 -0.04874,-0.48118 -0.285747,-0.48118 -0.129036,0 -0.234326,0.0813 -0.282672,0.17578 -0.06241,0.12204 -0.209612,0.20984 -0.372473,0.20984 -0.466545,0 -0.501622,-0.46865 -0.294857,-0.75946 0.206252,-0.28991 0.555378,-0.48528 0.949945,-0.48528 0.646603,0 1.1709472,0.52434 1.1709472,1.17089 0,0.92557 -1.0540972,1.60668 -1.9005752,1.60668 -1.091281,0 -1.976367,-0.88508 -1.976367,-1.97637 0,-1.39775 1.471043,-2.36888 2.76573,-2.36888 1.0764762,0 1.9497742,0.58328 2.5127832,1.43471 0.6966,1.05342 0.552588,2.44918 1.748134,3.18906 0.468823,0.29001 1.024941,0.45612 1.591879,0.45612 1.264905,0 2.547007,-0.79921 2.547007,-2.20375 0,-1.03473 -0.747509,-1.89533 -1.731792,-2.07123 -0.956892,-0.17089 -2.07881,0.49416 -2.07881,1.5515 0,0.62115 0.503844,1.12494 1.124879,1.12494 0.428791,0 0.832868,-0.19674 1.015431,-0.58579 0.09829,-0.20967 -0.04874,-0.48118 -0.285747,-0.48118 -0.129035,0 -0.234326,0.0813 -0.282671,0.17579 -0.06241,0.12203 -0.209612,0.20984 -0.372473,0.20984 -0.466545,0 -0.501623,-0.46865 -0.294858,-0.75947 0.206252,-0.2899 0.555378,-0.48528 0.949946,-0.48528 0.646603,0 1.170946,0.52435 1.170946,1.17089 0,0.92558 -1.054097,1.60669 -1.900574,1.60669 -1.091282,0 -1.976368,-0.88509 -1.976368,-1.97637 0,-1.39776 1.471044,-2.36888 2.76573,-2.36888 1.076476,0 1.949774,0.58328 2.512783,1.43471 0.6966,1.05341 0.552588,2.44917 1.748191,3.18905 0.468823,0.29002 1.024942,0.45613 1.591879,0.45613 1.264905,0 2.547007,-0.79922 2.547007,-2.20375 0,-1.03473 -0.747508,-1.89533 -1.731791,-2.07124 -0.956893,-0.17089 -2.078811,0.49417 -2.078811,1.55151 0,0.62115 0.503844,1.12494 1.124879,1.12494 0.428791,0 0.832868,-0.19675 1.015431,-0.58579 0.09829,-0.20967 -0.04874,-0.48118 -0.285746,-0.48118 -0.129036,0 -0.234326,0.0813 -0.282672,0.17579 -0.06241,0.12203 -0.209612,0.20984 -0.372473,0.20984 -0.466545,0 -0.501623,-0.46866 -0.294858,-0.75947 0.206253,-0.2899 0.555378,-0.48528 0.949946,-0.48528 0.646603,0 1.170946,0.52434 1.170946,1.17089 0,0.92557 -1.054096,1.60668 -1.900574,1.60668 -1.091281,0 -1.976367,-0.88508 -1.976367,-1.97636 0,-1.39776 1.471043,-2.36889 2.765729,-2.36889 1.076476,0 1.949775,0.58328 2.512783,1.43471 0.6966,1.05342 0.552588,2.44918 1.748192,3.18906 0.468822,0.29002 1.024941,0.45612 1.591879,0.45612 1.264904,0 2.547006,-0.79921 2.547006,-2.20374 0,-1.03474 -0.747508,-1.89534 -1.731791,-2.07124 -0.956893,-0.17089 -2.07881,0.49416 -2.07881,1.55151 0,0.62114 0.503843,1.12493 1.124878,1.12493 0.428791,0 0.832868,-0.19674 1.015432,-0.58578 0.09829,-0.20967 -0.04874,-0.48118 -0.285747,-0.48118 -0.129036,0 -0.234326,0.0813 -0.282672,0.17578 -0.06241,0.12203 -0.209612,0.20984 -0.372473,0.20984 -0.466545,0 -0.501622,-0.46865 -0.294857,-0.75946 0.206252,-0.28991 0.555378,-0.48528 0.949945,-0.48528 0.646603,0 1.170947,0.52434 1.170947,1.17089 0,0.92557 -1.054097,1.60668 -1.900575,1.60668 -1.091281,0 -1.976367,-0.88509 -1.976367,-1.97637 0,-1.39775 1.471043,-2.36888 2.76573,-2.36888 1.076476,0 1.949774,0.58328 2.512783,1.43471 0.6966,1.05341 0.552588,2.44918 1.748134,3.18906 0.468823,0.29001 1.024941,0.45612 1.591879,0.45612 1.264905,0 2.547007,-0.79921 2.547007,-2.20375 0,-1.03473 -0.747509,-1.89533 -1.731792,-2.07123 -0.956892,-0.17089 -2.07881,0.49416 -2.07881,1.5515 0,0.62115 0.503844,1.12494 1.124879,1.12494 0.428791,0 0.832868,-0.19675 1.015431,-0.58579 0.09829,-0.20967 -0.04874,-0.48118 -0.285747,-0.48118 -0.129035,0 -0.234326,0.0813 -0.282671,0.17579 -0.06241,0.12203 -0.209612,0.20984 -0.372473,0.20984 -0.466545,0 -0.501623,-0.46865 -0.294858,-0.75947 0.206252,-0.2899 0.555378,-0.48528 0.949945,-0.48528 0.646603,0 1.170947,0.52435 1.170947,1.17089 0,0.92558 -1.054097,1.60669 -1.900574,1.60669 -1.091282,0 -1.976368,-0.88509 -1.976368,-1.97637 0,-1.39776 1.471044,-2.36889 2.76573,-2.36889 1.076476,0 1.949774,0.58329 2.512783,1.43472 0.6966,1.05341 0.552588,2.44917 1.748192,3.18905 0.46882,0.29002 1.02494,0.45613 1.59188,0.45613 1.2649,0 2.547,-0.79922 2.547,-2.20375 0,-1.03474 -0.7475,-1.89534 -1.73179,-2.07124 -0.95689,-0.17089 -2.07881,0.49417 -2.07881,1.55151 0,0.62115 0.50385,1.12493 1.12488,1.12493 0.42879,0 0.83287,-0.19674 1.01543,-0.58578 0.0983,-0.20967 -0.0487,-0.48118 -0.28574,-0.48118 -0.12904,0 -0.23433,0.0813 -0.28268,0.17578 -0.0624,0.12204 -0.20961,0.20984 -0.37247,0.20984 -0.46654,0 -0.50162,-0.46865 -0.29486,-0.75946 0.20626,-0.28991 0.55538,-0.48528 0.94995,-0.48528 0.6466,0 1.17095,0.52434 1.17095,1.17089 0,0.92557 -1.0541,1.60668 -1.90058,1.60668 -1.09128,0 -1.97637,-0.88508 -1.97637,-1.97636 0,-1.39776 1.47105,-2.36889 2.76573,-2.36889 1.07648,0 1.94978,0.58328 2.51279,1.43471 0.6966,1.05342 0.55264,2.44924 1.74819,3.18911 0.46882,0.29002 1.02494,0.45613 1.59188,0.45613 1.2649,0 2.547,-0.79922 2.547,-2.20375 0,-1.03473 -0.7475,-1.89533 -1.73179,-2.07123 -0.95689,-0.17089 -2.07881,0.49416 -2.07881,1.5515 0,0.62115 0.50385,1.12494 1.12488,1.12494 0.42879,0 0.83287,-0.19675 1.01543,-0.58579 0.0983,-0.20967 -0.0487,-0.48118 -0.28574,-0.48118 -0.12904,0 -0.23433,0.0813 -0.28268,0.17579 -0.0624,0.12203 -0.20961,0.20984 -0.37247,0.20984 -0.46654,0 -0.50162,-0.46865 -0.29486,-0.75947 0.20626,-0.2899 0.55538,-0.48528 0.94995,-0.48528 0.6466,0 1.17095,0.52434 1.17095,1.17089 0,0.92557 -1.0541,1.60669 -1.90058,1.60669 -1.09128,0 -1.97637,-0.88509 -1.97637,-1.97637 0,-1.39776 1.47105,-2.36889 2.76573,-2.36889 1.07648,0 1.94978,0.58328 2.51279,1.43472 0.6966,1.05341 0.55258,2.44917 1.74813,3.18905 0.46882,0.29002 1.02494,0.45612 1.59188,0.45612 1.2649,0 2.54701,-0.79921 2.54701,-2.20374 0,-1.03474 -0.74751,-1.89534 -1.73179,-2.07124 -0.9569,-0.17089 -2.07881,0.49417 -2.07881,1.55151 0,0.62115 0.50384,1.12493 1.12487,1.12493 0.42879,0 0.83287,-0.19674 1.01544,-0.58578 0.0983,-0.20967 -0.0487,-0.48118 -0.28575,-0.48118 -0.12904,0 -0.23433,0.0813 -0.28267,0.17578 -0.0624,0.12204 -0.20962,0.20984 -0.37248,0.20984 -0.46654,0 -0.50162,-0.46865 -0.29485,-0.75946 0.20625,-0.28991 0.55537,-0.48528 0.94994,-0.48528 0.6466,0 1.17095,0.52434 1.17095,1.17089 0,0.92557 -1.0541,1.60668 -1.90058,1.60668 -1.09128,0 -1.97636,-0.88508 -1.97636,-1.97637 0,-1.39775 1.47104,-2.36888 2.76573,-2.36888 1.07647,0 1.94977,0.58328 2.51278,1.43471 0.6966,1.05342 0.55259,2.44918 1.74819,3.18906 0.46882,0.29001 1.02494,0.45612 1.59188,0.45612 1.2649,0 2.54701,-0.79921 2.54701,-2.20375 0,-1.03473 -0.74751,-1.89533 -1.7318,-2.07123 -0.95689,-0.17089 -2.07881,0.49416 -2.07881,1.5515 0,0.62115 0.50385,1.12494 1.12488,1.12494 0.42879,0 0.83287,-0.19674 1.01543,-0.58579 0.0983,-0.20967 -0.0487,-0.48118 -0.28574,-0.48118 -0.12904,0 -0.23433,0.0813 -0.28267,0.17579 -0.0624,0.12203 -0.20962,0.20984 -0.37248,0.20984 -0.46654,0 -0.50162,-0.46865 -0.29485,-0.75947 0.20625,-0.2899 0.55537,-0.48528 0.94994,-0.48528 0.6466,0 1.17095,0.52435 1.17095,1.17089 0,0.92558 -1.0541,1.60669 -1.90058,1.60669 -1.09128,0 -1.97636,-0.88509 -1.97636,-1.97637 0,-1.39776 1.47104,-2.36888 2.76573,-2.36888 1.07647,0 1.94977,0.58328 2.51278,1.43471 0.69432,1.05017 0.54945,2.44724 1.74819,3.18905 0.46882,0.29002 1.02494,0.45613 1.59188,0.45613 1.2649,0 2.54701,-0.79922 2.54701,-2.20375 0,-1.03473 -0.74751,-1.89533 -1.7318,-2.07124 -0.95689,-0.17089 -2.07881,0.49417 -2.07881,1.55151 0,0.62115 0.50385,1.12494 1.12488,1.12494 0.42879,0 0.83287,-0.19675 1.01543,-0.58579 0.0983,-0.20967 -0.0487,-0.48118 -0.28574,-0.48118 -0.12904,0 -0.23433,0.0813 -0.28267,0.17579 -0.0624,0.12203 -0.20962,0.20984 -0.37248,0.20984 -0.46654,0 -0.50162,-0.46866 -0.29486,-0.75947 0.20626,-0.2899 0.55538,-0.48528 0.94995,-0.48528 0.6466,0 1.17095,0.52434 1.17095,1.17089 0,0.92557 -1.0541,1.60668 -1.90058,1.60668 -1.09128,0 -1.97637,-0.88508 -1.97637,-1.97636 0,-1.39776 1.47105,-2.36889 2.76573,-2.36889 1.07648,0 1.94978,0.58328 2.51279,1.43471 0.6966,1.05342 0.55259,2.44918 1.74813,3.18906 0.46882,0.29002 1.02494,0.45612 1.59188,0.45612 1.26491,0 2.54701,-0.79921 2.54701,-2.20374 0,-1.03474 -0.74751,-1.89534 -1.73179,-2.07124 -0.9569,-0.17089 -2.07881,0.49416 -2.07881,1.55151 0,0.62114 0.50384,1.12493 1.12487,1.12493 0.4288,0 0.83287,-0.19674 1.01544,-0.58579 0.0983,-0.20966 -0.0488,-0.48117 -0.28575,-0.48117 -0.12904,0 -0.23433,0.0812 -0.28267,0.17578 -0.0624,0.12203 -0.20961,0.20984 -0.37248,0.20984 -0.46654,0 -0.50162,-0.46865 -0.29485,-0.75946 0.20625,-0.28991 0.55538,-0.48528 0.94994,-0.48528 0.64661,0 1.17095,0.52434 1.17095,1.17089 0,0.92557 -1.0541,1.60668 -1.90058,1.60668 -1.09128,0 -1.97636,-0.88509 -1.97636,-1.97637 0,-1.39775 1.47104,-2.36888 2.76573,-2.36888 1.07647,0 1.94977,0.58328 2.51278,1.43471 0.6966,1.05341 0.55259,2.44918 1.74819,3.18905 0.46882,0.29002 1.02494,0.45613 1.59188,0.45613 1.2649,0 2.54701,-0.79921 2.54701,-2.20375 0,-1.03473 -0.74751,-1.89533 -1.73179,-2.07123 -0.9569,-0.17089 -2.07881,0.49416 -2.07881,1.5515 0,0.62115 0.50384,1.12494 1.12487,1.12494 0.42879,0 0.83287,-0.19675 1.01544,-0.58579 0.0983,-0.20967 -0.0488,-0.48118 -0.28575,-0.48118 -0.12904,0 -0.23433,0.0813 -0.28267,0.17579 -0.0624,0.12203 -0.20962,0.20984 -0.37248,0.20984 -0.46654,0 -0.50162,-0.46865 -0.29485,-0.75947 0.20625,-0.2899 0.55537,-0.48528 0.94994,-0.48528 0.6466,0 1.17095,0.52435 1.17095,1.17089 0,0.92558 -1.0541,1.60669 -1.90058,1.60669 -1.09128,0 -1.97636,-0.88509 -1.97636,-1.97637 0,-1.39776 1.47104,-2.36889 2.76573,-2.36889 1.07647,0 1.94977,0.58329 2.51278,1.43472 0.6966,1.05341 0.55259,2.44917 1.74813,3.18905 0.46883,0.29002 1.02494,0.45613 1.59188,0.45613 1.26491,0 2.54701,-0.79922 2.54701,-2.20375 0,-1.03474 -0.74751,-1.89534 -1.73179,-2.07124 -0.95689,-0.17089 -2.07881,0.49417 -2.07881,1.55151 0,0.62115 0.50384,1.12493 1.12488,1.12493 0.42879,0 0.83286,-0.19674 1.01543,-0.58578 0.0983,-0.20967 -0.0487,-0.48118 -0.28575,-0.48118 -0.12903,0 -0.23433,0.0813 -0.28267,0.17578 -0.0624,0.12204 -0.20961,0.20984 -0.37247,0.20984 -0.46655,0 -0.50163,-0.46865 -0.29486,-0.75946 0.20625,-0.28991 0.55538,-0.48528 0.94994,-0.48528 0.64661,0 1.17095,0.52434 1.17095,1.17089 0,0.92557 -1.0541,1.60668 -1.90057,1.60668 -1.09129,0 -1.97631,-0.88508 -1.97631,-1.97636 0,-1.39776 1.47098,-2.36889 2.76567,-2.36889 1.07647,0 1.94977,0.58328 2.51278,1.43471 0.6966,1.05342 0.55259,2.44918 1.74819,3.18906 0.46883,0.29001 1.02494,0.45612 1.59188,0.45612 1.26491,0 2.54701,-0.79921 2.54701,-2.20374 0,-1.03474 -0.74751,-1.89534 -1.73179,-2.07124 -0.9569,-0.17089 -2.07881,0.49416 -2.07881,1.5515 0,0.62115 0.50384,1.12494 1.12488,1.12494 0.42879,0 0.83286,-0.19674 1.01543,-0.58579 0.0983,-0.20967 -0.0487,-0.48118 -0.28575,-0.48118 -0.12904,0 -0.23433,0.0813 -0.28267,0.17579 -0.0624,0.12203 -0.20961,0.20984 -0.37247,0.20984 -0.46655,0 -0.50163,-0.46865 -0.29486,-0.75947 0.20625,-0.2899 0.55538,-0.48528 0.94994,-0.48528 0.64661,0 1.17095,0.52435 1.17095,1.17089 0,0.92558 -1.0541,1.60669 -1.90057,1.60669 -1.09129,0 -1.97637,-0.88509 -1.97637,-1.97637 0,-1.39775 1.47104,-2.36888 2.76573,-2.36888 1.07647,0 1.94977,0.58328 2.51278,1.43471 0.6966,1.05341 0.55259,2.44918 1.74814,3.18905 0.46882,0.29002 1.02494,0.45613 1.59187,0.45613 1.264912,0 2.547012,-0.79922 2.547012,-2.20375 0,-1.03473 -0.74751,-1.89533 -1.73179,-2.07124 -0.956892,-0.17088 -2.078812,0.49417 -2.078812,1.55151 0,0.62115 0.50384,1.12494 1.12488,1.12494 0.428792,0 0.832872,-0.19675 1.015432,-0.58579 0.0983,-0.20967 -0.0488,-0.48118 -0.28575,-0.48118 -0.12903,0 -0.23432,0.0813 -0.28267,0.17579 -0.0624,0.12203 -0.209612,0.20984 -0.372472,0.20984 -0.46655,0 -0.50162,-0.46866 -0.29486,-0.75947 0.20625,-0.2899 0.555382,-0.48528 0.949952,-0.48528 0.6466,0 1.17094,0.52434 1.17094,1.17089 0,0.92557 -1.05409,1.60668 -1.900572,1.60668 -1.09128,0 -1.97637,-0.88508 -1.97637,-1.97636 0,-1.39776 1.47104,-2.36889 2.765732,-2.36889 1.07648,0 1.94977,0.58328 2.51278,1.43472 0.6966,1.05341 0.55259,2.44917 1.74819,3.18905 0.46883,0.29002 1.02495,0.45612 1.59188,0.45612 1.26491,0 2.54701,-0.79921 2.54701,-2.20374 0,-1.03474 -0.74751,-1.89534 -1.73179,-2.07124 -0.95689,-0.17089 -2.07881,0.49416 -2.07881,1.55151 0,0.62115 0.50384,1.12493 1.12488,1.12493 0.42879,0 0.83287,-0.19674 1.01543,-0.58578 0.0983,-0.20967 -0.0488,-0.48118 -0.28575,-0.48118 -0.12903,0 -0.23432,0.0813 -0.28267,0.17578 -0.0624,0.12203 -0.20961,0.20984 -0.37247,0.20984 -0.46655,0 -0.50163,-0.46865 -0.29486,-0.75946 0.20625,-0.28991 0.55538,-0.48528 0.94994,-0.48528 0.64661,0 1.17095,0.52434 1.17095,1.17089 0,0.92557 -1.0541,1.60668 -1.90057,1.60668 -1.09128,0 -1.97637,-0.88509 -1.97637,-1.97637 0,-1.39775 1.47104,-2.36888 2.76573,-2.36888 1.07648,0 1.94977,0.58328 2.51278,1.43471 0.6966,1.05342 0.55259,2.44918 1.74819,3.18906 0.46883,0.29001 1.02494,0.45612 1.59188,0.45612 1.26491,0 2.54701,-0.79921 2.54701,-2.20375 0,-1.03473 -0.74751,-1.89533 -1.73179,-2.07123 -0.95689,-0.17089 -2.07881,0.49416 -2.07881,1.5515 0,0.62115 0.50384,1.12494 1.12488,1.12494 0.42879,0 0.83286,-0.19674 1.01543,-0.58579 0.0983,-0.20967 -0.0488,-0.48118 -0.28575,-0.48118 -0.12903,0 -0.23432,0.0813 -0.28267,0.17579 -0.0624,0.12203 -0.20961,0.20984 -0.37247,0.20984 -0.46655,0 -0.50163,-0.46865 -0.29486,-0.75947 0.20625,-0.2899 0.55538,-0.48528 0.94994,-0.48528 0.64661,0 1.17095,0.52435 1.17095,1.17089 0,0.92558 -1.0541,1.60669 -1.90057,1.60669 -1.09128,0 -1.97637,-0.88509 -1.97637,-1.97637 0,-1.39776 1.47104,-2.36888 2.76573,-2.36888 1.07647,0 1.94977,0.58328 2.51278,1.43471 0.6966,1.05341 0.55259,2.44917 1.74814,3.18905 0.46882,0.29002 1.02494,0.45613 1.59188,0.45613 1.2649,0 2.547,-0.79922 2.547,-2.20375 0,-1.03474 -0.74751,-1.89534 -1.73179,-2.07124 -0.95689,-0.17089 -2.07881,0.49417 -2.07881,1.55151 0,0.62115 0.50384,1.12493 1.12488,1.12493 0.42879,0 0.83287,-0.19674 1.01543,-0.58578 0.0983,-0.20967 -0.0487,-0.48118 -0.28575,-0.48118 -0.12903,0 -0.23432,0.0813 -0.28267,0.17579 -0.0624,0.12203 -0.20961,0.20984 -0.37247,0.20984 -0.46655,0 -0.50162,-0.46866 -0.29486,-0.75947 0.20625,-0.2899 0.55538,-0.48528 0.94995,-0.48528 0.6466,0 1.17094,0.52434 1.17094,1.17089 0,0.92557 -1.05409,1.60668 -1.90057,1.60668 -1.09128,0 -1.97637,-0.88508 -1.97637,-1.97636 0,-1.39776 1.47104,-2.36889 2.76573,-2.36889 1.07648,0 1.94978,0.58328 2.51278,1.43471 0.6966,1.05342 0.55259,2.44924 1.7482,3.18911 0.46882,0.29002 1.02494,0.45613 1.59187,0.45613 1.26491,0 2.54701,-0.79921 2.54701,-2.20375 0,-1.03473 -0.74751,-1.89533 -1.73179,-2.07123 -0.95689,-0.17089 -2.07881,0.49416 -2.07881,1.5515 0,0.62115 0.50384,1.12494 1.12488,1.12494 0.42879,0 0.83287,-0.19675 1.01543,-0.58579 0.0983,-0.20967 -0.0487,-0.48118 -0.28575,-0.48118 -0.12903,0 -0.23432,0.0813 -0.28267,0.17579 -0.0624,0.12203 -0.20961,0.20984 -0.37247,0.20984 -0.46655,0 -0.50162,-0.46865 -0.29486,-0.75947 0.20625,-0.2899 0.55538,-0.48528 0.94995,-0.48528 0.6466,0 1.17094,0.52435 1.17094,1.17089 0,0.92557 -1.05409,1.60669 -1.90057,1.60669 -1.09128,0 -1.97637,-0.88509 -1.97637,-1.97637 0,-1.39776 1.47104,-2.36889 2.76573,-2.36889 1.07648,0 1.94977,0.58329 2.51278,1.43472 0.6966,1.05341 0.55259,2.44917 1.74819,3.18905 0.46883,0.29002 1.02495,0.45613 1.59188,0.45613 1.26491,0 2.54701,-0.79922 2.54701,-2.20375 0,-1.03474 -0.74751,-1.89534 -1.73179,-2.07124 -0.95689,-0.17089 -2.07881,0.49417 -2.07881,1.55151 0,0.62115 0.50384,1.12493 1.12488,1.12493 0.42879,0 0.83287,-0.19674 1.01543,-0.58578 0.0983,-0.20967 -0.0488,-0.48118 -0.28575,-0.48118 -0.12903,0 -0.23432,0.0813 -0.28267,0.17578 -0.0624,0.12204 -0.20961,0.20984 -0.37247,0.20984 -0.46655,0 -0.50163,-0.46865 -0.29486,-0.75946 0.20625,-0.28991 0.55538,-0.48528 0.94995,-0.48528 0.6466,0 1.17094,0.52434 1.17094,1.17089 0,0.92557 -1.0541,1.60668 -1.90057,1.60668 -1.09128,0 -1.97637,-0.88508 -1.97637,-1.97636 0,-1.39776 1.47104,-2.36889 2.76573,-2.36889 1.07648,0 1.94977,0.58328 2.51278,1.43471 0.6966,1.05342 0.55259,2.44918 1.74814,3.18906 0.46882,0.29001 1.02494,0.45612 1.59188,0.45612 1.2649,0 2.547,-0.79921 2.547,-2.20374 0,-1.03474 -0.74751,-1.89534 -1.73179,-2.07124 -0.95689,-0.17089 -2.07881,0.49416 -2.07881,1.5515 0,0.62115 0.50384,1.12494 1.12488,1.12494 0.42879,0 0.83287,-0.19674 1.01543,-0.58579 0.0983,-0.20967 -0.0487,-0.48118 -0.28575,-0.48118 -0.12903,0 -0.23432,0.0813 -0.28267,0.17579 -0.0624,0.12203 -0.20961,0.20984 -0.37247,0.20984 -0.46655,0 -0.50162,-0.46865 -0.29486,-0.75947 0.20625,-0.2899 0.55538,-0.48528 0.94995,-0.48528 0.6466,0 1.17094,0.52435 1.17094,1.17089 0,0.92558 -1.05409,1.60669 -1.90057,1.60669 -1.09128,0 -1.97637,-0.88509 -1.97637,-1.97637 0,-1.39775 1.47105,-2.36888 2.76573,-2.36888 1.07648,0 1.94978,0.58328 2.51279,1.43471 0.6966,1.05341 0.55258,2.44918 1.74819,3.18905 0.46882,0.29002 1.02494,0.45613 1.59188,0.45613 1.2649,0 2.547,-0.79922 2.547,-2.20375 0,-1.03473 -0.74751,-1.89533 -1.73179,-2.07124 -0.95689,-0.17089 -2.07881,0.49417 -2.07881,1.55151 0,0.62115 0.50384,1.12494 1.12488,1.12494 0.42879,0 0.83287,-0.19675 1.01543,-0.58579 0.0983,-0.20967 -0.0487,-0.48118 -0.28575,-0.48118 -0.12903,0 -0.23432,0.0813 -0.28267,0.17579 -0.0624,0.12203 -0.20961,0.20984 -0.37247,0.20984 -0.46655,0 -0.50162,-0.46866 -0.29486,-0.75947 0.20625,-0.2899 0.55538,-0.48528 0.94995,-0.48528 0.6466,0 1.17094,0.52434 1.17094,1.17089 0,0.92557 -1.05409,1.60668 -1.90057,1.60668 -1.09128,0 -1.97637,-0.88508 -1.97637,-1.97636 0,-1.39776 1.47104,-2.36889 2.76573,-2.36889 1.07648,0 1.94978,0.58328 2.51278,1.43472 0.6966,1.05341 0.55259,2.44917 1.7482,3.18905 0.46882,0.29002 1.02494,0.45612 1.59187,0.45612 1.26491,0 2.54701,-0.79921 2.54701,-2.20374 0,-1.03474 -0.74751,-1.89534 -1.73179,-2.07124 -0.95689,-0.17089 -2.07881,0.49416 -2.07881,1.55151 0,0.62115 0.50384,1.12493 1.12488,1.12493 0.42879,0 0.83287,-0.19674 1.01543,-0.58578 0.0983,-0.20967 -0.0487,-0.48118 -0.28575,-0.48118 -0.12903,0 -0.23432,0.0813 -0.28267,0.17578 -0.0624,0.12203 -0.20961,0.20984 -0.37247,0.20984 -0.46655,0 -0.50162,-0.46865 -0.29486,-0.75946 0.20625,-0.28991 0.55538,-0.48528 0.94995,-0.48528 0.6466,0 1.17094,0.52434 1.17094,1.17089 0,0.92557 -1.05409,1.60668 -1.90057,1.60668 -1.09128,0 -1.97637,-0.88509 -1.97637,-1.97637 0,-1.39775 1.47104,-2.36888 2.76573,-2.36888 1.07648,0 1.94977,0.58328 2.51278,1.43471 0.6966,1.05341 0.55259,2.44918 1.74814,3.18906 0.46882,0.29001 1.02494,0.45612 1.59188,0.45612 1.2649,0 2.547,-0.79921 2.547,-2.20375 0,-1.03473 -0.7475,-1.89533 -1.73179,-2.07123 -0.95689,-0.17089 -2.07881,0.49416 -2.07881,1.5515 0,0.62115 0.50385,1.12494 1.12488,1.12494 0.42879,0 0.83287,-0.19674 1.01543,-0.58579 0.0983,-0.20967 -0.0487,-0.48118 -0.28574,-0.48118 -0.12904,0 -0.23433,0.0813 -0.28268,0.17579 -0.0624,0.12203 -0.20961,0.20984 -0.37247,0.20984 -0.46654,0 -0.50162,-0.46865 -0.29486,-0.75947 0.20626,-0.2899 0.55538,-0.48528 0.94995,-0.48528 0.6466,0 1.17094,0.52435 1.17094,1.17089 0,0.92558 -1.05409,1.60669 -1.90057,1.60669 -1.09128,0 -1.97637,-0.88509 -1.97637,-1.97637 0,-1.39776 1.47105,-2.36888 2.76573,-2.36888 1.07648,0 1.94978,0.58328 2.51279,1.43471 0.6966,1.05341 0.55258,2.44923 1.74819,3.18911 0.46882,0.29002 1.02494,0.45612 1.59188,0.45612 1.2649,0 2.547,-0.79921 2.547,-2.20374 0,-1.03474 -0.74751,-1.89534 -1.73179,-2.07124 -0.95689,-0.17089 -2.07881,0.49416 -2.07881,1.55151 0,0.62114 0.50384,1.12493 1.12488,1.12493 0.42879,0 0.83287,-0.19674 1.01543,-0.58579 0.0983,-0.20966 -0.0487,-0.48117 -0.28575,-0.48117 -0.12903,0 -0.23432,0.0812 -0.28267,0.17578 -0.0624,0.12203 -0.20961,0.20984 -0.37247,0.20984 -0.46654,0 -0.50162,-0.46865 -0.29486,-0.75946 0.20625,-0.28991 0.55538,-0.48528 0.94995,-0.48528 0.6466,0 1.17094,0.52434 1.17094,1.17089 0,0.92557 -1.05409,1.60668 -1.90057,1.60668 -1.09128,0 -1.97637,-0.88509 -1.97637,-1.97637 0,-1.39775 1.47105,-2.36888 2.76573,-2.36888 1.07648,0 1.94978,0.58328 2.51279,1.43471 0.56471,0.854 0.56135,1.68493 1.32908,2.36968 z"
   id="path12"
   style="fill:#ffffff" /><polygon
   points="117.698,79.7297 107.989,68.8239 120.521,76.317 113.83,63.3393 124.105,73.7136 120.851,59.4795 128.223,72.0832 128.611,57.4868 132.618,71.5282 136.623,57.4876 137.012,72.0832 144.384,59.4799 141.13,73.7139 151.404,63.3398 144.713,76.3174 157.245,68.8244 147.536,79.7303 161.538,75.5892 149.422,83.7381 164.014,83.2091 150.252,88.0889 164.517,91.2053 149.974,92.5094 163.015,99.0754 148.605,96.7218 159.604,106.325 146.232,100.462 154.497,112.498 143.003,103.494 148.015,117.207 139.121,105.627 140.565,120.157 134.831,106.729 132.617,121.161 130.402,106.729 124.668,120.157 126.112,105.627 117.218,117.207 122.23,103.493 110.737,112.498 119.002,100.461 105.63,106.324 116.629,96.7212 102.218,99.0748 115.26,92.5087 100.717,91.2047 114.982,88.0882 101.22,83.2085 115.812,83.7374 103.696,75.5886 "
   transform="matrix(0.56944341,0,0,0.56944341,-34.813381,-22.8867)"
   id="polygon20"
   style="fill:#fff500;fill-opacity:1" /><circle
   cx="132.618"
   cy="89.197601"
   r="14.8256"
   transform="matrix(0.56944341,0,0,0.56944341,-34.813381,-22.8867)"
   id="circle22"
   style="fill:#f00000;fill-opacity:1" /><circle
   cx="132.618"
   cy="89.197601"
   r="12.1136"
   transform="matrix(0.56944341,0,0,0.56944341,-34.813381,-22.8867)"
   id="circle24"
   style="fill:#fff500;fill-opacity:1" /><path
   d="m 34.818729,32.10849 c 3.327941,-3.48493 7.127549,-6.5011 11.287559,-8.93422 l 0.21525,0.36706 c -4.12641,2.41347 -7.893165,5.40396 -11.194171,8.86077 l -0.308638,-0.29361 z m 0.47594,0.56757 c 3.327942,-3.48494 7.127549,-6.50111 11.287569,-8.93423 l 0.21525,0.36707 c -4.12642,2.41347 -7.89317,5.40396 -11.19418,8.86076 l -0.308639,-0.2936 z m -0.951995,-1.13507 c 3.327941,-3.48494 7.127554,-6.50111 11.287564,-8.93423 l 0.21525,0.36706 c -4.12641,2.41348 -7.893169,5.40396 -11.194176,8.86077 l -0.308638,-0.2936 z"
   id="path26"
   style="fill:#f00000;fill-opacity:1;fill-rule:nonzero" /><path
   d="m 46.590828,32.10849 c -3.32794,-3.48493 -7.12755,-6.5011 -11.28756,-8.93422 l -0.21525,0.36706 c 4.12642,2.41347 7.89317,5.40396 11.19418,8.86077 l 0.30863,-0.29361 z m -0.47594,0.56757 c -3.32794,-3.48494 -7.12755,-6.50111 -11.287561,-8.93423 l -0.215249,0.36707 c 4.126414,2.41347 7.89317,5.40396 11.19418,8.86076 l 0.30863,-0.2936 z m 0.952,-1.13507 c -3.32794,-3.48494 -7.12755,-6.50111 -11.287565,-8.93423 l -0.21525,0.36706 c 4.126415,2.41348 7.893165,5.40396 11.194175,8.86077 l 0.30864,-0.2936 z"
   id="path28"
   style="fill:#f00000;fill-opacity:1;fill-rule:nonzero" /><polygon
   points="114.022,131.246 71.0212,158.475 113.888,121.81 132.102,137.942 154.867,114.665 181.827,141.356 155.406,124.64 135.256,140.736 146.914,151.061 120.897,145.669 126.559,140.951 "
   transform="matrix(0.56944341,0,0,0.56944341,-34.813381,-22.8867)"
   id="polygon30"
   style="fill:#ffffff" />
<rect
   width="169.33334"
   height="28.222223"
   x="-2.7839155e-006"
   y="84.666672"
   id="rect3034"
   style="fill:#017cc2;fill-opacity:1" /><path
   d="m 169.33322,91.90827 0,0.88337 c -0.72649,0.52759 -1.61989,0.83896 -2.58618,0.83896 -2.08394,0 -3.83019,-1.44712 -4.28945,-3.39092 l 0.20005,0 c 0.38688,1.30238 2.07095,2.28301 4.08928,2.28301 0.97683,0 1.87518,-0.22977 2.5863,-0.61442 z M 1.1080813e-4,91.67884 l 0,-0.63824 C 0.70958081,91.92375 2.0826228,92.52269 3.6597528,92.52269 c 2.018506,0 3.702692,-0.98063 4.089572,-2.28301 l 0.199989,0 c -0.459257,1.9438 -2.205626,3.39092 -4.289447,3.39092 -1.524628,0 -2.86839999,-0.77478 -3.65975599187,-1.95176 z M 162.25333,90.23963 c -0.38688,1.30237 -2.07106,2.28301 -4.08957,2.28301 -2.01833,0 -3.70241,-0.98064 -4.08929,-2.28301 -0.0667,0 -0.13336,0 -0.20004,0 0.45925,1.94379 2.20551,3.39092 4.28944,3.39092 2.08383,0 3.83019,-1.44713 4.28945,-3.39092 -0.0667,0 -0.13336,0 -0.19999,0 z m -8.5835,0 c -0.38688,1.30237 -2.07107,2.28301 -4.08957,2.28301 -2.01834,0 -3.70241,-0.98064 -4.08929,-2.28301 -0.0667,0 -0.13337,0 -0.20005,0 0.45926,1.94379 2.20551,3.39092 4.28945,3.39092 2.08382,0 3.83019,-1.44713 4.28945,-3.39092 -0.0667,0 -0.13337,0 -0.19999,0 z m -8.58356,0 c -0.38688,1.30237 -2.07107,2.28301 -4.08958,2.28301 -2.01833,0 -3.7024,-0.98064 -4.08928,-2.28301 -0.0667,0 -0.13337,0 -0.20005,0 0.45926,1.94379 2.20551,3.39092 4.28945,3.39092 2.08382,0 3.83019,-1.44713 4.28944,-3.39092 -0.0667,0 -0.13336,0 -0.19998,0 z m -8.58357,0 c -0.38688,1.30237 -2.07106,2.28301 -4.08957,2.28301 -2.01833,0 -3.70241,-0.98064 -4.08929,-2.28301 -0.0667,0 -0.13336,0 -0.20004,0 0.45925,1.94379 2.20551,3.39092 4.28944,3.39092 2.08383,0 3.8302,-1.44713 4.28945,-3.39092 -0.0666,0 -0.13331,0 -0.19999,0 z m -8.5835,0 c -0.38688,1.30237 -2.07107,2.28301 -4.08957,2.28301 -2.01834,0 -3.70241,-0.98064 -4.08929,-2.28301 -0.0667,0 -0.13336,0 -0.20005,0 0.45926,1.94379 2.20551,3.39092 4.28945,3.39092 2.08382,0 3.83019,-1.44713 4.28945,-3.39092 -0.0667,0 -0.13337,0 -0.19999,0 z m -8.58356,0 c -0.38688,1.30237 -2.07107,2.28301 -4.08958,2.28301 -2.01833,0 -3.7024,-0.98064 -4.08928,-2.28301 -0.0667,0 -0.13337,0 -0.20005,0 0.45926,1.94379 2.20551,3.39092 4.28945,3.39092 2.08382,0 3.83019,-1.44713 4.28944,-3.39092 -0.0666,0 -0.1333,0 -0.19998,0 z m -8.58351,0 c -0.38688,1.30237 -2.07107,2.28301 -4.08957,2.28301 -2.01834,0 -3.70241,-0.98064 -4.08929,-2.28301 -0.0667,0 -0.13336,0 -0.20004,0 0.45925,1.94379 2.20551,3.39092 4.28944,3.39092 2.08382,0 3.83019,-1.44713 4.28945,-3.39092 -0.0667,0 -0.13336,0 -0.19999,0 z m -8.58356,0 c -0.38688,1.30237 -2.07107,2.28301 -4.089572,2.28301 -2.01834,0 -3.70241,-0.98064 -4.08929,-2.28301 -0.0667,0 -0.13336,0 -0.20005,0 0.45926,1.94379 2.20552,3.39092 4.28945,3.39092 2.083822,0 3.830192,-1.44713 4.289452,-3.39092 -0.0667,0 -0.13337,0 -0.19999,0 z m -8.583562,0 c -0.38688,1.30237 -2.07107,2.28301 -4.08958,2.28301 -2.01833,0 -3.7024,-0.98064 -4.08928,-2.28301 -0.0667,0 -0.13337,0 -0.20005,0 0.45926,1.94379 2.20551,3.39092 4.28945,3.39092 2.08382,0 3.83019,-1.44713 4.28944,-3.39092 -0.0666,0 -0.1333,0 -0.19998,0 z m -8.58351,0 c -0.38682,1.30237 -2.07101,2.28301 -4.08951,2.28301 -2.01834,0 -3.70241,-0.98064 -4.08929,-2.28301 -0.0667,0 -0.13336,0 -0.20005,0 0.45926,1.94379 2.20551,3.39092 4.28945,3.39092 2.08382,0 3.83019,-1.44713 4.28939,-3.39092 -0.0667,0 -0.13336,0 -0.19999,0 z m -8.5835,0 c -0.38688,1.30237 -2.07107,2.28301 -4.08958,2.28301 -2.01833,0 -3.7024,-0.98064 -4.08928,-2.28301 -0.0667,0 -0.13337,0 -0.20005,0 0.45926,1.94379 2.20551,3.39092 4.28945,3.39092 2.08382,0 3.83019,-1.44713 4.28944,-3.39092 -0.0666,0 -0.1333,0 -0.19998,0 z m -8.58357,0 c -0.38688,1.30237 -2.07106,2.28301 -4.08957,2.28301 -2.01833,0 -3.70241,-0.98064 -4.08929,-2.28301 -0.0667,0 -0.13336,0 -0.20004,0 0.45926,1.94379 2.20551,3.39092 4.28945,3.39092 2.08382,0 3.83019,-1.44713 4.28944,-3.39092 -0.0666,0 -0.13331,0 -0.19999,0 z m -8.5835,0 c -0.38688,1.30237 -2.07107,2.28301 -4.08957,2.28301 -2.01834,0 -3.70241,-0.98064 -4.08929,-2.28301 -0.0667,0 -0.13336,0 -0.20005,0 0.45926,1.94379 2.20551,3.39092 4.28945,3.39092 2.08382,0 3.83019,-1.44713 4.28945,-3.39092 -0.0667,0 -0.13337,0 -0.19999,0 z m -8.58356,0 c -0.38688,1.30237 -2.07107,2.28301 -4.08958,2.28301 -2.01833,0 -3.7024,-0.98064 -4.08928,-2.28301 -0.0667,0 -0.13337,0 -0.20005,0 0.45926,1.94379 2.20551,3.39092 4.28945,3.39092 2.08382,0 3.83019,-1.44713 4.28944,-3.39092 -0.0666,0 -0.1333,0 -0.19998,0 z m -8.58351,0 c -0.38688,1.30237 -2.07107,2.28301 -4.089571,2.28301 -2.018335,0 -3.702407,-0.98064 -4.089287,-2.28301 -0.06668,0 -0.133364,0 -0.200046,0 0.459256,1.94379 2.205512,3.39092 4.289447,3.39092 2.083817,0 3.830187,-1.44713 4.289447,-3.39092 -0.0667,0 -0.13336,0 -0.19999,0 z m -8.583562,0 c -0.38688,1.30237 -2.071065,2.28301 -4.089571,2.28301 -2.018336,0 -3.702408,-0.98064 -4.089287,-2.28301 -0.06668,0 -0.133364,0 -0.200046,0 0.459256,1.94379 2.205511,3.39092 4.289446,3.39092 2.083822,0 3.830191,-1.44713 4.289447,-3.39092 -0.06663,0 -0.133307,0 -0.199989,0 z m -8.583562,0 c -0.38688,1.30237 -2.071066,2.28301 -4.089572,2.28301 -2.018335,0 -3.702407,-0.98064 -4.089287,-2.28301 -0.06668,0 -0.133363,0 -0.200045,0 0.459256,1.94379 2.205511,3.39092 4.289446,3.39092 2.083821,0 3.830191,-1.44713 4.289447,-3.39092 -0.06663,0 -0.133307,0 -0.199989,0 z m -8.583505,0 c -0.38688,1.30237 -2.071066,2.28301 -4.089572,2.28301 -2.018335,0 -3.7024072,-0.98064 -4.0892872,-2.28301 -0.06668,0 -0.133364,0 -0.200045,0 0.459256,1.94379 2.2055112,3.39092 4.2894462,3.39092 2.083821,0 3.83019,-1.44713 4.289446,-3.39092 -0.06662,0 -0.133306,0 -0.199988,0 z"
   id="path16"
   style="fill:#ffffff" /><path
   d="m 169.33322,101.66966 0,1.10689 c -2.00524,-0.0793 -3.66625,-1.49872 -4.11246,-3.38722 l 0.20004,0 c 0.37555,1.26411 1.97324,2.22498 3.91242,2.28033 z m -169.33310919187,0.54513 0,-0.95461 C 0.97852881,100.85434 1.6936928,100.18137 1.9289868,99.38927 c 0.06668,0 0.133364,0 0.199989,0 -0.28626,1.21155 -1.07249,2.23 -2.12886499187,2.82552 z M 165.01627,99.38927 c -0.38688,1.30238 -2.07106,2.28301 -4.08957,2.28301 -2.01834,0 -3.70241,-0.98063 -4.08929,-2.28301 -0.0667,0 -0.13336,0 -0.20004,0 0.45925,1.9438 2.20551,3.39092 4.28944,3.39092 2.08383,0 3.83019,-1.44712 4.28945,-3.39092 -0.0667,0 -0.13336,0 -0.19999,0 z m -8.5835,0 c -0.38688,1.30238 -2.07107,2.28301 -4.08958,2.28301 -2.01833,0 -3.7024,-0.98063 -4.08928,-2.28301 -0.0667,0 -0.13337,0 -0.20005,0 0.45926,1.9438 2.20551,3.39092 4.28945,3.39092 2.08382,0 3.83019,-1.44712 4.28945,-3.39092 -0.0667,0 -0.13337,0 -0.19999,0 z m -8.58357,0 c -0.38688,1.30238 -2.07106,2.28301 -4.08957,2.28301 -2.01833,0 -3.7024,-0.98063 -4.08928,-2.28301 -0.0667,0 -0.13337,0 -0.20005,0 0.45926,1.9438 2.20551,3.39092 4.28945,3.39092 2.08382,0 3.83019,-1.44712 4.28944,-3.39092 -0.0667,0 -0.13336,0 -0.19999,0 z m -8.58356,0 c -0.38688,1.30238 -2.07106,2.28301 -4.08957,2.28301 -2.01833,0 -3.70241,-0.98063 -4.08929,-2.28301 -0.0667,0 -0.13336,0 -0.20004,0 0.45925,1.9438 2.20551,3.39092 4.28944,3.39092 2.08383,0 3.83019,-1.44712 4.28945,-3.39092 -0.0666,0 -0.13331,0 -0.19999,0 z m -8.5835,0 c -0.38688,1.30238 -2.07107,2.28301 -4.08957,2.28301 -2.01834,0 -3.70241,-0.98063 -4.08929,-2.28301 -0.0667,0 -0.13337,0 -0.20005,0 0.45926,1.9438 2.20551,3.39092 4.28945,3.39092 2.08382,0 3.83019,-1.44712 4.28945,-3.39092 -0.0667,0 -0.13337,0 -0.19999,0 z m -8.58357,0 c -0.38688,1.30238 -2.07106,2.28301 -4.08957,2.28301 -2.01833,0 -3.7024,-0.98063 -4.08928,-2.28301 -0.0667,0 -0.13337,0 -0.20005,0 0.45926,1.9438 2.20551,3.39092 4.28945,3.39092 2.08382,0 3.83019,-1.44712 4.28944,-3.39092 -0.0666,0 -0.1333,0 -0.19999,0 z m -8.5835,0 c -0.38688,1.30238 -2.07107,2.28301 -4.08957,2.28301 -2.01834,0 -3.70241,-0.98063 -4.08929,-2.28301 -0.0667,0 -0.13336,0 -0.20004,0 0.45925,1.9438 2.20551,3.39092 4.28944,3.39092 2.08382,0 3.83019,-1.44712 4.28945,-3.39092 -0.0667,0 -0.13337,0 -0.19999,0 z m -8.58356,0 c -0.38688,1.30238 -2.07107,2.28301 -4.08957,2.28301 -2.018342,0 -3.702412,-0.98063 -4.089292,-2.28301 -0.0667,0 -0.13336,0 -0.20005,0 0.45926,1.9438 2.20551,3.39092 4.289452,3.39092 2.08382,0 3.83019,-1.44712 4.28945,-3.39092 -0.0667,0 -0.13337,0 -0.19999,0 z m -8.583562,0 c -0.38688,1.30238 -2.07107,2.28301 -4.08958,2.28301 -2.01833,0 -3.7024,-0.98063 -4.08928,-2.28301 -0.0667,0 -0.13337,0 -0.20005,0 0.45926,1.9438 2.20551,3.39092 4.28945,3.39092 2.08382,0 3.83019,-1.44712 4.28944,-3.39092 -0.0666,0 -0.1333,0 -0.19998,0 z m -8.58351,0 c -0.38682,1.30238 -2.07101,2.28301 -4.08951,2.28301 -2.01834,0 -3.70241,-0.98063 -4.08929,-2.28301 -0.0667,0 -0.13337,0 -0.20005,0 0.45926,1.9438 2.20551,3.39092 4.28945,3.39092 2.08382,0 3.83019,-1.44712 4.28939,-3.39092 -0.0667,0 -0.13337,0 -0.19999,0 z m -8.58351,0 c -0.38688,1.30238 -2.07106,2.28301 -4.08957,2.28301 -2.01833,0 -3.7024,-0.98063 -4.08928,-2.28301 -0.0667,0 -0.13337,0 -0.20005,0 0.45926,1.9438 2.20551,3.39092 4.28945,3.39092 2.08382,0 3.83019,-1.44712 4.28944,-3.39092 -0.0666,0 -0.1333,0 -0.19999,0 z m -8.58356,0 c -0.38688,1.30238 -2.07106,2.28301 -4.08957,2.28301 -2.01833,0 -3.70241,-0.98063 -4.08929,-2.28301 -0.0667,0 -0.13336,0 -0.20004,0 0.45925,1.9438 2.20551,3.39092 4.28944,3.39092 2.08383,0 3.83019,-1.44712 4.28945,-3.39092 -0.0666,0 -0.13331,0 -0.19999,0 z m -8.5835,0 c -0.38688,1.30238 -2.07107,2.28301 -4.08957,2.28301 -2.01834,0 -3.70241,-0.98063 -4.08929,-2.28301 -0.0667,0 -0.13337,0 -0.20005,0 0.45926,1.9438 2.20551,3.39092 4.28945,3.39092 2.08382,0 3.83019,-1.44712 4.28945,-3.39092 -0.0667,0 -0.13337,0 -0.19999,0 z m -8.58356,0 c -0.38688,1.30238 -2.07107,2.28301 -4.08958,2.28301 -2.01833,0 -3.7024,-0.98063 -4.08928,-2.28301 -0.0667,0 -0.13337,0 -0.20005,0 0.45926,1.9438 2.20551,3.39092 4.28945,3.39092 2.08382,0 3.83019,-1.44712 4.28944,-3.39092 -0.0666,0 -0.1333,0 -0.19998,0 z m -8.58351,0 c -0.38688,1.30238 -2.07107,2.28301 -4.08957,2.28301 -2.018337,0 -3.702409,-0.98063 -4.089289,-2.28301 -0.06668,0 -0.133363,0 -0.200045,0 0.459256,1.9438 2.205511,3.39092 4.289444,3.39092 2.08382,0 3.83019,-1.44712 4.28945,-3.39092 -0.0667,0 -0.13337,0 -0.19999,0 z m -8.583562,0 c -0.38688,1.30238 -2.071066,2.28301 -4.089572,2.28301 -2.018335,0 -3.702407,-0.98063 -4.089287,-2.28301 -0.06668,0 -0.133364,0 -0.200046,0 0.459257,1.9438 2.205512,3.39092 4.289447,3.39092 2.083821,0 3.83019,-1.44712 4.289446,-3.39092 -0.06663,0 -0.133306,0 -0.199988,0 z m -8.583562,0 c -0.38688,1.30238 -2.071066,2.28301 -4.089572,2.28301 -2.018335,0 -3.702407,-0.98063 -4.089287,-2.28301 -0.06668,0 -0.133364,0 -0.200046,0 0.459256,1.9438 2.205512,3.39092 4.289447,3.39092 2.083821,0 3.83019,-1.44712 4.289446,-3.39092 -0.06662,0 -0.133307,0 -0.199988,0 z m -8.583506,0 c -0.38688,1.30238 -2.071065,2.28301 -4.089571,2.28301 -2.018336,0 -3.702408,-0.98063 -4.089287,-2.28301 -0.06668,0 -0.133364,0 -0.200046,0 0.459256,1.9438 2.205511,3.39092 4.289446,3.39092 2.083822,0 3.830191,-1.44712 4.289447,-3.39092 -0.06663,0 -0.133307,0 -0.199989,0 z m -8.583619,6e-5 c -0.38688,1.30237 -2.0710662,2.28301 -4.0895722,2.28301 -2.018335,0 -3.702407,-0.98064 -4.089287,-2.28301 l -0.200045,0 c 0.459256,1.94379 2.205511,3.39092 4.289446,3.39092 2.083822,0 3.8301912,-1.44713 4.2894472,-3.39092 l -0.199989,0 z"
   id="path18"
   style="fill:#ffffff" /></svg>