<?xml version="1.0" encoding="UTF-8"?>
<svg width="900" height="600" version="1.1" viewBox="0 0 9e4 6e4" xmlns="http://www.w3.org/2000/svg" xmlns:cc="http://creativecommons.org/ns#" xmlns:dc="http://purl.org/dc/elements/1.1/" xmlns:rdf="http://www.w3.org/1999/02/22-rdf-syntax-ns#">
<metadata>
<rdf:RDF>
<cc:Work rdf:about="">
<dc:format>image/svg+xml</dc:format>
<dc:type rdf:resource="http://purl.org/dc/dcmitype/StillImage"/>
<dc:title/>
</cc:Work>
</rdf:RDF>
</metadata>
<path d="m0 0h9e4v6e4h-9e4z" fill="#c1272d"/>
<path d="m67500 17308 7460 22960-19531-14190h24142l-19531 14190z" fill="none" stroke="#006233" stroke-width="1426"/>
<g transform="matrix(750 0 0 750 -108214 -31565)">
<g transform="matrix(.33401 0 0 .33976 149.23 48.365)" stroke-width=".09375">
<path d="m38.6 11.2c2.3-0.1 4.7-0.2 7.1-0.2 1.1 3.7 2.8 7.3 5.5 10.2 0.9-1.2 1.7-2.4 2.6-3.6-0.4-2.2-0.7-4.4-1-6.5 2.8-0.1 5.6-0.1 8.4 0-0.3 2.3-0.6 4.6-1.1 6.8 1.7 1.5 3.7 2.9 5.8 3.8 1.1-1.7 2.4-3.2 3.3-5 0.1-1.9-0.1-3.8-0.2-5.7 3 0 6.1 0 9.1 0.1-0.5 3.5-1.2 7.3 1 10.5 2.1-0.6 3.6-2.1 4.5-4-0.1-2.2-0.5-4.3-0.7-6.5 3-0.1 6.1-0.1 9.1-0.1-0.3 3.7-0.8 7.6 1.8 10.7 1.4-1.3 2.8-2.6 3.9-4.1 0.5-2.2 0.4-4.4 0.5-6.6 3 0 6.1 0 9.2 0.1-1 4.4-3.2 8.4-3.3 13s-1.2 9.2-1.1 13.9c0 15-0.1 30 0 45.1 0 2.6 0 5.9-2.3 7.6-5.3 2.6-11.4 2-16.8 4.2-3.3 0.9-6 4-9.6 3-2.5-0.8-4.6-2.3-6.9-3.4-5.2-1.6-10.7-1.3-16-1.8-2.3-1.7-4.7-4-5.2-6.9-3-21.3 0.8-43-2.8-64.3-0.3-4-4.6-6.2-4.8-10.3z" stroke="#000"/>
<path d="m23.5 11.7c3.1 7.5 7.1 16.3 2.4 24 0.4 0.3 1.3 1 1.7 1.4 2-2.9 4.5-5.4 5.9-8.6 0.6-1.9 0.9-3.9 1.4-5.8 0.5 0.4 1.6 1.2 2.1 1.6-0.1 6.3 0.8 13.8-4 18.8-1.6 2.3-4.6 3.1-7 4.3 0 3.4 0 6.8 0.2 10.2 4-2.6 7.5-6.3 8.6-11.1 1.6 1.4 3.9 2.9 3.2 5.4-0.2 5.8-4.4 10.1-8.8 13.4-3.2 2.3-3.5 6.5-3.2 10.2 5.6-1.8 9.9-7.1 10.7-13 1.1 4.1 2.1 8.6 0.5 12.7-1.5 5.3-6.8 7.9-9.8 12.2-0.5 2.8-0.9 5.5-1.4 8.2 0.9 0.9 1.8 1.7 2.7 2.6 1.4-2.7 2.9-5.3 5-7.5 2.2-2 2.6-5.1 4.2-7.5 0.4 3.8-0.8 7.4-0.5 11.1 0.1 1.5-0.2 2.9-0.7 4.3-2.8 3.6-6.6 6.4-9.8 9.6-0.4 3 1.3 5.6 3.5 7.5 0.6-2.9 0.6-6.2 2.8-8.4 2.6-3.4 6.6-5.6 8.6-9.4 0.8 3.1 3 6.2 1.7 9.5-1.1 5.1-6 7.7-9.3 11.3 3.5 1.3 6.3 4 9.6 5.8 0.2-3.7-0.2-7.6 1.7-11 1.7-2.7 1.5-6 1.9-9.1 2 3.5 3.8 7.1 5.6 10.7-0.6 3.8-2.7 7.2-4.3 10.6 3.1 0.8 6.2 1.4 9.4 1.5 1.1 2.4 2.3 4.7 4 6.7-3.4-2.1-7.7-2.1-10.9-4.6-0.4 0.2-1.3 0.7-1.8 0.9-0.4 3.4-2.6 6.2-4.5 8.8h-15.3c5.3-2.6 9.1-7.1 13.1-11.4-1.9-1.4-4.7-2.6-6.8-0.8-2.7 2.2-6.1 3.7-9.6 3.2-4.2-2.8-7.1-7.1-9.9-11.2 3.4 1.2 6.9 2.6 10.6 2.2 2.8-0.4 5.1 1.3 7.3 2.7 0.9-0.3 1.9-0.6 2.8-0.8-3.2-2.2-5.5-5.2-8.6-7.5-4.7-0.5-10.4-1.4-12.7-6.2-1.7-4.4-2.8-9.2-2.9-13.9 2.1 1.9 3.8 4.1 5.8 6.1 2 1.6 4.3 3.1 6.3 4.8 0-2.3 0.2-4.5-0.3-6.7-1.1-1.6-2.5-3-3.8-4.5-2.2-2.2-5.8-2.7-7.6-5.4-1.7-4.8-1.4-10-1.3-15.1 2.8 4.7 8.4 6.9 10.6 11.9 0.4 1.7 0.6 3.5 1 5.2 1-3.9 1.9-8.2-0.4-11.7-3.6-4.2-7.8-7.8-10.9-12.4-0.7-4.5-0.1-9.2-0.3-13.7 3.7 5.1 9.4 8.6 12 14.7-0.3-4.6 1.3-10.4-2.7-13.7-3-3.1-8.2-4.4-9.2-9-0.3-5.8-0.1-11.6-0.1-17.4 1.4 2.8 1.8 6.2 4.2 8.3 2.9 2.7 5.2 5.9 7.8 8.8 0.9-5.9-1.8-11.4-3.8-16.8-0.7-5.8 1-11.7 3.3-17z" fill="#006233" stroke="#006233"/>
<path d="m40 12h4.6l1.5 3h-6.1v-3z" fill="#fae000" stroke="#fae000"/>
<path d="m54 12h6v3h-6v-3z" fill="#fae000" stroke="#fae000"/>
<path d="m70 12h7v3h-7v-3z" fill="#fae000" stroke="#fae000"/>
<path d="m84 12h7v3h-7v-3z" fill="#fae000" stroke="#fae000"/>
<path d="m99 12h7v3h-7v-3z" fill="#fae000" stroke="#fae000"/>
<path d="m123.2 12h2.5c-0.1 4.5 3.3 7.7 4.1 12-0.4 3.4-2.5 6.1-3.6 9.2-0.1 5.2-0.8 10.2-1.3 15.4 1.4-2 2.5-4 3.6-6.1 1.4-2.6 4.4-3.6 6.1-5.9 1.4-2.2 2.2-4.6 3.2-7 0.5 5.3 2.5 10.9-0.1 16-3.1 4.5-8.5 6.4-12.7 9.5v12.3c4-6.2 9.6-11.1 12.9-17.7 0.8 4.7 0.6 9.4-0.1 14-3.4 2.7-6.9 5.2-10.4 7.6-0.6 3.3-1.4 6.6-2.6 9.7 0.4 0.5 1.1 1.6 1.4 2.1 3.4-2.9 7.3-5.3 10-8.9 1-2 0.9-4.3 2.4-6.1 0.6 5.9 1.3 12.3-1.9 17.5-2.5 2.9-6 4.7-8.6 7.5-1.6 4-1 8.3-2 12.4 5.4-3 10.3-7.2 12.5-13 3 3-1.1 6.1-0.6 9.5 0 4.1-1.5 8.6-5.1 10.9-2.1 1.6-4.8 1.9-7.3 2.6-2.2 2.3-4.2 4.8-5.9 7.5 3.8 1.2 7.7 2.4 11.8 2.5-3.1 2.6-7 4.1-10.8 5.4-5.1 1.5-9.2-5.1-14.2-1.9 2.3 1.8 4.7 3.6 6.4 6.1 1.1 2 3.6 1.9 5.5 2.5-3.2 1.7-6.9 4.8-10.7 2.8-4.2-1.6-4.9-6.5-8-9.2-1.6-0.2-3.3-0.3-4.9-0.4 0.1-0.6 0.2-1.8 0.3-2.3 2.1-1.1 4.2-2.3 6.1-3.7-0.1-3.3-2-6.8-0.4-9.9 1.5-3.7 4.3-6.6 6.7-9.6 0.4 4.8 0.8 9.7 0.4 14.5-0.7 3.1-3.4 5.1-5.3 7.4 4.1-0.9 8.3-1.9 11.2-5.2-1.7-5.2-2-10.6-2.7-15.9 0.3-2.2 1.7-4.1 2.3-6.2 2.7 4.3 5.5 8.5 7.7 13.1-1.4 3.2-3.2 6.1-4.5 9.4 2.9-2.4 5.6-5.3 7.1-8.8 0.6-3.1 0.2-6.2 0.3-9.4-4.6-3.5-9.7-7.4-10.9-13.4-0.4-3.5-0.1-7.1 0.2-10.6 2.6 3.9 5.7 7.3 8.7 10.8 2.3 2.3 1.9 5.7 2.6 8.7 0.3-3.9 1.2-7.6 1.3-11.4-0.9-2.1-1.8-4.3-3.2-6-2.8-2.2-6.4-3.5-8.3-6.7-1.5-4.2-1.5-8.7-1.4-13 1.4 2 2.2 4.7 4.7 5.7 2.7 1.1 3.9 3.8 5.3 6.1 0-2.6 0.2-5.2-0.3-7.8-2.3-2.1-5-3.8-7.3-6-1.6-2.2-2.6-4.8-2.4-7.6 0.3-4.2-0.6-8.3-1.1-12.5 1.6 4 4.2 7.4 6.8 10.8 2 2.3 2.2 6.1 5.4 7.4-0.1-3.5-0.7-7-1.4-10.3-2-2.8-6-3.3-7.9-6.2-1.8-3.2-3.7-6.8-3.2-10.6s0.3-7.5 0.6-11.3c0.9 2 1.6 4 2.5 6 2 3 4.8 5.5 5.9 9.1 1.1 2.4 1.1 5.5 3.3 7.4 1-6.6-3.6-12.3-3.7-18.6 1.2-4.1 3.3-7.8 3-12.2z" fill="#006233" stroke="#006233"/>
<path d="m41.8 16h4.8c0.8 1.7 1.6 3.4 2.5 5h-4.8c-0.2-2-0.5-4-2.5-5z" fill="#fae000" stroke="#fae000"/>
<path d="m52.7 21c1.2-2 2.6-3.9 4.2-5.6 1.7 1.7 3.4 3.4 4.7 5.4-2.9 0.2-5.9 0.2-8.9 0.2z" fill="#fae000" stroke="#fae000"/>
<path d="m67.3 20.7c1.5-2.1 3.6-3.6 5.8-4.8 2.8-0.2 3.7 3.3 5.1 5.1-3.6 0-7.3 0.1-10.9-0.3z" fill="#fae000" stroke="#fae000"/>
<path d="m86.2 16h3.3c0.5 1.8 1.4 3.5 2.5 5h-9.3c1.1-1.7 2.2-3.4 3.5-5z" fill="#fae000" stroke="#fae000"/>
<path d="m100.2 16h4c-0.3 1.7 0.2 3.8-1.5 4.9-2 0.2-3.9 0.1-5.9 0.1 1.2-1.6 2.4-3.3 3.4-5z" fill="#fae000" stroke="#fae000"/>
<path d="m45 22h58v1h-58z" fill="#fae000" stroke="#fae000"/>
<path d="m45 24h58v4h-58v-4z" fill="#fae000" stroke="#fae000"/>
<path d="m45 29h58v1h-58z" fill="#fae000" stroke="#fae000"/>
<path d="m70.7 33.6c4.7-2.1 9.7 0.6 13.4 3.6-0.1 2.6-0.4 5.2-0.6 7.9 0.4 2 1.3 3.8 1.8 5.7-2.3 1.4-3.8 3.4-3.6 6.2-3.7-0.1-7.3 0-10.9-0.1 0.3-1.4 0.7-2.7 1-4.1-2.1 0.5-4.2 1-6.4 1.4-0.4-0.5-1.3-1.7-1.7-2.3 1.3-1.4 2.6-2.7 3.9-4.2l-2.8-2.8c2.4-3.6 1-9.6 5.9-11.3z" fill="#daab01" stroke="#daab01"/>
<path d="m68 41.6c2.5-0.4 5 0.1 7.5 0.5-1.3 1.8-2.7 3.5-4 5.3-1-0.4-3-1-4-1.3 0.2-0.6 0.6-1.6 0.8-2.2l0.6-0.1c1.5 1.4 3.5-1.6 1.2-1.9-0.4 0.3-1.1 0.8-1.4 1.1l-0.5 0.1c-0.1-0.4-0.2-1.1-0.2-1.5z" fill="#fae000" stroke="#fae000"/>
<path d="m68.7 43c0.3-0.3 1-0.8 1.4-1.1 2.3 0.3 0.3 3.3-1.2 1.9z" fill="#0a0701" stroke="#0a0701"/>
<path d="m71.4 56.1c1.7-2.3 3.4-4.5 5.3-6.6 1.3 2.2 2.6 4.4 3.8 6.6-3 0.1-6 0.1-9.1 0z" fill="#fae000" stroke="#fae000"/>
<path d="m46 59h56c0 8 0.1 16 0 24 0.2 4.9-4.3 8.9-9.1 8.9-6 0.1-12 1.6-16.8 5.2-3.8-1.6-7.4-3.7-11.3-4.9-4.4-0.4-8.8-0.1-13.2-0.2-4.1-4.3-4.8-10.4-5.6-16-0.2-5.7 0-11.4 0-17z" fill="#00a5fa" stroke="#00a5fa"/>
<path d="m65.3 63c2.6 0 5.3 0 7.9 0.1 0.3 4.8-3 8.6-4.1 13.1-0.7 3.2-3.5 5.3-4.9 8.2-0.4 2.2-0.2 4.4-0.3 6.6h-6.8c0.7-5.2-1.9-9.7-3.8-14.3-1.7-4.2-4.6-8-4.5-12.6 2.4-0.1 4.8-0.1 7.3-0.1 0.8 3.7 2.3 7 4.4 10.2 1.6-3.8 4.8-6.9 4.8-11.2z" fill="#daab01" stroke="#daab01"/>
<path d="m77.7 63.1c2.4-0.1 4.7-0.1 7.1-0.1 0.1 1.5 0.1 3.1 0.4 4.6 1.2 1.5 2.6 2.7 4 4.1 2.2-2.5 3.2-5.5 3-8.7 2.7 0 5.4 0 8.1 0.1-0.3 1.6-0.4 3.4-1.3 4.9-2.7 4.2-5.1 8.6-6.9 13.2-0.3 3.2-0.1 6.5-0.1 9.8h-7c0-2.9 0.2-5.9-0.1-8.8-1.7-3.4-4.2-6.5-4.8-10.3-0.5-3-2-5.8-2.4-8.8z" fill="#daab01" stroke="#daab01"/>
<path d="m85.8 80c1.7 0.8 3.5 1.5 5.3 2.2 0 2.6 0 5.3 0.1 7.9h-5.3c-0.1-3.4-0.1-6.7-0.1-10.1z" fill="#fae000" stroke="#fae000"/>
<path d="m57.6 83.4c1.8 0.5 3.7 0.9 5.5 1.3v5.3c-1.7 0.1-3.4 0.1-5.1 0.1-0.1-2.2-0.3-4.5-0.4-6.7z" fill="#fae000" stroke="#fae000"/>
<path d="m91.4 114.3c1.8-1.3 3.2 1 4.6 1.9 0.1 4.1 0.1 8.2-0.9 12.3-0.1 0.5-0.2 1.7-0.3 2.3-1.9 0.7-3.6 1.8-5.6 2.3-2.3-2.1-5.2-2.4-8.2-2.1v-8.5c3-3.3 6.4-6.3 10.4-8.2z" fill="#00a5fa" stroke="#00a5fa"/>
<path d="m59.5 116h4.1c2.3 2.4 4.4 5 7.4 6.6 0 3.3 0 6.7-0.1 10.1-1.8 0.9-3.6 1.9-5.5 2.8-1.1-0.4-2.3-0.9-3.3-1.6-1.7-2-2.9-4.3-4-6.7-1.3-2.8-1.2-5.8-1.1-8.7 0.8-0.9 1.7-1.7 2.5-2.5z" fill="#00a5fa" stroke="#00a5fa"/>
<path d="m73.4 120h5.3c0.7 0.8 1.5 1.6 2.3 2.5v8.5 1.1c-1.5 0.9-3 1.8-4.6 2.6-0.9 0.2-1.9 0.3-2.8 0.3-3 0.2-5.9 0.5-8.8 0.8l0.6-0.3c1.9-0.9 3.7-1.9 5.5-2.8 0.1-3.4 0.1-6.8 0.1-10.1 0.8-0.9 1.6-1.7 2.4-2.6z" fill="#001bc4" stroke="#001bc4"/>
<path d="m72 123.2c1.4-0.9 2.9-1.8 4.3-2.6 3.5 2.2 5.1 6.8 2.8 10.5-1.5 2.5-4.8 1.5-7.1 1.1v-9z" fill="#00a5fa" stroke="#00a5fa"/>
<path d="m76.4 134.7c1.6-0.8 3.1-1.7 4.6-2.6 5.8 1.6 11.9 3.7 15.9 8.3 0.7 4.8-5.8 6.1-9.4 5.7-3.7-3.9-7.6-7.5-11.1-11.4z" fill="#00a5fa" stroke="#00a5fa"/>
<path d="m64.8 135.8c2.9-0.3 5.8-0.6 8.8-0.8-1.5 2.7-4.1 4.5-5.3 7.3-1 2.6-2.7 4.8-4.6 6.8-3.4-2.2-6.7-4.7-10.7-5.5v-2.4c4-1.8 7.2-5.5 11.8-5.4z" fill="#00a5fa" stroke="#00a5fa"/>
<path d="m55.7 152.6c7.4-1.5 14.9-1.7 22.3-2.7 8.8-1 17.2 2.4 26 1.9 4.8-0.3 9.6 0.7 14.2 2 0 4.2 0 8.4-0.1 12.6-0.1 0.7-0.2 2.2-0.3 2.9-4.7-0.8-9.5-1.6-14.3-1.3-9.9 0.4-19.7-0.3-29.5 0.1-6.1 0.3-12.2-0.1-18.4 0-5.1 0.7-10.3 1.2-15.5 0.9-0.1-3.2-0.1-6.4-0.7-9.6-0.3-1.4-0.4-2.9-0.6-4.3 5.6-1.4 11.2-1.9 16.9-2.5z" fill="#ffc400" stroke="#ffc400"/>
<path d="m72 154h2c0 3.5 0.1 7.1-0.2 10.6-2.5-1.7-4.6-3.9-6.8-6v5.4h-2c0-3.2 0-6.4 0.2-9.6 2.5 1.7 4.6 3.9 6.8 6v-6.4z" stroke="#000"/>
<path d="m79.6 156.7c1.3-3.3 5.5-2.6 8.4-2.8v2c-2.3 0.4-5.4-0.8-6.9 1.5-0.2 1.6-0.5 3.6 1.3 4.5 2.1 0.5 4.2-0.1 6.1-1.1-1.6-0.7-3.4-1.1-4.2-2.9 1.9 0.3 4.4-0.5 5.7 1.4 0.7 2-1.2 3.3-2.2 4.7h-6.8c-1.1-2.2-3.1-4.8-1.4-7.3z" fill="#0a0701" stroke="#0a0701"/>
<path d="m95 155h2v9h-2v-9z" stroke="#000"/>
<path d="m58 156h2v9h-2v-9z" stroke="#000"/>
<path d="m104.3 156.1c1.4-0.1 2.8-0.2 4.2-0.2 0.6 1.1 1.1 2.2 1.7 3.3-1.9-0.6-3.8-1.2-5.8-1.5 1.5 1.2 3.1 2.4 4.6 3.6v3.6c-2.8 1.6-5.6 0.9-8-1v-3.2c1.6 1.1 3.2 2.1 4.8 3.3 0.3-0.4 1-1.3 1.4-1.8-1.6-0.9-3.1-1.8-4.7-2.7 0.5-1.2 0.9-2.4 1.8-3.4z" stroke="#000"/>
<path d="m44.3 157.2c3.1-0.3 6.3-0.3 9.5 0.1-0.9 1.2-2.4 1.7-3.8 2.2v6.5h-2v-6.5c-1.4-0.5-2.9-0.9-3.7-2.3z" fill="#0a0701" stroke="#0a0701"/>
<path d="m39.4 159.4c0.6 3.2 0.6 6.4 0.7 9.6 5.2 0.3 10.4-0.2 15.5-0.9l-0.8 0.5c-3.3 1.5-6.9 1.4-10.4 1.4 3.1 1.3 6.2 2.6 9 4.5l0.8 0.5c-0.5-0.2-1.5-0.4-2.1-0.6-4.4-1.3-8.7-3.4-13.1-4.9 0-2.9-0.1-5.8 0.1-8.8z" stroke="#000"/>
<path d="m21 167.9c5.9-2.7 12.2-4.4 18.1-7.2-0.2 3-0.1 5.9-0.1 8.8 4.4 1.5 8.7 3.6 13.1 4.9-6 1.2-12.3 2.1-17.9 4.9-7.5 3.6-15.9 4.3-23.7 7 0.8-3.7 3.2-6.6 5.1-9.8-3.5-0.6-7-1.2-10.4-2.2 4.9-2.9 10.6-4.2 15.8-6.4z" fill="#ffc400" stroke="#ffc400"/>
<path d="m118.1 166.4 0.6-1c0.2 1.8 0.3 3.7 0.4 5.5-5.6 1-10.8 3.1-16.1 5.2l0.9-0.7c3.5-3 8.3-3.9 12.8-5.1-4.1-0.9-8.3-1.2-12.3-1.9l-0.9-0.4c4.8-0.3 9.6 0.5 14.3 1.3 0.1-0.7 0.2-2.2 0.3-2.9z" stroke="#000"/>
<path d="m118.7 165.4c10.3 2.3 20.7 4.5 31.1 6.7 1.8 0.5 3.4 1.5 5 2.4-3.7 0.9-7.6 1.6-11.2 3 2.3 3.1 5.3 5.8 6.6 9.5-0.4 0.1-1 0.4-1.3 0.5-6.3-1.4-12.4-3.9-18.9-4.3-7.8-0.4-15.1-3.2-22.8-4.3-1.7-0.2-2.9-1.7-4.2-2.8 5.3-2.1 10.5-4.2 16.1-5.2-0.1-1.8-0.2-3.7-0.4-5.5z" fill="#ffc400" stroke="#ffc400"/>
<path d="m44.4 170c3.5 0 7.1 0.1 10.4-1.4-0.5 1.9-0.9 3.9-1.4 5.9-2.8-1.9-5.9-3.2-9-4.5z" fill="#fae000" stroke="#fae000"/>
<path d="m104.4 168.4c4 0.7 8.2 1 12.3 1.9-4.5 1.2-9.3 2.1-12.8 5.1 0.1-2.3 0.2-4.7 0.5-7z" fill="#fae000" stroke="#fae000"/>
</g>
</g>
</svg>
