<?xml version="1.0" encoding="UTF-8" standalone="no"?>
<svg
   version="1.0"
   width="900"
   height="600"
   id="svg2"
   xml:space="preserve"
   style="fill-rule:evenodd"
   sodipodi:docname="Burma_Defence_Army_Flag.svg"
   inkscape:version="1.1.1 (3bf5ae0d25, 2021-09-20)"
   inkscape:export-filename="D:\Flag\Burma Defence Army Flag.png"
   inkscape:export-xdpi="192"
   inkscape:export-ydpi="192"
   xmlns:inkscape="http://www.inkscape.org/namespaces/inkscape"
   xmlns:sodipodi="http://sodipodi.sourceforge.net/DTD/sodipodi-0.dtd"
   xmlns="http://www.w3.org/2000/svg"
   xmlns:svg="http://www.w3.org/2000/svg"
   xmlns:rdf="http://www.w3.org/1999/02/22-rdf-syntax-ns#"
   xmlns:cc="http://creativecommons.org/ns#"
   xmlns:dc="http://purl.org/dc/elements/1.1/"><sodipodi:namedview
   pagecolor="#ffffff"
   bordercolor="#666666"
   borderopacity="1"
   objecttolerance="10"
   gridtolerance="10"
   guidetolerance="10"
   inkscape:pageopacity="0"
   inkscape:pageshadow="2"
   inkscape:window-width="1920"
   inkscape:window-height="1007"
   id="namedview4848"
   showgrid="false"
   inkscape:zoom="1.3633333"
   inkscape:cx="430.1956"
   inkscape:cy="300"
   inkscape:window-x="-9"
   inkscape:window-y="-9"
   inkscape:window-maximized="1"
   inkscape:current-layer="g3012"
   inkscape:document-rotation="0"
   inkscape:pagecheckerboard="0"
   showguides="false"><sodipodi:guide
     position="160.22073,270.48945"
     orientation="1,0"
     id="guide4547" /></sodipodi:namedview><metadata
   id="metadata67"><rdf:RDF><cc:Work
       rdf:about=""><dc:format>image/svg+xml</dc:format><dc:type
         rdf:resource="http://purl.org/dc/dcmitype/StillImage" /></cc:Work></rdf:RDF></metadata><defs
   id="defs4" />
 
<path
   id="rect2968"
   style="fill:#f8c408;stroke-width:1.41421;fill-opacity:1"
   d="M 0,1.6784668e-4 H 900 V 599.99998 H 0 Z" /><path
   id="rect2966"
   style="fill:#006e3b;stroke-width:1.41421;fill-opacity:1"
   d="M 0,200.00017 H 900 V 599.99998 H 0 Z" /><path
   id="rect2964"
   style="fill:#da251d;stroke-width:0.816497;fill-opacity:1"
   d="M 0,400 H 900 V 600 H 0 Z" /><path
   id="path44328"
   style="fill:#ffffff;stroke-width:12.7515"
   d="M 650,300.00005 A 200,200.00001 0 0 1 450.00003,500.00007 200,200.00001 0 0 1 250,300.00005 200,200.00001 0 0 1 450.00003,100.00007 200,200.00001 0 0 1 650,300.00005 Z" /><g
   id="g3012"><path
     id="ellipse31800-4-6"
     style="fill:#da251d;fill-opacity:1;fill-rule:evenodd;stroke-width:4.20005"
     d="m 450.00001,102.46876 c -109.07624,0 -197.5,88.42376 -197.5,197.5 0.18675,63.38498 30.78463,122.82883 82.26144,159.813 0.58379,0.44039 1.16463,0.88088 1.75705,1.31537 3.68676,2.64304 7.4635,5.15829 11.32347,7.54126 3.52458,2.12741 7.15541,4.14042 10.92615,5.96551 28.12565,14.85715 59.4237,22.70118 91.23188,22.86486 107.32623,0 197.5,-88.42376 197.5,-197.5 0,-109.07626 -88.42377,-197.5 -197.49999,-197.5 z m 1e-5,4.53124 40.89341,40.38372 55.6066,-14.52661 15.22289,55.42004 55.42004,15.22288 -14.52696,55.60661 40.38407,40.89343 -40.38407,40.89393 14.52696,55.60611 -62.61457,16.74371 -48.5476,70.84347 c -18.14235,5.55734 -37.00643,8.40272 -55.98083,8.44391 -20.03239,-0.0997 -36.92656,-2.44975 -55.96454,-8.68369 l -48.56341,-70.60369 -62.61497,-16.74371 14.52661,-55.60611 -40.38372,-40.89393 40.38372,-40.89343 -14.52661,-55.60661 55.42004,-15.22288 15.22289,-55.42004 55.6066,14.52661 z"
     sodipodi:nodetypes="sccccccssccccccccccccccccccccccc" /><path
     id="path5336-0"
     style="fill:#d81e05;fill-opacity:1;fill-rule:evenodd;stroke:none;stroke-width:1.01399px;stroke-linecap:butt;stroke-linejoin:miter;stroke-opacity:1"
     d="m 449.99997,108.9458 -23.14261,74.05093 17.35648,17.08837 v 27.72523 c -8.73667,0.66801 -17.28009,2.91774 -25.2121,6.64055 l -13.8038,-23.91216 6.48627,-23.47628 -57.06477,-52.55736 16.9823,75.69804 23.70578,6.34932 13.70542,23.73664 c -7.21064,4.97645 -13.45511,11.22279 -18.43269,18.43269 l -23.96423,-13.83657 -6.11981,-23.5727 -75.70191,-16.98423 52.56124,57.06477 23.70192,-6.35511 23.68264,13.67457 c -3.72277,7.93198 -5.97254,16.47349 -6.64055,25.21017 h -27.72329 l -17.09031,-17.35453 -74.04706,23.14067 74.04706,23.14067 17.35262,-17.35453 27.46098,-0.002 c 0.66801,8.73668 2.91775,17.28012 6.64055,25.21211 l -23.68264,13.67457 -23.70386,-6.35511 -52.5593,57.0667 75.69998,-16.98616 6.12173,-23.57656 31.65979,-18.27839 c -7.64298,-10.66122 -11.8032,-23.4239 -11.91365,-36.5413 -10e-6,-35.14563 28.49029,-63.6359 63.63589,-63.63589 35.14561,0 63.63782,28.49026 63.63782,63.63589 -0.10961,13.11708 -4.27166,25.87977 -11.91365,36.54136 l 31.66172,18.27839 6.1198,23.57656 75.69997,16.98616 -52.5593,-57.0667 -23.70192,6.35511 -23.68651,-13.67457 c 3.7228,-7.93199 5.97448,-16.47351 6.64248,-25.21017 h 27.46292 l 17.34876,17.35453 74.05098,-23.14067 -74.05097,-23.14067 -17.08645,17.35647 H 522.0624 c -0.69776,-8.75501 -2.98469,-17.3095 -6.74857,-25.24491 l 23.62865,-13.64177 23.70192,6.35511 52.5593,-57.06477 -75.69804,16.98423 -6.12173,23.5727 -23.8678,13.78064 c -4.98532,-7.22855 -11.24461,-13.4898 -18.47319,-18.47512 l 13.64563,-23.63828 23.70579,-6.34932 16.98615,-75.69804 -57.0667,52.55736 6.48626,23.47628 -13.77099,23.85623 c -7.93543,-3.76383 -16.48987,-6.05079 -25.24491,-6.74857 v -27.29897 l 17.35454,-17.34876 z m 0,30.08403 13.01494,41.65051 h -26.03374 c 0,0 12.50978,-40.10464 13.0188,-41.65051 z m -80.34045,21.52827 c 1.21373,1.08427 32.09953,29.56328 32.09953,29.56328 l -22.5447,13.01687 z m 160.67898,0 -9.55291,42.58015 -22.5447,-13.01687 c 0,0 30.88383,-28.47901 32.09761,-29.56328 z m -219.49116,58.81218 c 1.59328,0.33212 42.58015,9.55291 42.58015,9.55291 l -13.01687,22.54471 z m 278.30526,0 -29.56713,32.09762 -13.01687,-22.54471 c 0,0 40.9907,-9.22078 42.584,-9.55291 z m -140.66281,41.90125 1.24402,18.08167 7.81513,-15.44513 z m -14.29368,16.24746 -1.04728,8.28189 -14.44605,3.7552 27.3009,5.85749 -3.35789,57.11492 -28.8593,13.33896 h -38.23476 l -17.66699,27.95859 36.78437,87.73899 25.4397,-71.05949 -7.81707,-36.39091 3.30967,-0.63841 25.5747,114.62908 -13.41031,-6.52483 -1.72813,10.39236 22.4907,2.8832 0,-74.33469 h 2.9432 l 0,74.33469 22.48877,-2.8832 -1.72812,-10.39236 -13.40839,6.52483 25.5747,-114.72166 3.30774,0.73099 -7.81514,36.39091 25.4397,71.05949 36.78437,-87.73899 -17.66699,-27.95859 h -38.23476 l -28.8593,-13.33896 -3.9365,-57.11492 3.35788,-5.18824 -2.23923,-6.87391 z m -103.22268,9.17295 v 26.03374 l -41.65436,-13.01687 c 1.54585,-0.50906 41.65436,-13.01687 41.65436,-13.01687 z m 238.05307,0 c 0,0 40.1065,12.50784 41.6525,13.01687 l -41.6525,13.01687 z m -228.61588,61.25586 13.01687,22.54663 c 0,0 -40.98688,9.22272 -42.58015,9.55483 z m 219.17485,0 29.56713,32.10146 c -1.5933,-0.3321 -42.584,-9.55483 -42.584,-9.55483 z"
     sodipodi:nodetypes="cccccccccccccccccccccccccccccccccsccccccccccccccccccccccccccccccccccccccccccccccccccccccccccccccccccccccccccccccccccccccccccccccccccccccccccc" /></g></svg>
