<?xml version="1.0" encoding="UTF-8" standalone="no"?>
<!-- Created with Inkscape (http://www.inkscape.org/) -->

<svg
   xmlns:dc="http://purl.org/dc/elements/1.1/"
   xmlns:cc="http://creativecommons.org/ns#"
   xmlns:rdf="http://www.w3.org/1999/02/22-rdf-syntax-ns#"
   xmlns:svg="http://www.w3.org/2000/svg"
   xmlns="http://www.w3.org/2000/svg"
   xmlns:xlink="http://www.w3.org/1999/xlink"
   xmlns:sodipodi="http://sodipodi.sourceforge.net/DTD/sodipodi-0.dtd"
   xmlns:inkscape="http://www.inkscape.org/namespaces/inkscape"
   version="1.0"
   width="1500"
   height="750"
   id="Flag of the United Kingdom"
   sodipodi:version="0.32"
   inkscape:version="0.48.2 r9819"
   sodipodi:docname="bca.svg"
   inkscape:output_extension="org.inkscape.output.svg.inkscape">
  <metadata
     id="metadata29">
    <rdf:RDF>
      <cc:Work
         rdf:about="">
        <dc:format>image/svg+xml</dc:format>
        <dc:type
           rdf:resource="http://purl.org/dc/dcmitype/StillImage" />
      </cc:Work>
    </rdf:RDF>
  </metadata>
  <sodipodi:namedview
     inkscape:window-height="838"
     inkscape:window-width="1600"
     inkscape:pageshadow="2"
     inkscape:pageopacity="0.0"
     guidetolerance="10.0"
     gridtolerance="10.0"
     objecttolerance="10.0"
     borderopacity="1.0"
     bordercolor="#666666"
     pagecolor="#ffffff"
     id="base"
     inkscape:zoom="0.35355339"
     inkscape:cx="799.72011"
     inkscape:cy="496.72583"
     inkscape:window-x="-8"
     inkscape:window-y="-8"
     inkscape:current-layer="Flag of the United Kingdom"
     showgrid="false"
     inkscape:window-maximized="1">
    <inkscape:grid
       type="xygrid"
       id="grid3024" />
  </sodipodi:namedview>
  <defs
     id="defs1529">
    <inkscape:perspective
       sodipodi:type="inkscape:persp3d"
       inkscape:vp_x="0 : 375 : 1"
       inkscape:vp_y="0 : 1000 : 0"
       inkscape:vp_z="1500 : 375 : 1"
       inkscape:persp3d-origin="750 : 250 : 1"
       id="perspective30" />
    <linearGradient
       id="linearGradient8000">
      <stop
         style="stop-color:#aac5ca;stop-opacity:1"
         offset="0"
         id="stop8002" />
      <stop
         style="stop-color:#2e3233;stop-opacity:1"
         offset="1"
         id="stop8004" />
    </linearGradient>
    <linearGradient
       x1="970.75116"
       y1="493.15411"
       x2="1179.8898"
       y2="493.15411"
       id="linearGradient5305"
       xlink:href="#linearGradient8000"
       gradientUnits="userSpaceOnUse" />
    <linearGradient
       inkscape:collect="always"
       xlink:href="#linearGradient8000"
       id="linearGradient2188"
       gradientUnits="userSpaceOnUse"
       x1="970.75116"
       y1="493.15411"
       x2="1179.8898"
       y2="493.15411" />
    <linearGradient
       inkscape:collect="always"
       xlink:href="#linearGradient8000"
       id="linearGradient2855"
       gradientUnits="userSpaceOnUse"
       x1="970.75116"
       y1="493.15411"
       x2="1028.1475"
       y2="493.15411" />
    <inkscape:perspective
       id="perspective3637"
       inkscape:persp3d-origin="0.5 : 0.33333333 : 1"
       inkscape:vp_z="1 : 0.5 : 1"
       inkscape:vp_y="0 : 1000 : 0"
       inkscape:vp_x="0 : 0.5 : 1"
       sodipodi:type="inkscape:persp3d" />
  </defs>
  <path
     id="rect1358"
     style="fill:#00247d;fill-opacity:1;fill-rule:nonzero;stroke:none;stroke-width:2.45583487;stroke-miterlimit:4;stroke-opacity:1"
     d="M 0,0 L 1500,0 L 1500,750 L 0,750 L 0,0 z " />
  <path
     id="upper_left_white"
     style="fill:#ffffff"
     d="M 0,0 L 83.85255,0 L 312.5,114.32372 L 312.5,0 L 337.5,0 L 375,162.5 L 0,150 L 0,125 L 166.14745,125 L 0,41.926274 L 0,0 z " />
  <path
     id="use1521"
     style="fill:#ffffff"
     d="M 750,0 L 666.14745,0 L 437.5,114.32372 L 437.5,0 L 412.5,0 L 375,162.5 L 750,150 L 750,125 L 583.85255,125 L 750,41.926274 L 750,0 z " />
  <path
     id="upper_red_diagonals"
     style="fill:#cf142b"
     d="M 0,0 L 250,125 L 194.0983,125 L 0,27.95085 L 0,0 z M 750,0 L 500,125 L 444.0983,125 L 694.0983,0 L 750,0 z " />
  <path
     id="polygon5819"
     style="fill:#ffffff"
     d="M 750,375 L 666.14745,375 L 437.5,260.67628 L 437.5,375 L 412.5,375 L 375,212.5 L 750,225 L 750,250 L 583.85255,250 L 750,333.07373 L 750,375 z " />
  <path
     id="use5821"
     style="fill:#ffffff"
     d="M 0,375 L 83.85255,375 L 312.5,260.67628 L 312.5,375 L 337.5,375 L 375,212.5 L 0,225 L 0,250 L 166.14745,250 L 0,333.07373 L 0,375 z " />
  <path
     id="path5823"
     style="fill:#cf142b"
     d="M 750,375 L 500,250 L 555.9017,250 L 750,347.04915 L 750,375 z M 0,375 L 250,250 L 305.9017,250 L 55.9017,375 L 0,375 z " />
  <path
     id="path1526"
     style="fill:#cf142b"
     d="M 337.5,0 L 412.5,0 L 412.5,150 L 750,150 L 750,225 L 412.5,225 L 412.5,375 L 337.5,375 L 337.5,225 L 0,225 L 0,150 L 337.5,150 L 337.5,0 z " />
  <g
     id="g3438"
     transform="matrix(3.468,0,0,3.468,-4850.1117,-719.16959)">
    <path
       inkscape:connector-curvature="0"
       id="path3026-1"
       d="m 1771.11,315.69195 c 0,26.23353 -21.2664,47.5 -47.5,47.5 -26.2335,0 -47.5,-21.26647 -47.5,-47.5 0,-26.23353 21.2665,-47.5 47.5,-47.5 26.2336,0 47.5,21.26647 47.5,47.5 z"
       style="color:#000000;fill:#ffffff;fill-opacity:1;fill-rule:nonzero;stroke:none;stroke-width:0.80000001;marker:none;visibility:visible;display:inline;overflow:visible;enable-background:accumulate" />
    <path
       sodipodi:nodetypes="ccsscc"
       inkscape:connector-curvature="0"
       id="path3393-6"
       d="m 1771.4278,305.35541 -0.7961,0.39593 c 0.6881,3.22773 1.0502,6.576 1.0502,10.00875 0,26.40646 -21.427,47.81312 -47.8587,47.81312 -10.5628,0 -20.3265,-3.4187 -28.4448,-9.24784 z"
       style="fill:#000000;stroke:none" />
    <path
       sodipodi:nodetypes="ssccs"
       inkscape:connector-curvature="0"
       id="path3026"
       d="m 1676.11,315.69195 c 0,-26.23353 21.2665,-47.5 47.5,-47.5 11.2364,0 21.5615,3.90151 29.5593,10.40184 l -75.7256,48.63763 c -0.8399,-3.66013 -1.3337,-7.54214 -1.3337,-11.53947 z"
       style="color:#000000;fill:#ffcc00;fill-opacity:1;fill-rule:nonzero;stroke:none;stroke-width:0.80000001;marker:none;visibility:visible;display:inline;overflow:visible;enable-background:accumulate" />
    <g
       id="g3347">
      <path
         style="fill:#976935;fill-opacity:1;stroke:none"
         d="m 1726.2197,347.21935 c -1.5409,0 -4.7414,-0.59268 -4.7414,-0.59268 0,0 0.7113,-2.37069 0.8298,-3.0819 0.1185,-0.7112 0.3556,-5.92673 0.3556,-6.5194 0,-0.59267 0.237,-28.80391 0.3556,-29.27805 0.1185,-0.47414 0,-5.33406 0,-7.23062 0,-1.89655 -0.1185,-4.14871 -0.1185,-6.1638 0,-2.01509 0.3556,-3.4375 0.3556,-3.4375 l 0.4741,23.944 0.8297,20.03235 c 0,0 0.3556,8.65302 0.3556,9.12716 0,0.47414 1.3039,3.20044 1.3039,3.20044 z"
         id="path3029"
         inkscape:connector-curvature="0"
         sodipodi:nodetypes="ccsscsscccsc" />
      <path
         style="color:#000000;fill:#c1041d;fill-opacity:1;fill-rule:nonzero;stroke:none;stroke-width:0.80000001;marker:none;visibility:visible;display:inline;overflow:visible;enable-background:accumulate"
         d="m 1720.175,334.60733 c 0,0.53469 -0.4335,0.96813 -0.9682,0.96813 -0.5347,0 -0.9681,-0.43344 -0.9681,-0.96813 0,-0.53468 0.4334,-0.96813 0.9681,-0.96813 0.5347,0 0.9682,0.43345 0.9682,0.96813 z"
         id="path3031"
         inkscape:connector-curvature="0" />
      <path
         style="fill:#02740e;fill-opacity:1;stroke:none"
         d="m 1723.0793,292.71953 c -0.065,-0.83905 0.3872,-0.83905 -0.3227,-1.54901 -0.71,-0.70996 -1.0327,-0.77451 -1.6136,-1.80718 -0.5808,-1.03267 -1.1617,-2.38806 -1.1617,-2.38806 0,0 0.9036,0.51634 1.3554,0 0.4517,-0.51633 0.9681,-2.32351 1.2908,-2.12988 0.3227,0.19362 0.839,1.16175 1.0972,1.09721 0.2582,-0.0645 0.5809,-0.64542 1.1618,-0.51633 0.5808,0.12908 0.3227,0.90358 0.7099,1.09721 0.3873,0.19363 2.0654,-0.90359 2.0654,-0.12908 0,0.7745 0.3227,0.90358 -0.71,1.74263 -1.0327,0.83905 -0.9681,0.77451 -1.7426,1.74264 -0.7745,0.96813 -0.8391,0.7745 -1.1618,1.67809 -0.3227,0.90359 -0.5809,1.16176 -0.5809,1.16176 z m -0.1291,2.64622 c 0.5163,-0.70996 1.3554,-1.87172 1.3554,-1.87172 0.9681,-0.90359 2.3235,-1.29084 2.3235,-1.29084 1.0327,-0.12908 2.4526,-0.12908 2.4526,-0.12908 0.5809,0.70996 1.0972,1.74263 1.0972,1.74263 0.4518,1.16176 1.6136,2.4526 1.6136,2.4526 1.1617,-0.38725 1.3554,-1.48447 1.3554,-1.48447 -0.1937,-0.51633 0.1936,-0.64542 0.1936,-0.64542 0.1936,-0.25817 0,-0.96813 0,-0.96813 0.2581,-0.32271 0.9036,-1.29084 0.9036,-1.29084 -0.3873,-0.64542 -0.6455,-0.7745 -0.6455,-0.7745 0.3873,-0.77451 0.1937,-1.93627 0.1937,-1.93627 -0.8391,-0.32271 -2.0654,0.12909 -2.0654,0.12909 -0.7099,0.45179 -1.4199,1.09721 -1.4199,1.09721 -1.0972,0.19363 -2.4526,0.4518 -2.4526,0.4518 -0.839,0.0645 -1.6781,0.32271 -1.6781,0.32271 -0.9036,0.51633 -1.4845,1.09721 -1.4845,1.09721 -0.6454,0.83905 -1.1617,1.54901 -1.1617,1.54901 -0.1291,0.32271 -0.5809,1.54901 -0.5809,1.54901 z m -0.1291,-0.12908 c -0.064,-0.38725 -0.3872,-1.09722 -0.3872,-1.09722 -0.6455,-0.45179 -1.4845,-1.2263 -1.4845,-1.2263 -0.71,-0.58087 -1.3554,-1.16175 -1.3554,-1.16175 -0.2581,-0.58088 -0.5163,-1.54901 -0.5163,-1.54901 -0.5164,-0.90359 -1.9363,-2.19443 -1.9363,-2.19443 -0.5809,-0.64542 -0.7745,-0.58088 -0.7745,-0.58088 -0.064,0.96813 -0.064,1.48447 -0.064,1.48447 -0.7745,0.32271 -1.4845,0.70996 -1.4845,0.70996 -0.1936,0.58088 0.2582,1.2263 0.2582,1.2263 0.1291,0.32271 -0.5164,0.90359 -0.5164,0.90359 l 0.5809,0.83904 c 0.2582,0.12909 0.4518,0.51634 0.4518,0.51634 -0.2582,0.70996 -0.4518,1.54901 -0.4518,1.54901 0.4518,0.70996 0.9681,1.2263 0.9681,1.2263 0.6455,-0.77451 1.9363,-1.87172 1.9363,-1.87172 0.6454,-0.38725 1.4199,-0.70996 1.4199,-0.70996 0.4518,-0.0645 1.2909,0.25816 1.2909,0.25816 0.5809,0.4518 1.6781,1.29085 2.0653,1.6781 z m 0.5164,9.55222 c 0.3872,-1.09721 1.4844,-2.51714 1.4844,-2.51714 l 0.7745,0.19363 c 0.9682,0.19362 2.0654,0.38725 2.0654,0.38725 0.9681,0.19363 1.8717,-0.64542 1.8717,-0.64542 0.839,0 1.7426,-0.45179 1.7426,-0.45179 -0.064,-0.4518 0.9036,-0.96814 0.9036,-0.96814 0.8391,-0.58087 1.2263,-1.16175 1.2263,-1.16175 0.7745,-0.4518 -0.064,-1.54901 -0.064,-1.54901 -1.2909,0 -1.8072,0.12908 -1.8072,0.12908 -0.839,-1.03267 -2.0008,-1.2263 -2.0008,-1.2263 -0.6454,1.03268 -0.9681,1.6781 -0.9681,1.6781 -0.9036,0.19362 -1.2263,0 -1.2263,0 -0.6455,-0.64542 -1.4845,-0.83905 -1.4845,-0.83905 -0.9681,1.09721 -0.9681,1.93626 -0.9681,1.93626 -0.6455,0.83905 -1.0327,1.48447 -1.0327,1.48447 -0.1291,0.70996 -0.3227,3.2271 -0.5163,3.54981 z m 0.3227,-2.0008 c -0.4518,-0.83905 -0.8391,-1.48447 -0.8391,-1.48447 -0.1936,-1.03267 -0.6454,-2.25897 -0.6454,-2.25897 l -0.71,1.67809 c -0.5163,-0.19362 -0.5808,-1.67809 -0.5808,-1.67809 -0.1291,-1.2263 -1.549,-3.09802 -1.549,-3.09802 -0.3228,0.70996 -1.1618,2.0008 -1.1618,2.0008 -0.1291,-0.38725 -0.5163,-1.35538 -0.5163,-1.35538 -0.3873,0 -1.0327,0.0645 -1.0327,0.0645 -1.3554,-1.35538 -2.1299,-0.96813 -2.1299,-0.96813 -0.6454,0.70996 -1.1618,1.80718 -1.1618,1.80718 -0.4518,0.12908 -1.0326,0.58088 -1.0326,0.58088 -0.1937,0.83904 1.1617,1.54901 1.1617,1.54901 0.8391,0.25817 1.1618,0.32271 1.1618,0.32271 0.7745,0.90359 1.9362,1.03267 1.9362,1.03267 0.8391,0.12908 1.3554,0.77451 1.3554,0.77451 0.1291,0.90358 1.6781,1.09721 1.6781,1.09721 1.0972,0.25817 2.0008,0.70996 2.0008,0.70996 0.2582,1.16176 0.9036,1.2263 0.9036,1.2263 z m -1.0972,10.77852 c -0.9036,-0.64542 -1.5491,-1.2263 -1.5491,-1.2263 -0.9681,-1.03267 -1.9362,-1.93626 -1.9362,-1.93626 -1.4845,-0.45179 -2.5172,-1.2263 -2.5172,-1.2263 -1.6135,-0.38725 -2.4526,-1.09721 -2.4526,-1.09721 -0.9035,-1.03268 -1.549,-1.6781 -1.549,-1.6781 -0.9036,-0.38725 -2.0653,-0.90359 -2.0653,-0.90359 -1.8717,-0.38725 -2.7108,-0.7745 -2.7108,-0.7745 -0.7099,-0.90359 -0.7745,-0.90359 -0.7745,-0.90359 -0.3872,-0.64542 0.065,-1.35538 0.065,-1.35538 1.6135,-0.12909 2.9044,-0.70996 2.9044,-0.70996 1.7426,0.12908 3.3561,0.70996 3.3561,0.70996 1.9363,1.09721 2.8399,1.67809 2.8399,1.67809 0.5163,0.77451 1.0327,1.2263 1.0327,1.2263 0.7745,0.77451 1.7426,1.80718 1.7426,1.80718 0.5163,0.70996 1.0327,1.09721 1.0327,1.09721 0.9681,1.16176 1.2908,1.87172 1.2908,1.87172 0.3873,0.90359 0.71,1.35539 0.71,1.35539 0.3872,0.64542 0.7099,1.74263 0.7099,1.74263 z m 2.3235,-3.6789 c -1.6136,-0.0645 -2.6463,-0.45179 -2.6463,-0.45179 -1.4844,-0.51634 -1.678,-0.96813 -1.678,-0.96813 1.1617,-1.09722 2.1944,-1.54901 2.1944,-1.54901 -0.065,-0.25817 -0.1291,-1.03267 -0.1291,-1.03267 0,-0.83905 0.1291,-2.38806 0.1291,-2.38806 0.064,-0.38725 0.9681,-1.09721 0.9681,-1.09721 0.1291,1.48446 0.71,2.71076 0.71,2.71076 0.7099,0.83905 1.8717,1.61355 1.8717,1.61355 0.5163,0.58088 0.4518,1.48447 0.4518,1.48447 -0.71,0.96813 -1.1618,1.61355 -1.1618,1.61355 -0.3872,0 -0.7099,0.0645 -0.7099,0.0645 z m 3.8725,-7.42233 c 0.5163,0.38725 1.9363,1.2263 1.9363,1.2263 -0.2582,0.7745 -0.8391,1.48446 -0.8391,1.48446 -0.3872,0.64542 0.9036,1.74264 0.9036,1.74264 1.8072,-0.58088 1.8717,-0.12908 1.8717,-0.12908 0.5164,0.96813 1.8072,1.35538 1.8072,1.35538 1.0327,-0.38725 1.7426,-0.90359 1.7426,-0.90359 0.065,-1.48447 1.0972,-1.93626 1.0972,-1.93626 1.1618,-0.70996 1.0973,-1.29084 1.0973,-1.29084 2.0008,-1.09722 2.1944,-3.35619 2.1944,-3.35619 -1.2263,-0.70996 -2.9044,-0.32271 -2.9044,-0.32271 -1.9363,2.25897 -3.4207,2.64622 -3.4207,2.64622 -1.6781,0.58088 -2.3235,0.4518 -2.3235,0.4518 -0.71,-0.4518 -1.6136,-0.90359 -1.6136,-0.90359 -0.71,-0.25817 -1.7426,-0.51634 -1.7426,-0.51634 z m -4.7761,12.77933 c -0.4518,-0.25817 -1.0327,-1.09722 -1.0327,-1.09722 -0.7745,-0.64542 -0.71,-1.80718 -0.71,-1.80718 0.2582,-1.2263 1.42,-1.67809 1.42,-1.67809 0.5808,0 1.2263,0.51634 1.2263,0.51634 0.839,0.12908 1.2263,0.25816 1.2263,0.25816 0.2581,1.54901 -0.4518,2.51714 -0.4518,2.51714 -0.3227,0.64542 -1.3554,1.29085 -1.3554,1.29085 -0.1936,0 -0.3227,0 -0.3227,0 z m 7.745,-4.58249 c -0.3227,-0.19363 -2.0008,-0.19363 -2.0008,-0.19363 -0.2581,0.25817 -0.839,0.90359 -0.839,0.90359 -0.2582,0.38725 -0.2582,1.03267 -0.2582,1.03267 0,0.51634 0.3227,1.2263 0.3227,1.2263 1.2909,0.0645 2.3235,-0.19362 2.3235,-0.19362 0.2582,1.54901 0.9682,2.25897 0.9682,2.25897 1.2908,0.12908 2.1299,-1.03267 2.1299,-1.03267 0,-0.58088 0.4517,-0.77451 0.4517,-0.77451 0.3228,0 0.5164,0 0.5164,0 0.1936,1.35539 0.6454,2.64623 0.6454,2.64623 0.9681,0.70996 2.7108,1.03267 2.7108,1.03267 0,-1.09722 -0.6455,-3.35619 -0.6455,-3.35619 -0.065,-0.38725 0.2582,-1.2263 0.2582,-1.2263 0.3873,-0.19362 1.0327,0.32271 1.0327,0.32271 0.71,1.09722 1.7426,1.61356 1.7426,1.61356 1.0972,0.38725 2.0654,0.45179 2.0654,0.45179 0.6454,-0.96813 0.9681,-1.67809 0.9681,-1.67809 0.3873,0.51633 1.2908,0.90358 1.2908,0.90358 -0.065,0.25817 -0.3227,2.12989 -0.3227,2.12989 0.5809,0.64542 3.0981,0.64542 3.0981,0.64542 0.5808,-0.90359 1.0972,-2.77531 1.0972,-2.77531 -0.9036,-1.03267 -2.259,-1.48446 -2.259,-1.48446 -1.0972,0 -2.1944,0 -2.1944,0 -0.5164,-0.25817 -1.4845,-1.09722 -1.4845,-1.09722 -0.3873,-0.19362 0.065,-1.29084 0.065,-1.29084 0.9036,-0.12908 1.9363,-1.61355 1.9363,-1.61355 -0.4518,-1.74264 -2.8399,-3.35619 -2.8399,-3.35619 -1.678,0.32271 -2.1944,1.93626 -2.1944,1.93626 0.3227,1.2263 0.7745,3.35619 0.7745,3.35619 0,0.77451 -0.5809,1.29084 -0.5809,1.29084 -1.0326,0.25817 -2.2589,-0.7745 -2.2589,-0.7745 -0.1937,-0.51634 -1.42,-1.03267 -1.42,-1.03267 -1.4199,0.96813 -1.9362,2.25897 -1.9362,2.25897 -1.0327,0.38725 -1.6781,0.45179 -1.6781,0.45179 -0.5163,-0.51633 -0.7745,-0.90359 -0.7745,-0.90359 -0.2582,-0.64542 -0.71,-1.67809 -0.71,-1.67809 z m -10.5849,8.00321 c 0.4518,-1.80717 0.5809,-3.16256 0.5809,-3.16256 -0.1936,-1.2263 -0.71,-1.41992 -0.71,-1.41992 -0.7099,0.32271 -1.678,-0.64542 -1.678,-0.64542 -0.1937,-1.03268 -2.1945,-1.2263 -2.1945,-1.2263 -0.2581,0.0645 -0.9681,-2.51714 -0.9681,-2.51714 -0.4518,-0.0645 -1.8717,1.41992 -1.8717,1.41992 l -0.71,-1.87172 c -1.0327,0.58088 -1.4199,0.70997 -1.4199,0.70997 -2.7753,-1.41993 -2.9044,-1.61355 -2.9044,-1.61355 -1.8072,-0.90359 -2.3235,-0.96814 -2.3235,-0.96814 -1.4845,-0.12908 -2.3235,0.38726 -2.3235,0.38726 -0.8391,-0.12909 -2.3236,-0.83905 -2.3236,-0.83905 -1.0326,-0.0645 -1.7426,0.90359 -1.7426,0.90359 -0.3872,0.7745 -0.9036,1.87172 -0.9036,1.87172 1.0972,1.09721 2.5172,1.41992 2.5172,1.41992 1.549,-0.32271 2.0653,-0.38725 2.0653,-0.38725 1.3554,0.64542 3.6789,0.70996 3.6789,0.70996 0.5163,-0.19362 0.5163,0.38726 0.5163,0.38726 -0.3872,0.90359 -0.1936,2.0008 -0.1936,2.0008 0.7745,0.38725 2.259,0.64542 2.259,0.64542 1.2908,-0.45179 2.3235,-0.96813 2.3235,-0.96813 0.2582,-0.0645 0.7745,0.32271 0.7745,0.32271 1.0327,1.03267 2.9689,1.35538 2.9689,1.35538 0.4518,0 1.4845,0.70997 1.4845,0.70997 0.3873,0.38725 0.7745,1.03267 0.7745,1.03267 0.8391,0.7745 1.4845,1.03267 1.4845,1.03267 0.4518,0.32271 0.839,0.70996 0.839,0.70996 z m 8.8423,6.00242 c -0.4518,-0.90359 -0.6454,-2.25898 -0.6454,-2.25898 0.5808,-0.7745 1.1617,-0.90359 1.1617,-0.90359 1.4845,1.03268 2.3235,-0.32271 2.3235,-0.32271 0.4518,-1.29084 1.1618,-1.29084 1.1618,-1.29084 0.71,0.90359 1.3554,1.09722 1.3554,1.09722 0.5163,-0.90359 1.2263,-2.32352 1.2263,-2.32352 l 1.1617,0.96814 c 0.8391,0.90358 2.259,0.90358 2.259,0.90358 0.8391,-0.96813 1.7426,-1.41992 1.7426,-1.41992 0.6455,0.38725 1.42,0.90359 1.42,0.90359 1.2263,-0.25817 2.5171,-1.09722 2.5171,-1.09722 1.7426,0.77451 3.2917,0.83905 3.2917,0.83905 0.3872,0.45179 -0.1291,2.38806 -0.1291,2.38806 -0.71,0.90358 -2.4526,0.90358 -2.4526,0.90358 -1.8072,-0.32271 -3.6144,-0.96813 -3.6144,-0.96813 -1.6781,0.64542 -2.4526,0.96813 -2.4526,0.96813 -1.8717,-0.32271 -2.9044,-0.45179 -2.9044,-0.45179 -0.7099,0.96813 -2.7753,2.06535 -2.7753,2.06535 -1.549,0.0645 -2.5817,0.0645 -2.5817,0.0645 -0.5163,0 -2.0653,-0.0645 -2.0653,-0.0645 z m -6.9706,1.74263 c -0.7745,-0.96813 -1.4199,-1.93626 -1.4199,-1.93626 -0.5163,-1.93626 -0.9036,-3.16256 -0.9036,-3.16256 -0.7745,-0.51634 -1.2263,-0.38725 -1.2263,-0.38725 -2.2589,-1.54901 -2.4526,-1.80718 -2.4526,-1.80718 -1.0972,-1.41993 -1.6781,-1.48447 -1.6781,-1.48447 -2.5171,-0.38725 -3.8079,-0.70996 -3.8079,-0.70996 -2.259,-0.51634 -3.3562,-0.77451 -3.3562,-0.77451 -1.1618,0.51634 -3.0335,0.96813 -3.0335,0.96813 -1.1618,0.0645 -2.1299,0.38726 -2.1299,0.38726 -1.6135,0.64542 -3.8725,0.51633 -3.8725,0.51633 -0.7745,1.09722 0.064,1.74264 0.064,1.74264 0.71,0.64542 2.0008,0.96813 2.0008,0.96813 1.1618,0.0645 3.2271,-0.25817 3.2271,-0.25817 2.3881,-0.12908 5.1634,0.19363 5.1634,0.19363 1.2908,0.70996 4.1952,1.35538 4.1952,1.35538 2.3235,-0.12908 3.808,0.0645 3.808,0.0645 0.9681,0.90359 2.9044,1.6781 2.9044,1.6781 0.71,0.64542 1.4845,1.87172 1.4845,1.87172 0.1291,0.38725 1.0326,0.7745 1.0326,0.7745 z m -4.5824,0.90359 c 0.064,-0.25817 0.1936,-2.25897 0.1936,-2.25897 -1.0972,-0.70996 -2.9689,-1.48447 -2.9689,-1.48447 -1.9363,0.19363 -6.777,-0.83905 -6.777,-0.83905 -1.4844,0.83905 -4.8406,-0.25816 -4.8406,-0.25816 -1.1618,0.38725 -1.6136,0.70996 -1.6136,0.70996 -1.8717,-0.19363 -2.0653,-0.19363 -2.0653,-0.19363 -0.1936,2.06535 0.1936,2.51714 0.1936,2.51714 0.8391,0.90359 2.5172,1.2263 2.5172,1.2263 1.678,-0.51634 2.4526,-0.64542 2.4526,-0.64542 2.3235,0.64542 4.0016,-0.25817 4.0016,-0.25817 1.0972,0.32271 3.6143,0.51634 3.6143,0.51634 0.3873,-0.0645 3.5498,0.64542 3.5498,0.64542 0.7745,0.12908 1.7427,0.32271 1.7427,0.32271 z m 11.1657,2.83985 c -0.3227,-0.51634 -0.9036,-2.0008 -0.9036,-2.0008 0.3873,-0.58088 1.3554,-1.09722 1.3554,-1.09722 0.7745,-0.58088 1.2909,-1.09721 1.2909,-1.09721 0.5163,0.51633 1.8717,0.51633 1.8717,0.51633 0.7745,-0.70996 1.9363,-0.70996 1.9363,-0.70996 0.4517,0.12908 1.4199,0.19363 1.4199,0.19363 0.9681,-0.90359 1.8717,-1.87172 1.8717,-1.87172 0.5163,0.12908 2.259,0.90359 2.259,0.90359 0.4518,0 2.0653,-0.4518 2.0653,-0.4518 1.0972,-0.0645 3.8725,-0.32271 3.8725,-0.32271 1.2263,0.0645 2.1299,0.51634 2.1299,0.51634 0.6454,0.70996 0.4518,1.61355 0.4518,1.61355 -0.5163,0.38725 -1.7426,1.16176 -1.7426,1.16176 -0.1936,0.70996 -0.2582,1.61355 -0.2582,1.61355 -1.1617,1.2263 -2.1299,1.35538 -2.1299,1.35538 -0.7745,-1.16176 -1.8717,-2.83985 -1.8717,-2.83985 -1.4845,0.19363 -2.4526,0.19363 -2.4526,0.19363 -1.4845,0.58087 -2.7753,0.51633 -2.7753,0.51633 -1.0327,0 -1.6135,0.12909 -1.6135,0.12909 -1.7427,1.16175 -2.9044,1.29084 -2.9044,1.29084 -2.4526,0.19362 -3.4853,0.19362 -3.8726,0.38725 z m -13.6183,1.61355 c 0.9036,-0.45179 1.6135,-1.35538 1.6135,-1.35538 -0.9681,-1.2263 -1.9362,-2.12989 -1.9362,-2.12989 -3.2917,-0.7745 -3.5499,-0.7745 -3.5499,-0.7745 l -0.6454,-0.25817 c -1.2263,1.67809 -1.8072,1.93626 -1.8072,1.93626 -0.6454,-0.19363 -1.8717,-2.06535 -1.8717,-2.06535 -1.0326,-0.12908 -1.9362,0.90359 -1.9362,0.90359 -0.5809,0.25817 -2.0654,0.38725 -2.0654,0.38725 -0.3872,1.41993 -0.7099,2.38806 -0.7099,2.38806 0.064,1.09722 0.9681,0.83905 0.9681,0.83905 1.0327,-0.96813 2.4526,-1.48447 2.4526,-1.48447 0.5809,0.70996 1.6781,1.29084 1.6781,1.29084 1.4844,0.0645 2.2589,0 2.2589,0 1.42,0 2.8399,-0.19362 2.8399,-0.19362 0.3873,0 3.1626,0.38725 2.7108,0.51633 z m -5.0343,1.6781 c -0.9681,0.19362 -1.2909,0.19362 -1.2909,0.19362 -0.9035,0 -1.9362,-0.12908 -1.9362,-0.12908 -0.5809,-0.0645 -0.71,0.19362 -0.71,0.19362 0,0.70997 0.1936,1.16176 0.1936,1.16176 -0.5808,0.58088 -1.4844,1.03267 -1.4844,1.03267 -1.4845,0.12909 -2.8399,-0.19362 -2.8399,-0.19362 -0.1291,-0.51634 0.2582,-2.38806 0.2582,-2.38806 1.4199,-1.16176 3.4207,-1.80718 3.4207,-1.80718 0.5164,-0.0645 2.259,0.32271 2.259,0.32271 1.4199,0.19363 2.9044,0.25817 2.9044,0.25817 0.5809,0.51634 1.6781,1.54901 1.6781,1.54901 0,0.96813 -1.3554,2.32352 -1.3554,2.32352 -0.9036,0.96813 -2.3235,1.09721 -2.3235,1.09721 -1.4845,-0.38725 -1.4845,-1.61355 -1.4845,-1.61355 0.9036,-0.64542 2.0008,-1.09722 2.0008,-1.09722 0.4518,-0.45179 0.71,-0.90358 0.71,-0.90358 z m 6.906,4.58248 c 0.4518,-0.58088 -1.0972,-3.09802 -1.0972,-3.09802 -0.7745,-0.32271 -2.0008,1.35539 -2.0008,1.35539 -0.9682,1.35538 -2.1299,1.35538 -2.1299,1.35538 -0.8391,0.0645 -2.259,-0.58088 -2.259,-0.58088 -0.5809,0.70996 -1.2263,1.41993 -1.2263,1.41993 -0.839,0.58087 -2.1944,0.90358 -2.1944,0.90358 -1.0972,0.58088 -2.259,1.35539 -2.259,1.35539 -0.3872,1.09721 0.4518,2.0008 0.4518,2.0008 2.3235,0.0645 3.8725,-0.70996 3.8725,-0.70996 1.4199,-0.77451 3.098,-1.29084 3.098,-1.29084 -0.064,1.16175 0.2582,2.0008 0.2582,2.0008 1.6781,0.38725 2.7753,-0.12908 2.7753,-0.12908 1.0972,-0.83905 1.8717,-1.87172 1.8717,-1.87172 -0.129,-0.4518 -0.7745,-0.77451 -0.7745,-0.77451 0.8391,-1.48446 1.6136,-1.93626 1.6136,-1.93626 z m 10.004,-0.0645 c -0.5809,-0.12908 -1.4845,-0.83905 -1.4845,-0.83905 0,-1.2263 1.6781,-2.12989 1.6781,-2.12989 0.71,-0.64542 1.8717,-2.06534 1.8717,-2.06534 1.1618,-0.58088 1.8718,-0.77451 1.8718,-0.77451 0.5808,0.25817 2.4526,0.32271 2.4526,0.32271 1.6135,-0.7745 2.6462,-0.90358 2.6462,-0.90358 1.3554,0.25816 2.7108,-0.83905 2.7108,-0.83905 0.4518,-0.83905 2.0008,-0.96813 2.0008,-0.96813 0.5163,0.45179 0.9681,1.61355 0.9681,1.61355 1.1617,0.25817 2.9689,0.38725 2.9689,0.38725 0.4518,0.58088 0.7745,1.35539 0.7745,1.35539 -1.2263,1.67809 -3.098,2.12988 -3.098,2.12988 -0.839,-0.51633 -1.8072,-1.16175 -1.8072,-1.16175 -0.3872,-0.32271 0.1937,-1.35539 0.1937,-1.35539 l -1.6781,0.90359 c -0.5809,0.25817 -1.549,0.51634 -1.549,0.51634 -0.8391,0 -1.1618,0.70996 -1.1618,0.70996 -0.2582,0.45179 -2.5171,0.90359 -2.5171,0.90359 -1.1618,0.12908 -2.1945,0.7745 -2.1945,0.7745 -1.2908,0.83905 -2.5817,1.61356 -2.5817,1.61356 -0.839,0 -1.4844,0 -1.4844,0"
         id="path3034"
         inkscape:connector-curvature="0" />
      <path
         style="color:#000000;fill:#c1041d;fill-opacity:1;fill-rule:nonzero;stroke:none;stroke-width:0.80000001;marker:none;visibility:visible;display:inline;overflow:visible;enable-background:accumulate"
         d="m 1720.9494,334.09099 c 0,0.53469 -0.4335,0.96813 -0.9682,0.96813 -0.5347,0 -0.9681,-0.43344 -0.9681,-0.96813 0,-0.53468 0.4334,-0.96813 0.9681,-0.96813 0.5347,0 0.9682,0.43345 0.9682,0.96813 z"
         id="path3031-1"
         inkscape:connector-curvature="0" />
      <path
         style="color:#000000;fill:#c1041d;fill-opacity:1;fill-rule:nonzero;stroke:none;stroke-width:0.80000001;marker:none;visibility:visible;display:inline;overflow:visible;enable-background:accumulate"
         d="m 1721.9821,333.70373 c 0,0.53469 -0.4335,0.96813 -0.9682,0.96813 -0.5347,0 -0.9681,-0.43344 -0.9681,-0.96813 0,-0.53468 0.4334,-0.96813 0.9681,-0.96813 0.5347,0 0.9682,0.43345 0.9682,0.96813 z"
         id="path3031-7"
         inkscape:connector-curvature="0" />
      <path
         style="color:#000000;fill:#c1041d;fill-opacity:1;fill-rule:nonzero;stroke:none;stroke-width:0.80000001;marker:none;visibility:visible;display:inline;overflow:visible;enable-background:accumulate"
         d="m 1723.1439,333.9619 c 0,0.53469 -0.4335,0.96813 -0.9682,0.96813 -0.5347,0 -0.9681,-0.43344 -0.9681,-0.96813 0,-0.53468 0.4334,-0.96813 0.9681,-0.96813 0.5347,0 0.9682,0.43345 0.9682,0.96813 z"
         id="path3031-4"
         inkscape:connector-curvature="0" />
      <path
         style="color:#000000;fill:#c1041d;fill-opacity:1;fill-rule:nonzero;stroke:none;stroke-width:0.80000001;marker:none;visibility:visible;display:inline;overflow:visible;enable-background:accumulate"
         d="m 1726.1128,333.83282 c 0,0.53469 -0.4335,0.96813 -0.9682,0.96813 -0.5347,0 -0.9681,-0.43344 -0.9681,-0.96813 0,-0.53468 0.4334,-0.96813 0.9681,-0.96813 0.5347,0 0.9682,0.43345 0.9682,0.96813 z"
         id="path3031-0"
         inkscape:connector-curvature="0" />
      <path
         style="color:#000000;fill:#c1041d;fill-opacity:1;fill-rule:nonzero;stroke:none;stroke-width:0.80000001;marker:none;visibility:visible;display:inline;overflow:visible;enable-background:accumulate"
         d="m 1727.7909,333.76828 c 0,0.53469 -0.4335,0.96813 -0.9682,0.96813 -0.5347,0 -0.9681,-0.43344 -0.9681,-0.96813 0,-0.53468 0.4334,-0.96813 0.9681,-0.96813 0.5347,0 0.9682,0.43345 0.9682,0.96813 z"
         id="path3031-9"
         inkscape:connector-curvature="0" />
      <path
         style="color:#000000;fill:#c1041d;fill-opacity:1;fill-rule:nonzero;stroke:none;stroke-width:0.80000001;marker:none;visibility:visible;display:inline;overflow:visible;enable-background:accumulate"
         d="m 1728.9526,333.76828 c 0,0.53469 -0.4335,0.96813 -0.9682,0.96813 -0.5347,0 -0.9681,-0.43344 -0.9681,-0.96813 0,-0.53468 0.4334,-0.96813 0.9681,-0.96813 0.5347,0 0.9682,0.43345 0.9682,0.96813 z"
         id="path3031-48"
         inkscape:connector-curvature="0" />
      <path
         style="color:#000000;fill:#c1041d;fill-opacity:1;fill-rule:nonzero;stroke:none;stroke-width:0.80000001;marker:none;visibility:visible;display:inline;overflow:visible;enable-background:accumulate"
         d="m 1729.9207,332.67106 c 0,0.53469 -0.4335,0.96813 -0.9682,0.96813 -0.5347,0 -0.9681,-0.43344 -0.9681,-0.96813 0,-0.53468 0.4334,-0.96813 0.9681,-0.96813 0.5347,0 0.9682,0.43345 0.9682,0.96813 z"
         id="path3031-8"
         inkscape:connector-curvature="0" />
      <path
         style="color:#000000;fill:#c1041d;fill-opacity:1;fill-rule:nonzero;stroke:none;stroke-width:0.80000001;marker:none;visibility:visible;display:inline;overflow:visible;enable-background:accumulate"
         d="m 1730.308,327.24953 c 0,0.53469 -0.4335,0.96813 -0.9682,0.96813 -0.5347,0 -0.9681,-0.43344 -0.9681,-0.96813 0,-0.53468 0.4334,-0.96813 0.9681,-0.96813 0.5347,0 0.9682,0.43345 0.9682,0.96813 z"
         id="path3031-2"
         inkscape:connector-curvature="0" />
      <path
         style="color:#000000;fill:#c1041d;fill-opacity:1;fill-rule:nonzero;stroke:none;stroke-width:0.80000001;marker:none;visibility:visible;display:inline;overflow:visible;enable-background:accumulate"
         d="m 1729.1463,326.99136 c 0,0.53469 -0.4335,0.96813 -0.9682,0.96813 -0.5347,0 -0.9681,-0.43344 -0.9681,-0.96813 0,-0.53468 0.4334,-0.96813 0.9681,-0.96813 0.5347,0 0.9682,0.43345 0.9682,0.96813 z"
         id="path3031-45"
         inkscape:connector-curvature="0" />
      <path
         style="color:#000000;fill:#c1041d;fill-opacity:1;fill-rule:nonzero;stroke:none;stroke-width:0.80000001;marker:none;visibility:visible;display:inline;overflow:visible;enable-background:accumulate"
         d="m 1727.7263,327.37861 c 0,0.53469 -0.4335,0.96813 -0.9682,0.96813 -0.5347,0 -0.9681,-0.43344 -0.9681,-0.96813 0,-0.53468 0.4334,-0.96813 0.9681,-0.96813 0.5347,0 0.9682,0.43345 0.9682,0.96813 z"
         id="path3031-5"
         inkscape:connector-curvature="0" />
      <path
         style="color:#000000;fill:#c1041d;fill-opacity:1;fill-rule:nonzero;stroke:none;stroke-width:0.80000001;marker:none;visibility:visible;display:inline;overflow:visible;enable-background:accumulate"
         d="m 1726.4355,328.15312 c 0,0.53469 -0.4335,0.96813 -0.9682,0.96813 -0.5347,0 -0.9681,-0.43344 -0.9681,-0.96813 0,-0.53468 0.4334,-0.96813 0.9681,-0.96813 0.5347,0 0.9682,0.43345 0.9682,0.96813 z"
         id="path3031-17"
         inkscape:connector-curvature="0" />
      <path
         style="color:#000000;fill:#c1041d;fill-opacity:1;fill-rule:nonzero;stroke:none;stroke-width:0.80000001;marker:none;visibility:visible;display:inline;overflow:visible;enable-background:accumulate"
         d="m 1725.9192,328.734 c 0,0.53469 -0.4335,0.96813 -0.9682,0.96813 -0.5347,0 -0.9681,-0.43344 -0.9681,-0.96813 0,-0.53468 0.4334,-0.96813 0.9681,-0.96813 0.5347,0 0.9682,0.43345 0.9682,0.96813 z"
         id="path3031-11"
         inkscape:connector-curvature="0" />
      <path
         style="color:#000000;fill:#c1041d;fill-opacity:1;fill-rule:nonzero;stroke:none;stroke-width:0.80000001;marker:none;visibility:visible;display:inline;overflow:visible;enable-background:accumulate"
         d="m 1723.402,328.734 c 0,0.53469 -0.4335,0.96813 -0.9682,0.96813 -0.5347,0 -0.9681,-0.43344 -0.9681,-0.96813 0,-0.53468 0.4334,-0.96813 0.9681,-0.96813 0.5347,0 0.9682,0.43345 0.9682,0.96813 z"
         id="path3031-52"
         inkscape:connector-curvature="0" />
      <path
         style="color:#000000;fill:#c1041d;fill-opacity:1;fill-rule:nonzero;stroke:none;stroke-width:0.80000001;marker:none;visibility:visible;display:inline;overflow:visible;enable-background:accumulate"
         d="m 1722.3048,327.89495 c 0,0.53469 -0.4335,0.96813 -0.9682,0.96813 -0.5347,0 -0.9681,-0.43344 -0.9681,-0.96813 0,-0.53468 0.4334,-0.96813 0.9681,-0.96813 0.5347,0 0.9682,0.43345 0.9682,0.96813 z"
         id="path3031-76"
         inkscape:connector-curvature="0" />
      <path
         style="color:#000000;fill:#c1041d;fill-opacity:1;fill-rule:nonzero;stroke:none;stroke-width:0.80000001;marker:none;visibility:visible;display:inline;overflow:visible;enable-background:accumulate"
         d="m 1721.143,327.37861 c 0,0.53469 -0.4335,0.96813 -0.9682,0.96813 -0.5347,0 -0.9681,-0.43344 -0.9681,-0.96813 0,-0.53468 0.4334,-0.96813 0.9681,-0.96813 0.5347,0 0.9682,0.43345 0.9682,0.96813 z"
         id="path3031-14"
         inkscape:connector-curvature="0" />
      <path
         style="color:#000000;fill:#c1041d;fill-opacity:1;fill-rule:nonzero;stroke:none;stroke-width:0.80000001;marker:none;visibility:visible;display:inline;overflow:visible;enable-background:accumulate"
         d="m 1720.2395,326.92682 c 0,0.53469 -0.4335,0.96813 -0.9682,0.96813 -0.5347,0 -0.9681,-0.43344 -0.9681,-0.96813 0,-0.53468 0.4334,-0.96813 0.9681,-0.96813 0.5347,0 0.9682,0.43345 0.9682,0.96813 z"
         id="path3031-23"
         inkscape:connector-curvature="0" />
      <path
         style="color:#000000;fill:#c1041d;fill-opacity:1;fill-rule:nonzero;stroke:none;stroke-width:0.80000001;marker:none;visibility:visible;display:inline;overflow:visible;enable-background:accumulate"
         d="m 1729.7271,321.56983 c 0,0.53469 -0.4335,0.96813 -0.9682,0.96813 -0.5347,0 -0.9681,-0.43344 -0.9681,-0.96813 0,-0.53468 0.4334,-0.96813 0.9681,-0.96813 0.5347,0 0.9682,0.43345 0.9682,0.96813 z"
         id="path3031-22"
         inkscape:connector-curvature="0" />
      <path
         style="color:#000000;fill:#c1041d;fill-opacity:1;fill-rule:nonzero;stroke:none;stroke-width:0.80000001;marker:none;visibility:visible;display:inline;overflow:visible;enable-background:accumulate"
         d="m 1728.1136,321.56983 c 0,0.53469 -0.4335,0.96813 -0.9682,0.96813 -0.5347,0 -0.9681,-0.43344 -0.9681,-0.96813 0,-0.53468 0.4334,-0.96813 0.9681,-0.96813 0.5347,0 0.9682,0.43345 0.9682,0.96813 z"
         id="path3031-16"
         inkscape:connector-curvature="0" />
      <path
         style="color:#000000;fill:#c1041d;fill-opacity:1;fill-rule:nonzero;stroke:none;stroke-width:0.80000001;marker:none;visibility:visible;display:inline;overflow:visible;enable-background:accumulate"
         d="m 1727.5327,322.47342 c 0,0.53469 -0.4335,0.96813 -0.9682,0.96813 -0.5347,0 -0.9681,-0.43344 -0.9681,-0.96813 0,-0.53468 0.4334,-0.96813 0.9681,-0.96813 0.5347,0 0.9682,0.43345 0.9682,0.96813 z"
         id="path3031-85"
         inkscape:connector-curvature="0" />
      <path
         style="color:#000000;fill:#c1041d;fill-opacity:1;fill-rule:nonzero;stroke:none;stroke-width:0.80000001;marker:none;visibility:visible;display:inline;overflow:visible;enable-background:accumulate"
         d="m 1726.371,323.63517 c 0,0.53469 -0.4335,0.96813 -0.9682,0.96813 -0.5347,0 -0.9681,-0.43344 -0.9681,-0.96813 0,-0.53468 0.4334,-0.96813 0.9681,-0.96813 0.5347,0 0.9682,0.43345 0.9682,0.96813 z"
         id="path3031-761"
         inkscape:connector-curvature="0" />
      <path
         style="color:#000000;fill:#c1041d;fill-opacity:1;fill-rule:nonzero;stroke:none;stroke-width:0.80000001;marker:none;visibility:visible;display:inline;overflow:visible;enable-background:accumulate"
         d="m 1725.4028,324.40968 c 0,0.53469 -0.4335,0.96813 -0.9682,0.96813 -0.5347,0 -0.9681,-0.43344 -0.9681,-0.96813 0,-0.53468 0.4334,-0.96813 0.9681,-0.96813 0.5347,0 0.9682,0.43345 0.9682,0.96813 z"
         id="path3031-89"
         inkscape:connector-curvature="0" />
      <path
         style="color:#000000;fill:#c1041d;fill-opacity:1;fill-rule:nonzero;stroke:none;stroke-width:0.80000001;marker:none;visibility:visible;display:inline;overflow:visible;enable-background:accumulate"
         d="m 1726.3064,321.828 c 0,0.53469 -0.4335,0.96813 -0.9682,0.96813 -0.5347,0 -0.9681,-0.43344 -0.9681,-0.96813 0,-0.53468 0.4334,-0.96813 0.9681,-0.96813 0.5347,0 0.9682,0.43345 0.9682,0.96813 z"
         id="path3031-27"
         inkscape:connector-curvature="0" />
      <path
         style="color:#000000;fill:#c1041d;fill-opacity:1;fill-rule:nonzero;stroke:none;stroke-width:0.80000001;marker:none;visibility:visible;display:inline;overflow:visible;enable-background:accumulate"
         d="m 1723.4666,321.50528 c 0,0.53469 -0.4335,0.96813 -0.9682,0.96813 -0.5347,0 -0.9681,-0.43344 -0.9681,-0.96813 0,-0.53468 0.4334,-0.96813 0.9681,-0.96813 0.5347,0 0.9682,0.43345 0.9682,0.96813 z"
         id="path3031-95"
         inkscape:connector-curvature="0" />
      <path
         style="color:#000000;fill:#c1041d;fill-opacity:1;fill-rule:nonzero;stroke:none;stroke-width:0.80000001;marker:none;visibility:visible;display:inline;overflow:visible;enable-background:accumulate"
         d="m 1722.1112,320.98895 c 0,0.53469 -0.4335,0.96813 -0.9682,0.96813 -0.5347,0 -0.9681,-0.43344 -0.9681,-0.96813 0,-0.53468 0.4334,-0.96813 0.9681,-0.96813 0.5347,0 0.9682,0.43345 0.9682,0.96813 z"
         id="path3031-43"
         inkscape:connector-curvature="0" />
      <path
         style="color:#000000;fill:#c1041d;fill-opacity:1;fill-rule:nonzero;stroke:none;stroke-width:0.80000001;marker:none;visibility:visible;display:inline;overflow:visible;enable-background:accumulate"
         d="m 1721.6594,319.63357 c 0,0.53469 -0.4335,0.96813 -0.9682,0.96813 -0.5347,0 -0.9681,-0.43344 -0.9681,-0.96813 0,-0.53468 0.4334,-0.96813 0.9681,-0.96813 0.5347,0 0.9682,0.43345 0.9682,0.96813 z"
         id="path3031-12"
         inkscape:connector-curvature="0" />
      <path
         style="color:#000000;fill:#c1041d;fill-opacity:1;fill-rule:nonzero;stroke:none;stroke-width:0.80000001;marker:none;visibility:visible;display:inline;overflow:visible;enable-background:accumulate"
         d="m 1721.0785,318.79452 c 0,0.53469 -0.4335,0.96813 -0.9682,0.96813 -0.5347,0 -0.9681,-0.43344 -0.9681,-0.96813 0,-0.53468 0.4334,-0.96813 0.9681,-0.96813 0.5347,0 0.9682,0.43345 0.9682,0.96813 z"
         id="path3031-3"
         inkscape:connector-curvature="0" />
      <path
         style="color:#000000;fill:#c1041d;fill-opacity:1;fill-rule:nonzero;stroke:none;stroke-width:0.80000001;marker:none;visibility:visible;display:inline;overflow:visible;enable-background:accumulate"
         d="m 1719.1422,318.21364 c 0,0.53469 -0.4335,0.96813 -0.9682,0.96813 -0.5347,0 -0.9681,-0.43344 -0.9681,-0.96813 0,-0.53468 0.4334,-0.96813 0.9681,-0.96813 0.5347,0 0.9682,0.43345 0.9682,0.96813 z"
         id="path3031-34"
         inkscape:connector-curvature="0" />
      <path
         style="color:#000000;fill:#c1041d;fill-opacity:1;fill-rule:nonzero;stroke:none;stroke-width:0.80000001;marker:none;visibility:visible;display:inline;overflow:visible;enable-background:accumulate"
         d="m 1729.6626,315.63196 c 0,0.53469 -0.4335,0.96813 -0.9682,0.96813 -0.5347,0 -0.9681,-0.43344 -0.9681,-0.96813 0,-0.53468 0.4334,-0.96813 0.9681,-0.96813 0.5347,0 0.9682,0.43345 0.9682,0.96813 z"
         id="path3031-113"
         inkscape:connector-curvature="0" />
      <path
         style="color:#000000;fill:#c1041d;fill-opacity:1;fill-rule:nonzero;stroke:none;stroke-width:0.80000001;marker:none;visibility:visible;display:inline;overflow:visible;enable-background:accumulate"
         d="m 1728.4363,317.31005 c 0,0.53469 -0.4335,0.96813 -0.9682,0.96813 -0.5347,0 -0.9681,-0.43344 -0.9681,-0.96813 0,-0.53468 0.4334,-0.96813 0.9681,-0.96813 0.5347,0 0.9682,0.43345 0.9682,0.96813 z"
         id="path3031-87"
         inkscape:connector-curvature="0" />
      <path
         style="color:#000000;fill:#c1041d;fill-opacity:1;fill-rule:nonzero;stroke:none;stroke-width:0.80000001;marker:none;visibility:visible;display:inline;overflow:visible;enable-background:accumulate"
         d="m 1726.5646,317.82639 c 0,0.53469 -0.4335,0.96813 -0.9682,0.96813 -0.5347,0 -0.9681,-0.43344 -0.9681,-0.96813 0,-0.53468 0.4334,-0.96813 0.9681,-0.96813 0.5347,0 0.9682,0.43345 0.9682,0.96813 z"
         id="path3031-42"
         inkscape:connector-curvature="0" />
      <path
         style="color:#000000;fill:#c1041d;fill-opacity:1;fill-rule:nonzero;stroke:none;stroke-width:0.80000001;marker:none;visibility:visible;display:inline;overflow:visible;enable-background:accumulate"
         d="m 1725.4028,317.50368 c 0,0.53469 -0.4335,0.96813 -0.9682,0.96813 -0.5347,0 -0.9681,-0.43344 -0.9681,-0.96813 0,-0.53468 0.4334,-0.96813 0.9681,-0.96813 0.5347,0 0.9682,0.43345 0.9682,0.96813 z"
         id="path3031-77"
         inkscape:connector-curvature="0" />
      <path
         style="color:#000000;fill:#c1041d;fill-opacity:1;fill-rule:nonzero;stroke:none;stroke-width:0.80000001;marker:none;visibility:visible;display:inline;overflow:visible;enable-background:accumulate"
         d="m 1727.8554,317.95547 c 0,0.53469 -0.4335,0.96813 -0.9682,0.96813 -0.5347,0 -0.9681,-0.43344 -0.9681,-0.96813 0,-0.53468 0.4334,-0.96813 0.9681,-0.96813 0.5347,0 0.9682,0.43345 0.9682,0.96813 z"
         id="path3031-93"
         inkscape:connector-curvature="0" />
      <path
         style="color:#000000;fill:#c1041d;fill-opacity:1;fill-rule:nonzero;stroke:none;stroke-width:0.80000001;marker:none;visibility:visible;display:inline;overflow:visible;enable-background:accumulate"
         d="m 1730.1144,310.53314 c 0,0.53469 -0.4335,0.96813 -0.9682,0.96813 -0.5347,0 -0.9681,-0.43344 -0.9681,-0.96813 0,-0.53468 0.4334,-0.96813 0.9681,-0.96813 0.5347,0 0.9682,0.43345 0.9682,0.96813 z"
         id="path3031-19"
         inkscape:connector-curvature="0" />
      <path
         style="color:#000000;fill:#c1041d;fill-opacity:1;fill-rule:nonzero;stroke:none;stroke-width:0.80000001;marker:none;visibility:visible;display:inline;overflow:visible;enable-background:accumulate"
         d="m 1727.5973,310.53314 c 0,0.53469 -0.4335,0.96813 -0.9682,0.96813 -0.5347,0 -0.9681,-0.43344 -0.9681,-0.96813 0,-0.53468 0.4334,-0.96813 0.9681,-0.96813 0.5347,0 0.9682,0.43345 0.9682,0.96813 z"
         id="path3031-86"
         inkscape:connector-curvature="0" />
      <path
         style="color:#000000;fill:#c1041d;fill-opacity:1;fill-rule:nonzero;stroke:none;stroke-width:0.80000001;marker:none;visibility:visible;display:inline;overflow:visible;enable-background:accumulate"
         d="m 1726.3064,311.50127 c 0,0.53469 -0.4335,0.96813 -0.9682,0.96813 -0.5347,0 -0.9681,-0.43344 -0.9681,-0.96813 0,-0.53468 0.4334,-0.96813 0.9681,-0.96813 0.5347,0 0.9682,0.43345 0.9682,0.96813 z"
         id="path3031-50"
         inkscape:connector-curvature="0" />
      <path
         style="color:#000000;fill:#c1041d;fill-opacity:1;fill-rule:nonzero;stroke:none;stroke-width:0.80000001;marker:none;visibility:visible;display:inline;overflow:visible;enable-background:accumulate"
         d="m 1728.5008,310.53314 c 0,0.53469 -0.4335,0.96813 -0.9682,0.96813 -0.5347,0 -0.9681,-0.43344 -0.9681,-0.96813 0,-0.53468 0.4334,-0.96813 0.9681,-0.96813 0.5347,0 0.9682,0.43345 0.9682,0.96813 z"
         id="path3031-28"
         inkscape:connector-curvature="0" />
      <path
         style="color:#000000;fill:#c1041d;fill-opacity:1;fill-rule:nonzero;stroke:none;stroke-width:0.80000001;marker:none;visibility:visible;display:inline;overflow:visible;enable-background:accumulate"
         d="m 1721.4012,313.43753 c 0,0.53469 -0.4335,0.96813 -0.9682,0.96813 -0.5347,0 -0.9681,-0.43344 -0.9681,-0.96813 0,-0.53468 0.4334,-0.96813 0.9681,-0.96813 0.5347,0 0.9682,0.43345 0.9682,0.96813 z"
         id="path3031-6"
         inkscape:connector-curvature="0" />
      <path
         style="color:#000000;fill:#c1041d;fill-opacity:1;fill-rule:nonzero;stroke:none;stroke-width:0.80000001;marker:none;visibility:visible;display:inline;overflow:visible;enable-background:accumulate"
         d="m 1729.5981,304.46618 c 0,0.53469 -0.4335,0.96813 -0.9682,0.96813 -0.5347,0 -0.9681,-0.43344 -0.9681,-0.96813 0,-0.53468 0.4334,-0.96813 0.9681,-0.96813 0.5347,0 0.9682,0.43345 0.9682,0.96813 z"
         id="path3031-02"
         inkscape:connector-curvature="0" />
      <path
         style="color:#000000;fill:#c1041d;fill-opacity:1;fill-rule:nonzero;stroke:none;stroke-width:0.80000001;marker:none;visibility:visible;display:inline;overflow:visible;enable-background:accumulate"
         d="m 1728.1136,303.69168 c 0,0.53469 -0.4335,0.96813 -0.9682,0.96813 -0.5347,0 -0.9681,-0.43344 -0.9681,-0.96813 0,-0.53468 0.4334,-0.96813 0.9681,-0.96813 0.5347,0 0.9682,0.43345 0.9682,0.96813 z"
         id="path3031-486"
         inkscape:connector-curvature="0" />
      <path
         style="color:#000000;fill:#c1041d;fill-opacity:1;fill-rule:nonzero;stroke:none;stroke-width:0.80000001;marker:none;visibility:visible;display:inline;overflow:visible;enable-background:accumulate"
         d="m 1725.9192,303.56259 c 0,0.53469 -0.4335,0.96813 -0.9682,0.96813 -0.5347,0 -0.9681,-0.43344 -0.9681,-0.96813 0,-0.53468 0.4334,-0.96813 0.9681,-0.96813 0.5347,0 0.9682,0.43345 0.9682,0.96813 z"
         id="path3031-509"
         inkscape:connector-curvature="0" />
      <path
         style="color:#000000;fill:#c1041d;fill-opacity:1;fill-rule:nonzero;stroke:none;stroke-width:0.80000001;marker:none;visibility:visible;display:inline;overflow:visible;enable-background:accumulate"
         d="m 1727.0809,303.69168 c 0,0.53469 -0.4335,0.96813 -0.9682,0.96813 -0.5347,0 -0.9681,-0.43344 -0.9681,-0.96813 0,-0.53468 0.4334,-0.96813 0.9681,-0.96813 0.5347,0 0.9682,0.43345 0.9682,0.96813 z"
         id="path3031-00"
         inkscape:connector-curvature="0" />
    </g>
  </g>
</svg>
