<?xml version="1.0" encoding="UTF-8" standalone="no"?>
<svg
   xmlns:dc="http://purl.org/dc/elements/1.1/"
   xmlns:cc="http://creativecommons.org/ns#"
   xmlns:rdf="http://www.w3.org/1999/02/22-rdf-syntax-ns#"
   xmlns:svg="http://www.w3.org/2000/svg"
   xmlns="http://www.w3.org/2000/svg"
   viewBox="0 0 1440 720"
   height="720"
   width="1440"
   xml:space="preserve"
   id="svg2"
   version="1.1"><metadata
     id="metadata8"><rdf:RDF><cc:Work
         rdf:about=""><dc:format>image/svg+xml</dc:format><dc:type
           rdf:resource="http://purl.org/dc/dcmitype/StillImage" /></cc:Work></rdf:RDF></metadata><defs
     id="defs6"><clipPath
       id="clipPath18"
       clipPathUnits="userSpaceOnUse"><path
         style="clip-rule:evenodd"
         id="path16"
         d="M 0,1.2207e-4 H 1080 V 540.00012 H 0 Z" /></clipPath></defs><g
     transform="matrix(1.3333333,0,0,-1.3333333,0,720)"
     id="g10"><g
       id="g12"><g
         clip-path="url(#clipPath18)"
         id="g14"><path
           id="path20"
           style="fill:#010066;fill-opacity:1;fill-rule:evenodd;stroke:none"
           d="M 0,6.1035e-5 H 1080 V 540.00006 H 0 Z" /></g></g><path
       id="path22"
       style="fill:#ff0000;fill-opacity:1;fill-rule:evenodd;stroke:none"
       d="m 510.43,299.04 c 15.6,-7.88 15.1,-13.21 22.27,-17.79 1.8,-1.15 3.4,-2.15 4.95,-3.05 l 2.35,-1.25 2.35,1.25 c 1.55,0.9 3.15,1.9 4.95,3.05 7.17,4.58 6.67,9.91 22.27,17.79 -13.71,-10.03 -13.19,-13.78 -19.53,-19.67 -1.59,-1.47 -2.98,-2.62 -4.31,-3.65 l -1.23,-0.93 2.77,-1.17 c 1.83,-0.69 3.86,-1.37 6.22,-2.08 11.88,-4.38 14.9,-5.77 19.74,-9.76 l -4.61,-3.21 0.76,-0.56 c 2.11,-2.42 4.15,-6.99 4.56,-9.26 0.53,-3.03 -0.38,-5.55 -3.42,-7.37 -3.04,-1.82 -7.77,2.77 -5.64,4.02 4.39,2.13 1.52,5.87 -0.83,8.21 l -1.1,1.02 -4.13,-2.88 c -2.74,4.54 -5.61,7.29 -10.31,12 -2.26,2.25 -4.14,3.98 -5.81,5.41 l -2.7,2.16 -2.7,-2.16 c -1.67,-1.43 -3.55,-3.16 -5.81,-5.41 -4.7,-4.71 -7.57,-7.46 -10.31,-12 l -4.13,2.88 -1.1,-1.02 c -2.35,-2.34 -5.22,-6.08 -0.83,-8.21 2.13,-1.25 -2.6,-5.84 -5.64,-4.02 -3.04,1.82 -3.95,4.34 -3.42,7.37 0.41,2.27 2.45,6.84 4.56,9.26 l 0.76,0.56 -4.61,3.21 c 4.84,3.99 7.86,5.38 19.74,9.76 2.36,0.71 4.39,1.39 6.22,2.08 l 2.77,1.17 -1.23,0.93 c -1.33,1.03 -2.72,2.18 -4.31,3.65 -6.34,5.89 -5.82,9.64 -19.53,19.67 z" /><path
       id="path24"
       style="fill:#ffffff;fill-opacity:1;fill-rule:evenodd;stroke:none"
       d="m 468.84,406.05 h -12.15 l -3.75,12.15 -3.75,-12.15 h -12.15 l 9.83,-7.5 -3.76,-12.15 9.83,7.51 9.83,-7.51 -3.76,12.15 z" /><path
       id="path26"
       style="fill:#ffffff;fill-opacity:1;fill-rule:evenodd;stroke:none"
       d="m 409.56,337.05 h -12.19 l -3.77,12.15 -3.77,-12.15 h -12.19 l 9.86,-7.5 -3.76,-12.15 9.86,7.51 9.86,-7.51 -3.76,12.15 z" /><path
       id="path28"
       style="fill:#ffffff;fill-opacity:1;fill-rule:evenodd;stroke:none"
       d="m 397.08,248.01 h -12.15 l -3.75,12.15 -3.75,-12.15 h -12.15 l 9.83,-7.5 -3.76,-12.15 9.83,7.51 9.83,-7.51 -3.76,12.15 z" /><path
       id="path30"
       style="fill:#ffffff;fill-opacity:1;fill-rule:evenodd;stroke:none"
       d="m 434.64,165.69 h -12.15 l -3.75,12.15 -3.75,-12.15 h -12.15 l 9.83,-7.5 -3.76,-12.15 9.83,7.51 9.83,-7.51 -3.76,12.15 z" /><path
       id="path32"
       style="fill:#ffffff;fill-opacity:1;fill-rule:evenodd;stroke:none"
       d="m 510.48,116.37 h -12.19 l -3.77,12.15 -3.77,-12.15 h -12.19 l 9.86,-7.5 -3.76,-12.15 9.86,7.51 9.86,-7.51 -3.76,12.15 z" /><path
       id="path34"
       style="fill:#ffffff;fill-opacity:1;fill-rule:evenodd;stroke:none"
       d="m 524.04,431.13 h 12.19 l 3.77,12.15 3.77,-12.15 h 12.19 l -9.86,-7.5 3.76,-12.15 -9.86,7.51 -9.86,-7.51 3.76,12.15 z" /><path
       id="path36"
       style="fill:#ffffff;fill-opacity:1;fill-rule:evenodd;stroke:none"
       d="m 611.16,406.05 h 12.15 l 3.75,12.15 3.75,-12.15 h 12.15 l -9.83,-7.5 3.76,-12.15 -9.83,7.51 -9.83,-7.51 3.76,12.15 z" /><path
       id="path38"
       style="fill:#ffffff;fill-opacity:1;fill-rule:evenodd;stroke:none"
       d="m 670.44,337.05 h 12.19 l 3.77,12.15 3.77,-12.15 h 12.19 l -9.86,-7.5 3.76,-12.15 -9.86,7.51 -9.86,-7.51 3.76,12.15 z" /><path
       id="path40"
       style="fill:#ffffff;fill-opacity:1;fill-rule:evenodd;stroke:none"
       d="m 682.92,248.01 h 12.15 l 3.75,12.15 3.75,-12.15 h 12.15 l -9.83,-7.5 3.76,-12.15 -9.83,7.51 -9.83,-7.51 3.76,12.15 z" /><path
       id="path42"
       style="fill:#ffffff;fill-opacity:1;fill-rule:evenodd;stroke:none"
       d="m 645.36,165.69 h 12.15 l 3.75,12.15 3.75,-12.15 h 12.15 l -9.83,-7.5 3.76,-12.15 -9.83,7.51 -9.83,-7.51 3.76,12.15 z" /><path
       id="path44"
       style="fill:#ffffff;fill-opacity:1;fill-rule:evenodd;stroke:none"
       d="m 569.52,116.37 h 12.19 l 3.77,12.15 3.77,-12.15 h 12.19 l -9.86,-7.5 3.76,-12.15 -9.86,7.51 -9.86,-7.51 3.76,12.15 z" /></g></svg>